%TF.GenerationSoftware,KiCad,Pcbnew,9.0.6*%
%TF.CreationDate,2025-11-13T15:57:48+01:00*%
%TF.ProjectId,advent_star,61647665-6e74-45f7-9374-61722e6b6963,rev?*%
%TF.SameCoordinates,Original*%
%TF.FileFunction,Profile,NP*%
%FSLAX46Y46*%
G04 Gerber Fmt 4.6, Leading zero omitted, Abs format (unit mm)*
G04 Created by KiCad (PCBNEW 9.0.6) date 2025-11-13 15:57:48*
%MOMM*%
%LPD*%
G01*
G04 APERTURE LIST*
%TA.AperFunction,Profile*%
%ADD10C,0.100000*%
%TD*%
%TA.AperFunction,Profile*%
%ADD11C,0.337353*%
%TD*%
%TA.AperFunction,Profile*%
%ADD12C,0.120000*%
%TD*%
G04 APERTURE END LIST*
D10*
X150312078Y-66341472D02*
X150515215Y-66356919D01*
X150715399Y-66382356D01*
X150912378Y-66417533D01*
X151105901Y-66462198D01*
X151295716Y-66516099D01*
X151481573Y-66578986D01*
X151663219Y-66650607D01*
X151840404Y-66730711D01*
X152012876Y-66819046D01*
X152180384Y-66915361D01*
X152342677Y-67019404D01*
X152499503Y-67130926D01*
X152650610Y-67249673D01*
X152795748Y-67375395D01*
X152934666Y-67507840D01*
X153067111Y-67646758D01*
X153192833Y-67791896D01*
X153311580Y-67943003D01*
X153423101Y-68099829D01*
X153527145Y-68262122D01*
X153623460Y-68429630D01*
X153711795Y-68602102D01*
X153791898Y-68779287D01*
X153863519Y-68960933D01*
X153926406Y-69146790D01*
X153980308Y-69336605D01*
X154024972Y-69530128D01*
X154060149Y-69727107D01*
X154085586Y-69927290D01*
X154101033Y-70130428D01*
X154106238Y-70336267D01*
X154101033Y-70542107D01*
X154085586Y-70745244D01*
X154060149Y-70945428D01*
X154024972Y-71142407D01*
X153980308Y-71335929D01*
X153926406Y-71525745D01*
X153863519Y-71711601D01*
X153791898Y-71893248D01*
X153711795Y-72070433D01*
X153623460Y-72242905D01*
X153527145Y-72410413D01*
X153423101Y-72572705D01*
X153311580Y-72729531D01*
X153192833Y-72880639D01*
X153067111Y-73025777D01*
X152934666Y-73164694D01*
X152795748Y-73297140D01*
X152650610Y-73422862D01*
X152499503Y-73541609D01*
X152342677Y-73653130D01*
X152180384Y-73757174D01*
X152012876Y-73853489D01*
X151840404Y-73941824D01*
X151663219Y-74021927D01*
X151481573Y-74093548D01*
X151295716Y-74156435D01*
X151105901Y-74210337D01*
X150912378Y-74255001D01*
X150715399Y-74290178D01*
X150515215Y-74315616D01*
X150312078Y-74331062D01*
X150106238Y-74336267D01*
X149900398Y-74331062D01*
X149697261Y-74315616D01*
X149497077Y-74290178D01*
X149300098Y-74255001D01*
X149106575Y-74210337D01*
X148916760Y-74156435D01*
X148730903Y-74093548D01*
X148549257Y-74021927D01*
X148372072Y-73941824D01*
X148199600Y-73853489D01*
X148032092Y-73757174D01*
X147869799Y-73653130D01*
X147712973Y-73541609D01*
X147561866Y-73422862D01*
X147416728Y-73297140D01*
X147277810Y-73164694D01*
X147145365Y-73025777D01*
X147019643Y-72880639D01*
X146900896Y-72729531D01*
X146789375Y-72572705D01*
X146685331Y-72410413D01*
X146589016Y-72242905D01*
X146500681Y-72070433D01*
X146420578Y-71893248D01*
X146348957Y-71711601D01*
X146286070Y-71525745D01*
X146232168Y-71335929D01*
X146187504Y-71142407D01*
X146152327Y-70945428D01*
X146126890Y-70745244D01*
X146111443Y-70542107D01*
X146106238Y-70336267D01*
X146111443Y-70130428D01*
X146126890Y-69927290D01*
X146152327Y-69727107D01*
X146187504Y-69530128D01*
X146232168Y-69336605D01*
X146286070Y-69146790D01*
X146348957Y-68960933D01*
X146420578Y-68779287D01*
X146500681Y-68602102D01*
X146589016Y-68429630D01*
X146685331Y-68262122D01*
X146789375Y-68099829D01*
X146900896Y-67943003D01*
X147019643Y-67791896D01*
X147145365Y-67646758D01*
X147277810Y-67507840D01*
X147416728Y-67375395D01*
X147561866Y-67249673D01*
X147712973Y-67130926D01*
X147869799Y-67019404D01*
X148032092Y-66915361D01*
X148199600Y-66819046D01*
X148372072Y-66730711D01*
X148549257Y-66650607D01*
X148730903Y-66578986D01*
X148916760Y-66516099D01*
X149106575Y-66462198D01*
X149300098Y-66417533D01*
X149497077Y-66382356D01*
X149697261Y-66356919D01*
X149900398Y-66341472D01*
X150106238Y-66336267D01*
X150312078Y-66341472D01*
D11*
X150106230Y-63336278D02*
X150106185Y-63336277D01*
X150106276Y-63336277D01*
X150106230Y-63336278D01*
X150453300Y-63344871D02*
X150798060Y-63370513D01*
X151139891Y-63412966D01*
X151478219Y-63471992D01*
X151812470Y-63547352D01*
X152142070Y-63638810D01*
X152466445Y-63746128D01*
X152785022Y-63869068D01*
X153097227Y-64007393D01*
X153402487Y-64160864D01*
X153700226Y-64329244D01*
X153989872Y-64512296D01*
X154270851Y-64709782D01*
X154542588Y-64921464D01*
X154804510Y-65147104D01*
X155056044Y-65386466D01*
X155295413Y-65637994D01*
X155521060Y-65899911D01*
X155732749Y-66171644D01*
X155930243Y-66452619D01*
X156113302Y-66742262D01*
X156281690Y-67039999D01*
X156435169Y-67345257D01*
X156573501Y-67657462D01*
X156696449Y-67976041D01*
X156803775Y-68300420D01*
X156895241Y-68630025D01*
X156970610Y-68964283D01*
X157029644Y-69302619D01*
X157072106Y-69644461D01*
X157097757Y-69989235D01*
X157106360Y-70336366D01*
X157099510Y-70646152D01*
X157079055Y-70954264D01*
X157045146Y-71260285D01*
X156997938Y-71563799D01*
X156937581Y-71864388D01*
X156864230Y-72161636D01*
X156778037Y-72455124D01*
X156679154Y-72744437D01*
X156567735Y-73029158D01*
X156443932Y-73308868D01*
X156307899Y-73583152D01*
X156159787Y-73851591D01*
X155999750Y-74113770D01*
X155827940Y-74369270D01*
X155644511Y-74617676D01*
X155449614Y-74858570D01*
X157118680Y-78923301D01*
X157929340Y-80901652D01*
X158715278Y-82752516D01*
X159096913Y-83608701D01*
X159469892Y-84407287D01*
X159833388Y-85139697D01*
X160186577Y-85797356D01*
X160528632Y-86371688D01*
X160858728Y-86854116D01*
X161176040Y-87236066D01*
X161329644Y-87386681D01*
X161479743Y-87508960D01*
X161797217Y-87696152D01*
X162204904Y-87865974D01*
X163265467Y-88159154D01*
X164610535Y-88399785D01*
X166189211Y-88599155D01*
X169843797Y-88919252D01*
X173822050Y-89209736D01*
X177716792Y-89560893D01*
X179505603Y-89787440D01*
X181120846Y-90063014D01*
X182511622Y-90398901D01*
X183106931Y-90592989D01*
X183627036Y-90806387D01*
X184065576Y-91040507D01*
X184416189Y-91296759D01*
X184672513Y-91576553D01*
X184828185Y-91881302D01*
X184881369Y-92219351D01*
X184838457Y-92596375D01*
X184705424Y-93009776D01*
X184488247Y-93456956D01*
X184192903Y-93935316D01*
X183825367Y-94442258D01*
X182897626Y-95531493D01*
X181752836Y-96703876D01*
X180438808Y-97938620D01*
X177494278Y-100512041D01*
X174446522Y-103085461D01*
X171678027Y-105492587D01*
X170518030Y-106581823D01*
X169571280Y-107567124D01*
X168885588Y-108427705D01*
X168655579Y-108804729D01*
X168508765Y-109142778D01*
X168428840Y-109502560D01*
X168393312Y-109942771D01*
X168442212Y-111042022D01*
X168629005Y-112395613D01*
X168927227Y-113958625D01*
X169752115Y-117533241D01*
X170705186Y-121406527D01*
X171574744Y-125219139D01*
X171912053Y-126990396D01*
X172149100Y-128611731D01*
X172259422Y-130038224D01*
X172258792Y-130664369D01*
X172216559Y-131224959D01*
X172129413Y-131714380D01*
X171994048Y-132127017D01*
X171807156Y-132457255D01*
X171565428Y-132699480D01*
X171260360Y-132854525D01*
X170888531Y-132930222D01*
X170454260Y-132931451D01*
X169961863Y-132863093D01*
X169415660Y-132730029D01*
X168819967Y-132537139D01*
X167497384Y-131991408D01*
X166028657Y-131264945D01*
X164448328Y-130396798D01*
X161091035Y-128391640D01*
X157701845Y-126288309D01*
X154557096Y-124399179D01*
X153162742Y-123632557D01*
X151933126Y-123036626D01*
X150902790Y-122650433D01*
X150473147Y-122548190D01*
X150106276Y-122513025D01*
X149739405Y-122548190D01*
X149309761Y-122650433D01*
X148279423Y-123036626D01*
X147049806Y-123632557D01*
X145655451Y-124399179D01*
X142510700Y-126288309D01*
X139121508Y-128391640D01*
X135764214Y-130396798D01*
X134183886Y-131264945D01*
X132715159Y-131991408D01*
X131392576Y-132537139D01*
X130796884Y-132730029D01*
X130250680Y-132863093D01*
X129758284Y-132931451D01*
X129324014Y-132930222D01*
X128952186Y-132854525D01*
X128647118Y-132699480D01*
X128405390Y-132457255D01*
X128218498Y-132127017D01*
X128083132Y-131714380D01*
X127995987Y-131224959D01*
X127953753Y-130664369D01*
X127953123Y-130038224D01*
X128063445Y-128611731D01*
X128300491Y-126990396D01*
X128637800Y-125219139D01*
X129507360Y-121406527D01*
X130460431Y-117533241D01*
X131285320Y-113958625D01*
X131583542Y-112395613D01*
X131770334Y-111042022D01*
X131819234Y-109942771D01*
X131783705Y-109502560D01*
X131703780Y-109142778D01*
X131556965Y-108804729D01*
X131326957Y-108427705D01*
X131019732Y-108014304D01*
X130641265Y-107567124D01*
X129694515Y-106581823D01*
X128534518Y-105492587D01*
X125766023Y-103085461D01*
X122718267Y-100512041D01*
X121209193Y-99214937D01*
X119773737Y-97938620D01*
X118459708Y-96703877D01*
X117314919Y-95531494D01*
X116387178Y-94442259D01*
X116019643Y-93935317D01*
X115724298Y-93456957D01*
X115507122Y-93009778D01*
X115374090Y-92596377D01*
X115331178Y-92219352D01*
X115384363Y-91881303D01*
X115540035Y-91576555D01*
X115796358Y-91296760D01*
X116146971Y-91040508D01*
X116585511Y-90806388D01*
X117700924Y-90398902D01*
X119091700Y-90063015D01*
X120706943Y-89787441D01*
X122495754Y-89560894D01*
X126390496Y-89209736D01*
X130368748Y-88919253D01*
X134023336Y-88599155D01*
X135602012Y-88399785D01*
X136947081Y-88159154D01*
X138007645Y-87865974D01*
X138415333Y-87696152D01*
X138732808Y-87508960D01*
X139036509Y-87236066D01*
X139353820Y-86854117D01*
X139683915Y-86371689D01*
X140025970Y-85797358D01*
X140379159Y-85139700D01*
X140742655Y-84407291D01*
X141497271Y-82752525D01*
X142283215Y-80901667D01*
X143093883Y-78923327D01*
X144762976Y-74858631D01*
X144568078Y-74617739D01*
X144384647Y-74369335D01*
X144212836Y-74113836D01*
X144052797Y-73851659D01*
X143904683Y-73583219D01*
X143768647Y-73308936D01*
X143644841Y-73029224D01*
X143533419Y-72744502D01*
X143434533Y-72455186D01*
X143348337Y-72161693D01*
X143274982Y-71864440D01*
X143214622Y-71563844D01*
X143167409Y-71260322D01*
X143133496Y-70954290D01*
X143113037Y-70646166D01*
X143106183Y-70336367D01*
X143114782Y-69989251D01*
X143140429Y-69644491D01*
X143182886Y-69302661D01*
X143241916Y-68964334D01*
X143317281Y-68630084D01*
X143408743Y-68300485D01*
X143516066Y-67976110D01*
X143639010Y-67657535D01*
X143777338Y-67345331D01*
X143930814Y-67040074D01*
X144099198Y-66742337D01*
X144282254Y-66452693D01*
X144479744Y-66171716D01*
X144691430Y-65899981D01*
X144917074Y-65638061D01*
X145156439Y-65386530D01*
X145407970Y-65147165D01*
X145669890Y-64921521D01*
X145941625Y-64709836D01*
X146222601Y-64512346D01*
X146512244Y-64329291D01*
X146809981Y-64160906D01*
X147115238Y-64007431D01*
X147427441Y-63869103D01*
X147746017Y-63746158D01*
X148070391Y-63638836D01*
X148399990Y-63547374D01*
X148734240Y-63472009D01*
X149072568Y-63412979D01*
X149414399Y-63370522D01*
X149759159Y-63344875D01*
X150106230Y-63336278D01*
X150453300Y-63344871D01*
D12*
%TO.C,BT1*%
X138300000Y-93750000D02*
X138300000Y-100250000D01*
X138300000Y-106250000D02*
X138300000Y-112750000D01*
X139300000Y-101250000D02*
X154300000Y-101250000D01*
X139300000Y-113750000D02*
X161300000Y-113750000D01*
X143300000Y-95750000D02*
X144800000Y-94750000D01*
X143300000Y-97750000D02*
X143300000Y-95750000D01*
X143300000Y-108750000D02*
X144800000Y-107750000D01*
X143300000Y-110750000D02*
X143300000Y-108750000D01*
X144800000Y-94750000D02*
X161300000Y-94750000D01*
X144800000Y-98750000D02*
X143300000Y-97750000D01*
X144800000Y-107750000D02*
X161300000Y-107750000D01*
X144800000Y-111750000D02*
X143300000Y-110750000D01*
X154300000Y-101250000D02*
X155800000Y-102250000D01*
X154300000Y-105250000D02*
X139300000Y-105250000D01*
X155800000Y-102250000D02*
X155800000Y-104250000D01*
X155800000Y-104250000D02*
X154300000Y-105250000D01*
X161300000Y-92750000D02*
X139300000Y-92750000D01*
X161300000Y-98750000D02*
X144800000Y-98750000D01*
X161300000Y-111750000D02*
X144800000Y-111750000D01*
X162300000Y-106750000D02*
X162300000Y-99750000D01*
X138300000Y-93750000D02*
G75*
G02*
X139300000Y-92750000I999999J1D01*
G01*
X138300000Y-106250000D02*
G75*
G02*
X139300000Y-105250000I999999J1D01*
G01*
X139300000Y-101250000D02*
G75*
G02*
X138300000Y-100250000I-1J999999D01*
G01*
X139300000Y-113750000D02*
G75*
G02*
X138300000Y-112750000I-1J999999D01*
G01*
X161300000Y-92750000D02*
G75*
G02*
X162300000Y-93750000I0J-1000000D01*
G01*
X161300000Y-98750000D02*
G75*
G02*
X162300000Y-99750000I0J-1000000D01*
G01*
X161300000Y-111750000D02*
G75*
G02*
X162300000Y-112750000I0J-1000000D01*
G01*
X162300000Y-93750000D02*
G75*
G02*
X161300000Y-94750000I-1000000J0D01*
G01*
X162300000Y-106750000D02*
G75*
G02*
X161300000Y-107750000I-1000000J0D01*
G01*
X162300000Y-112750000D02*
G75*
G02*
X161300000Y-113750000I-1000000J0D01*
G01*
%TD*%
M02*
