%TF.GenerationSoftware,KiCad,Pcbnew,9.0.6*%
%TF.CreationDate,2025-11-13T15:57:48+01:00*%
%TF.ProjectId,advent_star,61647665-6e74-45f7-9374-61722e6b6963,rev?*%
%TF.SameCoordinates,Original*%
%TF.FileFunction,Soldermask,Top*%
%TF.FilePolarity,Negative*%
%FSLAX46Y46*%
G04 Gerber Fmt 4.6, Leading zero omitted, Abs format (unit mm)*
G04 Created by KiCad (PCBNEW 9.0.6) date 2025-11-13 15:57:48*
%MOMM*%
%LPD*%
G01*
G04 APERTURE LIST*
G04 APERTURE END LIST*
G36*
X170754310Y-130809864D02*
G01*
X170770388Y-130811271D01*
X170786782Y-130819329D01*
X170812892Y-130826940D01*
X170829684Y-130840417D01*
X170844109Y-130847508D01*
X170875588Y-130877259D01*
X170879456Y-130880364D01*
X171160676Y-131215508D01*
X171163056Y-131219846D01*
X171186893Y-131256021D01*
X171191369Y-131271454D01*
X171201730Y-131290338D01*
X171204691Y-131317378D01*
X171209779Y-131334917D01*
X171208372Y-131350991D01*
X171211022Y-131375183D01*
X171204211Y-131398549D01*
X171202805Y-131414622D01*
X171194750Y-131431007D01*
X171187138Y-131457126D01*
X171173655Y-131473924D01*
X171166568Y-131488343D01*
X171136823Y-131519814D01*
X171133713Y-131523690D01*
X170741116Y-131853119D01*
X170736767Y-131855504D01*
X170700602Y-131879336D01*
X170685168Y-131883812D01*
X170666286Y-131894172D01*
X170639243Y-131897133D01*
X170621706Y-131902221D01*
X170605635Y-131900815D01*
X170581441Y-131903465D01*
X170558075Y-131896654D01*
X170542001Y-131895248D01*
X170525610Y-131887191D01*
X170499498Y-131879580D01*
X170482703Y-131866100D01*
X170468280Y-131859011D01*
X170436802Y-131829260D01*
X170432934Y-131826156D01*
X170151714Y-131491012D01*
X170149335Y-131486676D01*
X170125496Y-131450498D01*
X170121018Y-131435062D01*
X170110660Y-131416182D01*
X170107699Y-131389145D01*
X170102610Y-131371602D01*
X170104016Y-131355523D01*
X170101368Y-131331337D01*
X170108177Y-131307975D01*
X170109584Y-131291897D01*
X170117641Y-131275504D01*
X170125252Y-131249394D01*
X170138730Y-131232600D01*
X170145821Y-131218176D01*
X170175577Y-131186691D01*
X170178677Y-131182830D01*
X170571274Y-130853401D01*
X170575607Y-130851023D01*
X170611787Y-130827183D01*
X170627226Y-130822704D01*
X170646104Y-130812348D01*
X170673139Y-130809386D01*
X170690683Y-130804298D01*
X170706759Y-130805704D01*
X170730949Y-130803055D01*
X170754310Y-130809864D01*
G37*
G36*
X129634024Y-130554754D02*
G01*
X129661218Y-130555348D01*
X129680929Y-130564021D01*
X129696694Y-130567136D01*
X129734800Y-130587726D01*
X129739341Y-130589724D01*
X130159156Y-130883682D01*
X130162578Y-130887256D01*
X130194966Y-130916028D01*
X130203286Y-130929780D01*
X130218179Y-130945337D01*
X130228038Y-130970689D01*
X130237492Y-130986315D01*
X130240294Y-131002206D01*
X130249114Y-131024886D01*
X130248583Y-131049210D01*
X130251386Y-131065105D01*
X130247845Y-131083025D01*
X130247252Y-131110218D01*
X130238577Y-131129930D01*
X130235463Y-131145696D01*
X130214872Y-131183804D01*
X130212876Y-131188341D01*
X129961936Y-131546720D01*
X129958356Y-131550146D01*
X129929587Y-131582531D01*
X129915838Y-131590849D01*
X129900281Y-131605743D01*
X129874927Y-131615602D01*
X129859305Y-131625055D01*
X129843418Y-131627856D01*
X129820733Y-131636678D01*
X129796395Y-131636146D01*
X129780509Y-131638948D01*
X129762598Y-131635409D01*
X129735400Y-131634816D01*
X129715685Y-131626141D01*
X129699923Y-131623027D01*
X129661821Y-131602439D01*
X129657277Y-131600440D01*
X129237462Y-131306482D01*
X129234039Y-131302906D01*
X129201651Y-131274135D01*
X129193329Y-131260382D01*
X129178439Y-131244827D01*
X129168580Y-131219476D01*
X129159125Y-131203848D01*
X129156322Y-131187953D01*
X129147504Y-131165278D01*
X129148034Y-131140957D01*
X129145231Y-131125058D01*
X129148772Y-131107131D01*
X129149366Y-131079946D01*
X129158038Y-131060237D01*
X129161154Y-131044467D01*
X129181752Y-131006344D01*
X129183742Y-131001823D01*
X129185727Y-130998986D01*
X129185730Y-130998983D01*
X129432688Y-130646289D01*
X129432697Y-130646278D01*
X129434682Y-130643444D01*
X129438248Y-130640029D01*
X129467030Y-130607632D01*
X129480783Y-130599310D01*
X129496337Y-130584421D01*
X129521682Y-130574564D01*
X129537312Y-130565108D01*
X129553205Y-130562305D01*
X129575885Y-130553486D01*
X129600216Y-130554016D01*
X129616108Y-130551215D01*
X129634024Y-130554754D01*
G37*
G36*
X169741920Y-129603344D02*
G01*
X169757998Y-129604751D01*
X169774392Y-129612809D01*
X169800502Y-129620420D01*
X169817294Y-129633897D01*
X169831719Y-129640988D01*
X169863198Y-129670739D01*
X169867066Y-129673844D01*
X170148286Y-130008988D01*
X170150666Y-130013326D01*
X170174503Y-130049501D01*
X170178979Y-130064934D01*
X170189340Y-130083818D01*
X170192301Y-130110858D01*
X170197389Y-130128397D01*
X170195982Y-130144471D01*
X170198632Y-130168663D01*
X170191821Y-130192029D01*
X170190415Y-130208102D01*
X170182360Y-130224487D01*
X170174748Y-130250606D01*
X170161265Y-130267404D01*
X170154178Y-130281823D01*
X170124433Y-130313294D01*
X170121323Y-130317170D01*
X169728726Y-130646599D01*
X169724377Y-130648984D01*
X169688212Y-130672816D01*
X169672778Y-130677292D01*
X169653896Y-130687652D01*
X169626853Y-130690613D01*
X169609316Y-130695701D01*
X169593245Y-130694295D01*
X169569051Y-130696945D01*
X169545685Y-130690134D01*
X169529611Y-130688728D01*
X169513220Y-130680671D01*
X169487108Y-130673060D01*
X169470313Y-130659580D01*
X169455890Y-130652491D01*
X169424412Y-130622740D01*
X169420544Y-130619636D01*
X169139324Y-130284492D01*
X169136945Y-130280156D01*
X169113106Y-130243978D01*
X169108628Y-130228542D01*
X169098270Y-130209662D01*
X169095309Y-130182625D01*
X169090220Y-130165082D01*
X169091626Y-130149003D01*
X169088978Y-130124817D01*
X169095787Y-130101455D01*
X169097194Y-130085377D01*
X169105251Y-130068984D01*
X169112862Y-130042874D01*
X169126340Y-130026080D01*
X169133431Y-130011656D01*
X169163187Y-129980171D01*
X169166287Y-129976310D01*
X169558884Y-129646881D01*
X169563217Y-129644503D01*
X169599397Y-129620663D01*
X169614836Y-129616184D01*
X169633714Y-129605828D01*
X169660749Y-129602866D01*
X169678293Y-129597778D01*
X169694369Y-129599184D01*
X169718559Y-129596535D01*
X169741920Y-129603344D01*
G37*
G36*
X130537406Y-129264590D02*
G01*
X130564600Y-129265184D01*
X130584311Y-129273857D01*
X130600076Y-129276972D01*
X130638182Y-129297562D01*
X130642723Y-129299560D01*
X131062538Y-129593518D01*
X131065960Y-129597092D01*
X131098348Y-129625864D01*
X131106668Y-129639616D01*
X131121561Y-129655173D01*
X131131420Y-129680525D01*
X131140874Y-129696151D01*
X131143676Y-129712042D01*
X131152496Y-129734722D01*
X131151965Y-129759046D01*
X131154768Y-129774941D01*
X131151227Y-129792861D01*
X131150634Y-129820054D01*
X131141959Y-129839766D01*
X131138845Y-129855532D01*
X131118254Y-129893640D01*
X131116258Y-129898177D01*
X130865318Y-130256556D01*
X130861738Y-130259982D01*
X130832969Y-130292367D01*
X130819220Y-130300685D01*
X130803663Y-130315579D01*
X130778309Y-130325438D01*
X130762687Y-130334891D01*
X130746800Y-130337692D01*
X130724115Y-130346514D01*
X130699777Y-130345982D01*
X130683891Y-130348784D01*
X130665980Y-130345245D01*
X130638782Y-130344652D01*
X130619067Y-130335977D01*
X130603305Y-130332863D01*
X130565203Y-130312275D01*
X130560659Y-130310276D01*
X130140844Y-130016318D01*
X130137421Y-130012742D01*
X130105033Y-129983971D01*
X130096711Y-129970218D01*
X130081821Y-129954663D01*
X130071962Y-129929312D01*
X130062507Y-129913684D01*
X130059704Y-129897789D01*
X130050886Y-129875114D01*
X130051416Y-129850793D01*
X130048613Y-129834894D01*
X130052154Y-129816967D01*
X130052748Y-129789782D01*
X130061420Y-129770073D01*
X130064536Y-129754303D01*
X130085134Y-129716180D01*
X130087124Y-129711659D01*
X130089109Y-129708822D01*
X130089112Y-129708819D01*
X130336070Y-129356125D01*
X130336079Y-129356114D01*
X130338064Y-129353280D01*
X130341630Y-129349865D01*
X130370412Y-129317468D01*
X130384165Y-129309146D01*
X130399719Y-129294257D01*
X130425064Y-129284400D01*
X130440694Y-129274944D01*
X130456587Y-129272141D01*
X130479267Y-129263322D01*
X130503598Y-129263852D01*
X130519490Y-129261051D01*
X130537406Y-129264590D01*
G37*
G36*
X163533029Y-127602154D02*
G01*
X163560217Y-127602748D01*
X163579925Y-127611420D01*
X163595695Y-127614536D01*
X163633813Y-127635132D01*
X163638340Y-127637124D01*
X163641179Y-127639112D01*
X163993873Y-127886070D01*
X163993879Y-127886075D01*
X163996719Y-127888064D01*
X164000139Y-127891636D01*
X164032530Y-127920412D01*
X164040849Y-127934162D01*
X164055742Y-127949719D01*
X164065600Y-127975069D01*
X164075054Y-127990694D01*
X164077855Y-128006582D01*
X164086677Y-128029267D01*
X164086145Y-128053603D01*
X164088947Y-128069490D01*
X164085408Y-128087400D01*
X164084815Y-128114600D01*
X164076139Y-128134315D01*
X164073026Y-128150076D01*
X164052441Y-128188172D01*
X164050439Y-128192723D01*
X163756481Y-128612538D01*
X163752899Y-128615966D01*
X163724134Y-128648348D01*
X163710383Y-128656667D01*
X163694826Y-128671561D01*
X163669470Y-128681421D01*
X163653847Y-128690874D01*
X163637957Y-128693675D01*
X163615277Y-128702496D01*
X163590951Y-128701965D01*
X163575057Y-128704768D01*
X163557136Y-128701227D01*
X163529945Y-128700634D01*
X163510232Y-128691960D01*
X163494466Y-128688845D01*
X163456353Y-128668251D01*
X163451822Y-128666258D01*
X163187846Y-128481420D01*
X163096288Y-128417311D01*
X163096283Y-128417306D01*
X163093443Y-128415318D01*
X163090021Y-128411744D01*
X163057631Y-128382969D01*
X163049311Y-128369218D01*
X163034420Y-128353663D01*
X163024562Y-128328314D01*
X163015107Y-128312687D01*
X163012305Y-128296795D01*
X163003485Y-128274115D01*
X163004015Y-128249782D01*
X163001214Y-128233891D01*
X163004753Y-128215974D01*
X163005347Y-128188782D01*
X163014020Y-128169071D01*
X163017135Y-128153305D01*
X163037727Y-128115193D01*
X163039723Y-128110659D01*
X163254152Y-127804423D01*
X163331692Y-127693684D01*
X163331693Y-127693681D01*
X163333681Y-127690844D01*
X163337249Y-127687427D01*
X163366027Y-127655033D01*
X163379782Y-127646710D01*
X163395336Y-127631821D01*
X163420684Y-127621963D01*
X163436314Y-127612507D01*
X163452209Y-127609703D01*
X163474885Y-127600886D01*
X163499204Y-127601416D01*
X163515104Y-127598613D01*
X163533029Y-127602154D01*
G37*
G36*
X136711659Y-127499567D02*
G01*
X136735940Y-127501159D01*
X136757763Y-127511921D01*
X136773351Y-127516098D01*
X136788094Y-127526879D01*
X136812490Y-127538910D01*
X136826690Y-127555102D01*
X136839663Y-127564589D01*
X136865491Y-127599347D01*
X136868766Y-127603081D01*
X137125016Y-128046919D01*
X137126610Y-128051616D01*
X137143800Y-128091371D01*
X137145528Y-128107346D01*
X137152452Y-128127741D01*
X137150673Y-128154882D01*
X137152638Y-128173039D01*
X137148461Y-128188625D01*
X137146870Y-128212911D01*
X137136105Y-128234738D01*
X137131930Y-128250322D01*
X137121151Y-128265061D01*
X137109119Y-128289461D01*
X137092923Y-128303664D01*
X137083439Y-128316634D01*
X137048686Y-128342458D01*
X137044948Y-128345737D01*
X136666062Y-128564487D01*
X136661359Y-128566083D01*
X136621609Y-128583271D01*
X136605634Y-128584999D01*
X136585240Y-128591923D01*
X136558097Y-128590144D01*
X136539941Y-128592109D01*
X136524354Y-128587932D01*
X136500070Y-128586341D01*
X136478243Y-128575577D01*
X136462658Y-128571401D01*
X136447916Y-128560621D01*
X136423520Y-128548590D01*
X136409318Y-128532396D01*
X136396346Y-128522910D01*
X136370516Y-128488150D01*
X136367244Y-128484419D01*
X136110994Y-128040581D01*
X136109401Y-128035889D01*
X136092209Y-127996128D01*
X136090479Y-127980149D01*
X136083558Y-127959759D01*
X136085336Y-127932622D01*
X136083371Y-127914460D01*
X136087548Y-127898868D01*
X136089140Y-127874589D01*
X136099901Y-127852766D01*
X136104079Y-127837177D01*
X136114861Y-127822431D01*
X136126891Y-127798039D01*
X136143081Y-127783840D01*
X136152570Y-127770865D01*
X136187336Y-127745030D01*
X136191062Y-127741763D01*
X136569948Y-127523013D01*
X136574634Y-127521421D01*
X136614400Y-127504228D01*
X136630379Y-127502498D01*
X136650770Y-127495577D01*
X136677905Y-127497355D01*
X136696068Y-127495390D01*
X136711659Y-127499567D01*
G37*
G36*
X138075649Y-126712067D02*
G01*
X138099930Y-126713659D01*
X138121753Y-126724421D01*
X138137341Y-126728598D01*
X138152084Y-126739379D01*
X138176480Y-126751410D01*
X138190680Y-126767602D01*
X138203653Y-126777089D01*
X138229481Y-126811847D01*
X138232756Y-126815581D01*
X138489006Y-127259419D01*
X138490600Y-127264116D01*
X138507790Y-127303871D01*
X138509518Y-127319846D01*
X138516442Y-127340241D01*
X138514663Y-127367382D01*
X138516628Y-127385539D01*
X138512451Y-127401125D01*
X138510860Y-127425411D01*
X138500095Y-127447238D01*
X138495920Y-127462822D01*
X138485141Y-127477561D01*
X138473109Y-127501961D01*
X138456913Y-127516164D01*
X138447429Y-127529134D01*
X138412676Y-127554958D01*
X138408938Y-127558237D01*
X138030052Y-127776987D01*
X138025349Y-127778583D01*
X137985599Y-127795771D01*
X137969624Y-127797499D01*
X137949230Y-127804423D01*
X137922087Y-127802644D01*
X137903931Y-127804609D01*
X137888344Y-127800432D01*
X137864060Y-127798841D01*
X137842233Y-127788077D01*
X137826648Y-127783901D01*
X137811906Y-127773121D01*
X137787510Y-127761090D01*
X137773308Y-127744896D01*
X137760336Y-127735410D01*
X137734506Y-127700650D01*
X137731234Y-127696919D01*
X137474984Y-127253081D01*
X137473391Y-127248389D01*
X137456199Y-127208628D01*
X137454469Y-127192649D01*
X137447548Y-127172259D01*
X137449326Y-127145122D01*
X137447361Y-127126960D01*
X137451538Y-127111368D01*
X137453130Y-127087089D01*
X137463891Y-127065266D01*
X137468069Y-127049677D01*
X137478851Y-127034931D01*
X137490881Y-127010539D01*
X137507071Y-126996340D01*
X137516560Y-126983365D01*
X137551326Y-126957530D01*
X137555052Y-126954263D01*
X137933938Y-126735513D01*
X137938624Y-126733921D01*
X137978390Y-126716728D01*
X137994369Y-126714998D01*
X138014760Y-126708077D01*
X138041895Y-126709855D01*
X138060058Y-126707890D01*
X138075649Y-126712067D01*
G37*
G36*
X162242867Y-126698772D02*
G01*
X162270055Y-126699366D01*
X162289763Y-126708038D01*
X162305533Y-126711154D01*
X162343651Y-126731750D01*
X162348178Y-126733742D01*
X162351017Y-126735730D01*
X162703711Y-126982688D01*
X162703717Y-126982693D01*
X162706557Y-126984682D01*
X162709977Y-126988254D01*
X162742368Y-127017030D01*
X162750687Y-127030780D01*
X162765580Y-127046337D01*
X162775438Y-127071687D01*
X162784892Y-127087312D01*
X162787693Y-127103200D01*
X162796515Y-127125885D01*
X162795983Y-127150221D01*
X162798785Y-127166108D01*
X162795246Y-127184018D01*
X162794653Y-127211218D01*
X162785977Y-127230933D01*
X162782864Y-127246694D01*
X162762279Y-127284790D01*
X162760277Y-127289341D01*
X162466319Y-127709156D01*
X162462737Y-127712584D01*
X162433972Y-127744966D01*
X162420221Y-127753285D01*
X162404664Y-127768179D01*
X162379308Y-127778039D01*
X162363685Y-127787492D01*
X162347795Y-127790293D01*
X162325115Y-127799114D01*
X162300789Y-127798583D01*
X162284895Y-127801386D01*
X162266974Y-127797845D01*
X162239783Y-127797252D01*
X162220070Y-127788578D01*
X162204304Y-127785463D01*
X162166191Y-127764869D01*
X162161660Y-127762876D01*
X161984907Y-127639112D01*
X161806126Y-127513929D01*
X161806121Y-127513924D01*
X161803281Y-127511936D01*
X161799859Y-127508362D01*
X161767469Y-127479587D01*
X161759149Y-127465836D01*
X161744258Y-127450281D01*
X161734400Y-127424932D01*
X161724945Y-127409305D01*
X161722143Y-127393413D01*
X161713323Y-127370733D01*
X161713853Y-127346400D01*
X161711052Y-127330509D01*
X161714591Y-127312592D01*
X161715185Y-127285400D01*
X161723858Y-127265689D01*
X161726973Y-127249923D01*
X161747565Y-127211811D01*
X161749561Y-127207277D01*
X161906820Y-126982688D01*
X162041530Y-126790302D01*
X162041531Y-126790299D01*
X162043519Y-126787462D01*
X162047087Y-126784045D01*
X162075865Y-126751651D01*
X162089620Y-126743328D01*
X162105174Y-126728439D01*
X162130522Y-126718581D01*
X162146152Y-126709125D01*
X162162047Y-126706321D01*
X162184723Y-126697504D01*
X162209042Y-126698034D01*
X162224942Y-126695231D01*
X162242867Y-126698772D01*
G37*
G36*
X157533029Y-123802154D02*
G01*
X157560217Y-123802748D01*
X157579925Y-123811420D01*
X157595695Y-123814536D01*
X157633813Y-123835132D01*
X157638340Y-123837124D01*
X157650581Y-123845695D01*
X157993873Y-124086070D01*
X157993879Y-124086075D01*
X157996719Y-124088064D01*
X158000139Y-124091636D01*
X158032530Y-124120412D01*
X158040849Y-124134162D01*
X158055742Y-124149719D01*
X158065600Y-124175069D01*
X158075054Y-124190694D01*
X158077855Y-124206582D01*
X158086677Y-124229267D01*
X158086145Y-124253603D01*
X158088947Y-124269490D01*
X158085408Y-124287400D01*
X158084815Y-124314600D01*
X158076139Y-124334315D01*
X158073026Y-124350076D01*
X158052441Y-124388172D01*
X158050439Y-124392723D01*
X157756481Y-124812538D01*
X157752899Y-124815966D01*
X157724134Y-124848348D01*
X157710383Y-124856667D01*
X157694826Y-124871561D01*
X157669470Y-124881421D01*
X157653847Y-124890874D01*
X157637957Y-124893675D01*
X157615277Y-124902496D01*
X157590951Y-124901965D01*
X157575057Y-124904768D01*
X157557136Y-124901227D01*
X157529945Y-124900634D01*
X157510232Y-124891960D01*
X157494466Y-124888845D01*
X157456353Y-124868251D01*
X157451822Y-124866258D01*
X157330661Y-124781420D01*
X157096288Y-124617311D01*
X157096283Y-124617306D01*
X157093443Y-124615318D01*
X157090021Y-124611744D01*
X157057631Y-124582969D01*
X157049311Y-124569218D01*
X157034420Y-124553663D01*
X157024562Y-124528314D01*
X157015107Y-124512687D01*
X157012305Y-124496795D01*
X157003485Y-124474115D01*
X157004015Y-124449782D01*
X157001214Y-124433891D01*
X157004753Y-124415974D01*
X157005347Y-124388782D01*
X157014020Y-124369071D01*
X157017135Y-124353305D01*
X157037727Y-124315193D01*
X157039723Y-124310659D01*
X157229217Y-124040034D01*
X157331692Y-123893684D01*
X157331693Y-123893681D01*
X157333681Y-123890844D01*
X157337249Y-123887427D01*
X157366027Y-123855033D01*
X157379782Y-123846710D01*
X157395336Y-123831821D01*
X157420684Y-123821963D01*
X157436314Y-123812507D01*
X157452209Y-123809703D01*
X157474885Y-123800886D01*
X157499204Y-123801416D01*
X157515104Y-123798613D01*
X157533029Y-123802154D01*
G37*
G36*
X142711659Y-123799567D02*
G01*
X142735940Y-123801159D01*
X142757763Y-123811921D01*
X142773351Y-123816098D01*
X142788094Y-123826879D01*
X142812490Y-123838910D01*
X142826690Y-123855102D01*
X142839663Y-123864589D01*
X142865491Y-123899347D01*
X142868766Y-123903081D01*
X143125016Y-124346919D01*
X143126610Y-124351616D01*
X143143800Y-124391371D01*
X143145528Y-124407346D01*
X143152452Y-124427741D01*
X143150673Y-124454882D01*
X143152638Y-124473039D01*
X143148461Y-124488625D01*
X143146870Y-124512911D01*
X143136105Y-124534738D01*
X143131930Y-124550322D01*
X143121151Y-124565061D01*
X143109119Y-124589461D01*
X143092923Y-124603664D01*
X143083439Y-124616634D01*
X143048686Y-124642458D01*
X143044948Y-124645737D01*
X142666062Y-124864487D01*
X142661359Y-124866083D01*
X142621609Y-124883271D01*
X142605634Y-124884999D01*
X142585240Y-124891923D01*
X142558097Y-124890144D01*
X142539941Y-124892109D01*
X142524354Y-124887932D01*
X142500070Y-124886341D01*
X142478243Y-124875577D01*
X142462658Y-124871401D01*
X142447916Y-124860621D01*
X142423520Y-124848590D01*
X142409318Y-124832396D01*
X142396346Y-124822910D01*
X142370516Y-124788150D01*
X142367244Y-124784419D01*
X142110994Y-124340581D01*
X142109401Y-124335889D01*
X142092209Y-124296128D01*
X142090479Y-124280149D01*
X142083558Y-124259759D01*
X142085336Y-124232622D01*
X142083371Y-124214460D01*
X142087548Y-124198868D01*
X142089140Y-124174589D01*
X142099901Y-124152766D01*
X142104079Y-124137177D01*
X142114861Y-124122431D01*
X142126891Y-124098039D01*
X142143081Y-124083840D01*
X142152570Y-124070865D01*
X142187336Y-124045030D01*
X142191062Y-124041763D01*
X142569948Y-123823013D01*
X142574634Y-123821421D01*
X142614400Y-123804228D01*
X142630379Y-123802498D01*
X142650770Y-123795577D01*
X142677905Y-123797355D01*
X142696068Y-123795390D01*
X142711659Y-123799567D01*
G37*
G36*
X165254310Y-123259864D02*
G01*
X165270388Y-123261271D01*
X165286782Y-123269329D01*
X165312892Y-123276940D01*
X165329684Y-123290417D01*
X165344109Y-123297508D01*
X165375588Y-123327259D01*
X165379456Y-123330364D01*
X165660676Y-123665508D01*
X165663056Y-123669846D01*
X165686893Y-123706021D01*
X165691369Y-123721454D01*
X165701730Y-123740338D01*
X165704691Y-123767378D01*
X165709779Y-123784917D01*
X165708372Y-123800991D01*
X165711022Y-123825183D01*
X165704211Y-123848549D01*
X165702805Y-123864622D01*
X165694750Y-123881007D01*
X165687138Y-123907126D01*
X165673655Y-123923924D01*
X165666568Y-123938343D01*
X165636823Y-123969814D01*
X165633713Y-123973690D01*
X165241116Y-124303119D01*
X165236767Y-124305504D01*
X165200602Y-124329336D01*
X165185168Y-124333812D01*
X165166286Y-124344172D01*
X165139243Y-124347133D01*
X165121706Y-124352221D01*
X165105635Y-124350815D01*
X165081441Y-124353465D01*
X165058075Y-124346654D01*
X165042001Y-124345248D01*
X165025610Y-124337191D01*
X164999498Y-124329580D01*
X164982703Y-124316100D01*
X164968280Y-124309011D01*
X164936802Y-124279260D01*
X164932934Y-124276156D01*
X164651714Y-123941012D01*
X164649335Y-123936676D01*
X164625496Y-123900498D01*
X164621018Y-123885062D01*
X164610660Y-123866182D01*
X164607699Y-123839145D01*
X164602610Y-123821602D01*
X164604016Y-123805523D01*
X164601368Y-123781337D01*
X164608177Y-123757975D01*
X164609584Y-123741897D01*
X164617641Y-123725504D01*
X164625252Y-123699394D01*
X164638730Y-123682600D01*
X164645821Y-123668176D01*
X164675577Y-123636691D01*
X164678677Y-123632830D01*
X165071274Y-123303401D01*
X165075607Y-123301023D01*
X165111787Y-123277183D01*
X165127226Y-123272704D01*
X165146104Y-123262348D01*
X165173139Y-123259386D01*
X165190683Y-123254298D01*
X165206759Y-123255704D01*
X165230949Y-123253055D01*
X165254310Y-123259864D01*
G37*
G36*
X135034024Y-123254753D02*
G01*
X135061218Y-123255347D01*
X135080929Y-123264020D01*
X135096694Y-123267135D01*
X135134800Y-123287725D01*
X135139341Y-123289723D01*
X135559156Y-123583681D01*
X135562578Y-123587255D01*
X135594966Y-123616027D01*
X135603286Y-123629779D01*
X135618179Y-123645336D01*
X135628038Y-123670688D01*
X135637492Y-123686314D01*
X135640294Y-123702205D01*
X135649114Y-123724885D01*
X135648583Y-123749209D01*
X135651386Y-123765104D01*
X135647845Y-123783024D01*
X135647252Y-123810217D01*
X135638577Y-123829929D01*
X135635463Y-123845695D01*
X135614872Y-123883803D01*
X135612876Y-123888340D01*
X135361936Y-124246719D01*
X135358356Y-124250145D01*
X135329587Y-124282530D01*
X135315838Y-124290848D01*
X135300281Y-124305742D01*
X135274927Y-124315601D01*
X135259305Y-124325054D01*
X135243418Y-124327855D01*
X135220733Y-124336677D01*
X135196395Y-124336145D01*
X135180509Y-124338947D01*
X135162598Y-124335408D01*
X135135400Y-124334815D01*
X135115685Y-124326140D01*
X135099923Y-124323026D01*
X135061821Y-124302438D01*
X135057277Y-124300439D01*
X134637462Y-124006481D01*
X134634039Y-124002905D01*
X134601651Y-123974134D01*
X134593329Y-123960381D01*
X134578439Y-123944826D01*
X134568580Y-123919475D01*
X134559125Y-123903847D01*
X134556322Y-123887952D01*
X134547504Y-123865277D01*
X134548034Y-123840956D01*
X134545231Y-123825057D01*
X134548772Y-123807130D01*
X134549366Y-123779945D01*
X134558038Y-123760236D01*
X134561154Y-123744466D01*
X134581752Y-123706343D01*
X134583742Y-123701822D01*
X134585727Y-123698985D01*
X134585730Y-123698982D01*
X134832688Y-123346288D01*
X134832697Y-123346277D01*
X134834682Y-123343443D01*
X134838248Y-123340028D01*
X134867030Y-123307631D01*
X134880783Y-123299309D01*
X134896337Y-123284420D01*
X134921682Y-123274563D01*
X134937312Y-123265107D01*
X134953205Y-123262304D01*
X134975885Y-123253485D01*
X135000216Y-123254015D01*
X135016108Y-123251214D01*
X135034024Y-123254753D01*
G37*
G36*
X169901786Y-123267577D02*
G01*
X169923274Y-123266169D01*
X169949026Y-123274910D01*
X169967078Y-123277713D01*
X169981057Y-123285784D01*
X170004097Y-123293605D01*
X170022387Y-123309645D01*
X170036368Y-123317717D01*
X170047822Y-123331951D01*
X170068268Y-123349882D01*
X170077792Y-123369196D01*
X170087868Y-123381717D01*
X170103823Y-123421982D01*
X170106018Y-123426432D01*
X170211903Y-123821602D01*
X170213921Y-123829134D01*
X170219251Y-123849024D01*
X170219574Y-123853959D01*
X170225890Y-123896822D01*
X170223425Y-123912700D01*
X170224834Y-123934193D01*
X170216090Y-123959952D01*
X170213289Y-123977997D01*
X170205221Y-123991969D01*
X170197399Y-124015016D01*
X170181352Y-124033313D01*
X170173285Y-124047287D01*
X170159056Y-124058736D01*
X170141122Y-124079187D01*
X170121804Y-124088713D01*
X170109286Y-124098787D01*
X170069029Y-124114738D01*
X170064572Y-124116937D01*
X169569535Y-124249582D01*
X169564597Y-124249905D01*
X169521736Y-124256221D01*
X169505857Y-124253756D01*
X169484366Y-124255165D01*
X169458609Y-124246421D01*
X169440561Y-124243620D01*
X169426583Y-124235550D01*
X169403543Y-124227729D01*
X169385251Y-124211687D01*
X169371271Y-124203616D01*
X169359817Y-124189382D01*
X169339372Y-124171452D01*
X169329847Y-124152138D01*
X169319771Y-124139616D01*
X169303813Y-124099345D01*
X169301622Y-124094902D01*
X169226498Y-123814536D01*
X169189285Y-123675657D01*
X169189283Y-123675650D01*
X169188389Y-123672310D01*
X169188066Y-123667384D01*
X169181749Y-123624511D01*
X169184214Y-123608628D01*
X169182806Y-123587141D01*
X169191547Y-123561387D01*
X169194350Y-123543336D01*
X169202420Y-123529357D01*
X169210241Y-123506318D01*
X169226282Y-123488026D01*
X169234354Y-123474046D01*
X169248588Y-123462591D01*
X169266518Y-123442147D01*
X169285829Y-123432623D01*
X169298353Y-123422546D01*
X169338624Y-123406588D01*
X169343068Y-123404397D01*
X169621538Y-123329781D01*
X169834757Y-123272648D01*
X169834766Y-123272646D01*
X169838105Y-123271752D01*
X169843028Y-123271429D01*
X169885903Y-123265112D01*
X169901786Y-123267577D01*
G37*
G36*
X130456948Y-123171426D02*
G01*
X130461895Y-123171751D01*
X130956932Y-123304396D01*
X130961371Y-123306585D01*
X131001647Y-123322546D01*
X131014167Y-123332621D01*
X131033482Y-123342146D01*
X131051414Y-123362593D01*
X131065645Y-123374045D01*
X131073714Y-123388021D01*
X131089759Y-123406317D01*
X131097581Y-123429360D01*
X131105649Y-123443335D01*
X131108450Y-123461381D01*
X131117194Y-123487140D01*
X131115785Y-123508628D01*
X131118250Y-123524509D01*
X131111935Y-123567359D01*
X131111611Y-123572309D01*
X130998378Y-123994901D01*
X130996183Y-123999350D01*
X130980227Y-124039616D01*
X130970154Y-124052133D01*
X130960628Y-124071451D01*
X130940179Y-124089384D01*
X130928728Y-124103615D01*
X130914750Y-124111684D01*
X130896457Y-124127728D01*
X130873413Y-124135550D01*
X130859438Y-124143619D01*
X130841391Y-124146420D01*
X130815634Y-124155164D01*
X130794142Y-124153755D01*
X130778265Y-124156220D01*
X130735421Y-124149905D01*
X130730465Y-124149581D01*
X130235428Y-124016936D01*
X130230982Y-124014743D01*
X130190712Y-123998785D01*
X130178193Y-123988711D01*
X130158878Y-123979186D01*
X130140945Y-123958737D01*
X130126714Y-123947286D01*
X130118644Y-123933308D01*
X130102601Y-123915015D01*
X130094779Y-123891972D01*
X130086710Y-123877996D01*
X130083907Y-123859945D01*
X130075166Y-123834192D01*
X130076574Y-123812704D01*
X130074109Y-123796822D01*
X130080425Y-123753958D01*
X130080749Y-123749023D01*
X130133251Y-123553081D01*
X130193084Y-123329781D01*
X130193085Y-123329778D01*
X130193982Y-123326431D01*
X130196169Y-123321995D01*
X130212132Y-123281715D01*
X130222208Y-123269192D01*
X130231732Y-123249881D01*
X130252174Y-123231953D01*
X130263631Y-123217716D01*
X130277614Y-123209642D01*
X130295903Y-123193604D01*
X130318939Y-123185784D01*
X130332921Y-123177712D01*
X130350975Y-123174909D01*
X130376726Y-123166168D01*
X130398212Y-123167576D01*
X130414094Y-123165111D01*
X130456948Y-123171426D01*
G37*
G36*
X144075649Y-123012067D02*
G01*
X144099930Y-123013659D01*
X144121753Y-123024421D01*
X144137341Y-123028598D01*
X144152084Y-123039379D01*
X144176480Y-123051410D01*
X144190680Y-123067602D01*
X144203653Y-123077089D01*
X144229481Y-123111847D01*
X144232756Y-123115581D01*
X144489006Y-123559419D01*
X144490600Y-123564116D01*
X144507790Y-123603871D01*
X144509518Y-123619846D01*
X144516442Y-123640241D01*
X144514663Y-123667382D01*
X144516628Y-123685539D01*
X144512451Y-123701125D01*
X144510860Y-123725411D01*
X144500095Y-123747238D01*
X144495920Y-123762822D01*
X144485141Y-123777561D01*
X144473109Y-123801961D01*
X144456913Y-123816164D01*
X144447429Y-123829134D01*
X144412676Y-123854958D01*
X144408938Y-123858237D01*
X144030052Y-124076987D01*
X144025349Y-124078583D01*
X143985599Y-124095771D01*
X143969624Y-124097499D01*
X143949230Y-124104423D01*
X143922087Y-124102644D01*
X143903931Y-124104609D01*
X143888344Y-124100432D01*
X143864060Y-124098841D01*
X143842233Y-124088077D01*
X143826648Y-124083901D01*
X143811906Y-124073121D01*
X143787510Y-124061090D01*
X143773308Y-124044896D01*
X143760336Y-124035410D01*
X143734506Y-124000650D01*
X143731234Y-123996919D01*
X143474984Y-123553081D01*
X143473391Y-123548389D01*
X143456199Y-123508628D01*
X143454469Y-123492649D01*
X143447548Y-123472259D01*
X143449326Y-123445122D01*
X143447361Y-123426960D01*
X143451538Y-123411368D01*
X143453130Y-123387089D01*
X143463891Y-123365266D01*
X143468069Y-123349677D01*
X143478851Y-123334931D01*
X143490881Y-123310539D01*
X143507071Y-123296340D01*
X143516560Y-123283365D01*
X143551326Y-123257530D01*
X143555052Y-123254263D01*
X143933938Y-123035513D01*
X143938624Y-123033921D01*
X143978390Y-123016728D01*
X143994369Y-123014998D01*
X144014760Y-123008077D01*
X144041895Y-123009855D01*
X144060058Y-123007890D01*
X144075649Y-123012067D01*
G37*
G36*
X156242867Y-122898772D02*
G01*
X156270055Y-122899366D01*
X156289763Y-122908038D01*
X156305533Y-122911154D01*
X156343651Y-122931750D01*
X156348178Y-122933742D01*
X156351017Y-122935730D01*
X156703711Y-123182688D01*
X156703717Y-123182693D01*
X156706557Y-123184682D01*
X156709977Y-123188254D01*
X156742368Y-123217030D01*
X156750687Y-123230780D01*
X156765580Y-123246337D01*
X156775438Y-123271687D01*
X156784892Y-123287312D01*
X156787693Y-123303200D01*
X156796515Y-123325885D01*
X156795983Y-123350221D01*
X156798785Y-123366108D01*
X156795246Y-123384018D01*
X156794653Y-123411218D01*
X156785977Y-123430933D01*
X156782864Y-123446694D01*
X156762279Y-123484790D01*
X156760277Y-123489341D01*
X156466319Y-123909156D01*
X156462737Y-123912584D01*
X156433972Y-123944966D01*
X156420221Y-123953285D01*
X156404664Y-123968179D01*
X156379308Y-123978039D01*
X156363685Y-123987492D01*
X156347795Y-123990293D01*
X156325115Y-123999114D01*
X156300789Y-123998583D01*
X156284895Y-124001386D01*
X156266974Y-123997845D01*
X156239783Y-123997252D01*
X156220070Y-123988578D01*
X156204304Y-123985463D01*
X156166191Y-123964869D01*
X156161660Y-123962876D01*
X156007644Y-123855033D01*
X155806126Y-123713929D01*
X155806121Y-123713924D01*
X155803281Y-123711936D01*
X155799859Y-123708362D01*
X155767469Y-123679587D01*
X155759149Y-123665836D01*
X155744258Y-123650281D01*
X155734400Y-123624932D01*
X155724945Y-123609305D01*
X155722143Y-123593413D01*
X155713323Y-123570733D01*
X155713853Y-123546400D01*
X155711052Y-123530509D01*
X155714591Y-123512592D01*
X155715185Y-123485400D01*
X155723858Y-123465689D01*
X155726973Y-123449923D01*
X155747565Y-123411811D01*
X155749561Y-123407277D01*
X155910304Y-123177712D01*
X156041530Y-122990302D01*
X156041531Y-122990299D01*
X156043519Y-122987462D01*
X156047087Y-122984045D01*
X156075865Y-122951651D01*
X156089620Y-122943328D01*
X156105174Y-122928439D01*
X156130522Y-122918581D01*
X156146152Y-122909125D01*
X156162047Y-122906321D01*
X156184723Y-122897504D01*
X156209042Y-122898034D01*
X156224942Y-122895231D01*
X156242867Y-122898772D01*
G37*
G36*
X164241920Y-122053344D02*
G01*
X164257998Y-122054751D01*
X164274392Y-122062809D01*
X164300502Y-122070420D01*
X164317294Y-122083897D01*
X164331719Y-122090988D01*
X164363198Y-122120739D01*
X164367066Y-122123844D01*
X164648286Y-122458988D01*
X164650666Y-122463326D01*
X164674503Y-122499501D01*
X164678979Y-122514934D01*
X164689340Y-122533818D01*
X164692301Y-122560858D01*
X164697389Y-122578397D01*
X164695982Y-122594471D01*
X164698632Y-122618663D01*
X164691821Y-122642029D01*
X164690415Y-122658102D01*
X164682360Y-122674487D01*
X164674748Y-122700606D01*
X164661265Y-122717404D01*
X164654178Y-122731823D01*
X164624433Y-122763294D01*
X164621323Y-122767170D01*
X164228726Y-123096599D01*
X164224377Y-123098984D01*
X164188212Y-123122816D01*
X164172778Y-123127292D01*
X164153896Y-123137652D01*
X164126853Y-123140613D01*
X164109316Y-123145701D01*
X164093245Y-123144295D01*
X164069051Y-123146945D01*
X164045685Y-123140134D01*
X164029611Y-123138728D01*
X164013220Y-123130671D01*
X163987108Y-123123060D01*
X163970313Y-123109580D01*
X163955890Y-123102491D01*
X163924412Y-123072740D01*
X163920544Y-123069636D01*
X163639324Y-122734492D01*
X163636945Y-122730156D01*
X163613106Y-122693978D01*
X163608628Y-122678542D01*
X163598270Y-122659662D01*
X163595309Y-122632625D01*
X163590220Y-122615082D01*
X163591626Y-122599003D01*
X163588978Y-122574817D01*
X163595787Y-122551455D01*
X163597194Y-122535377D01*
X163605251Y-122518984D01*
X163612862Y-122492874D01*
X163626340Y-122476080D01*
X163633431Y-122461656D01*
X163663187Y-122430171D01*
X163666287Y-122426310D01*
X164058884Y-122096881D01*
X164063217Y-122094503D01*
X164099397Y-122070663D01*
X164114836Y-122066184D01*
X164133714Y-122055828D01*
X164160749Y-122052866D01*
X164178293Y-122047778D01*
X164194369Y-122049184D01*
X164218559Y-122046535D01*
X164241920Y-122053344D01*
G37*
G36*
X135937406Y-121964591D02*
G01*
X135964600Y-121965185D01*
X135984311Y-121973858D01*
X136000076Y-121976973D01*
X136038182Y-121997563D01*
X136042723Y-121999561D01*
X136462538Y-122293519D01*
X136465960Y-122297093D01*
X136498348Y-122325865D01*
X136506668Y-122339617D01*
X136521561Y-122355174D01*
X136531420Y-122380526D01*
X136540874Y-122396152D01*
X136543676Y-122412043D01*
X136552496Y-122434723D01*
X136551965Y-122459047D01*
X136554768Y-122474942D01*
X136551227Y-122492862D01*
X136550634Y-122520055D01*
X136541959Y-122539767D01*
X136538845Y-122555533D01*
X136518254Y-122593641D01*
X136516258Y-122598178D01*
X136420533Y-122734887D01*
X136285007Y-122928439D01*
X136265318Y-122956557D01*
X136261738Y-122959983D01*
X136232969Y-122992368D01*
X136219220Y-123000686D01*
X136203663Y-123015580D01*
X136178309Y-123025439D01*
X136162687Y-123034892D01*
X136146800Y-123037693D01*
X136124115Y-123046515D01*
X136099777Y-123045983D01*
X136083891Y-123048785D01*
X136065980Y-123045246D01*
X136038782Y-123044653D01*
X136019067Y-123035978D01*
X136003305Y-123032864D01*
X135965203Y-123012276D01*
X135960659Y-123010277D01*
X135540844Y-122716319D01*
X135537421Y-122712743D01*
X135505033Y-122683972D01*
X135496711Y-122670219D01*
X135481821Y-122654664D01*
X135471962Y-122629313D01*
X135462507Y-122613685D01*
X135459704Y-122597790D01*
X135450886Y-122575115D01*
X135451416Y-122550794D01*
X135448613Y-122534895D01*
X135452154Y-122516968D01*
X135452748Y-122489783D01*
X135461420Y-122470074D01*
X135464536Y-122454304D01*
X135485134Y-122416181D01*
X135487124Y-122411660D01*
X135489109Y-122408823D01*
X135489112Y-122408820D01*
X135736070Y-122056126D01*
X135736079Y-122056115D01*
X135738064Y-122053281D01*
X135741630Y-122049866D01*
X135770412Y-122017469D01*
X135784165Y-122009147D01*
X135799719Y-121994258D01*
X135825064Y-121984401D01*
X135840694Y-121974945D01*
X135856587Y-121972142D01*
X135879267Y-121963323D01*
X135903598Y-121963853D01*
X135919490Y-121961052D01*
X135937406Y-121964591D01*
G37*
G36*
X169494146Y-121746243D02*
G01*
X169515634Y-121744835D01*
X169541386Y-121753576D01*
X169559438Y-121756379D01*
X169573417Y-121764450D01*
X169596457Y-121772271D01*
X169614747Y-121788311D01*
X169628728Y-121796383D01*
X169640182Y-121810617D01*
X169660628Y-121828548D01*
X169670152Y-121847862D01*
X169680228Y-121860383D01*
X169696183Y-121900648D01*
X169698378Y-121905098D01*
X169811611Y-122327690D01*
X169811934Y-122332625D01*
X169818250Y-122375488D01*
X169815785Y-122391366D01*
X169817194Y-122412859D01*
X169808450Y-122438618D01*
X169805649Y-122456663D01*
X169797581Y-122470635D01*
X169789759Y-122493682D01*
X169773712Y-122511979D01*
X169765645Y-122525953D01*
X169751416Y-122537402D01*
X169733482Y-122557853D01*
X169714164Y-122567379D01*
X169701646Y-122577453D01*
X169661389Y-122593404D01*
X169656932Y-122595603D01*
X169161895Y-122728248D01*
X169156957Y-122728571D01*
X169114096Y-122734887D01*
X169098217Y-122732422D01*
X169076726Y-122733831D01*
X169050969Y-122725087D01*
X169032921Y-122722286D01*
X169018943Y-122714216D01*
X168995903Y-122706395D01*
X168977611Y-122690353D01*
X168963631Y-122682282D01*
X168952177Y-122668048D01*
X168931732Y-122650118D01*
X168922207Y-122630804D01*
X168912131Y-122618282D01*
X168896173Y-122578011D01*
X168893982Y-122573568D01*
X168814112Y-122275490D01*
X168781645Y-122154323D01*
X168781643Y-122154316D01*
X168780749Y-122150976D01*
X168780426Y-122146050D01*
X168774109Y-122103177D01*
X168776574Y-122087294D01*
X168775166Y-122065807D01*
X168783907Y-122040053D01*
X168786710Y-122022002D01*
X168794780Y-122008023D01*
X168802601Y-121984984D01*
X168818642Y-121966692D01*
X168826714Y-121952712D01*
X168840948Y-121941257D01*
X168858878Y-121920813D01*
X168878189Y-121911289D01*
X168890713Y-121901212D01*
X168930984Y-121885254D01*
X168935428Y-121883063D01*
X169226393Y-121805099D01*
X169427117Y-121751314D01*
X169427126Y-121751312D01*
X169430465Y-121750418D01*
X169435388Y-121750095D01*
X169478263Y-121743778D01*
X169494146Y-121746243D01*
G37*
G36*
X130864588Y-121650094D02*
G01*
X130869535Y-121650419D01*
X131364572Y-121783064D01*
X131369011Y-121785253D01*
X131409287Y-121801214D01*
X131421807Y-121811289D01*
X131441122Y-121820814D01*
X131459054Y-121841261D01*
X131473285Y-121852713D01*
X131481354Y-121866689D01*
X131497399Y-121884985D01*
X131505221Y-121908028D01*
X131513289Y-121922003D01*
X131516090Y-121940049D01*
X131524834Y-121965808D01*
X131523425Y-121987299D01*
X131525890Y-122003177D01*
X131519575Y-122046027D01*
X131519251Y-122050977D01*
X131406018Y-122473569D01*
X131403823Y-122478018D01*
X131387867Y-122518284D01*
X131377794Y-122530801D01*
X131368268Y-122550119D01*
X131347819Y-122568052D01*
X131336368Y-122582283D01*
X131322390Y-122590352D01*
X131304097Y-122606396D01*
X131281053Y-122614218D01*
X131267078Y-122622287D01*
X131249031Y-122625088D01*
X131223274Y-122633832D01*
X131201782Y-122632423D01*
X131185905Y-122634888D01*
X131143061Y-122628573D01*
X131138105Y-122628249D01*
X130643068Y-122495604D01*
X130638622Y-122493411D01*
X130598352Y-122477453D01*
X130585833Y-122467379D01*
X130566518Y-122457854D01*
X130548585Y-122437405D01*
X130534354Y-122425954D01*
X130526284Y-122411976D01*
X130510241Y-122393683D01*
X130502419Y-122370640D01*
X130494350Y-122356664D01*
X130491547Y-122338613D01*
X130482806Y-122312860D01*
X130484214Y-122291372D01*
X130481749Y-122275490D01*
X130488065Y-122232626D01*
X130488389Y-122227691D01*
X130536596Y-122047778D01*
X130600724Y-121808449D01*
X130600725Y-121808446D01*
X130601622Y-121805099D01*
X130603809Y-121800663D01*
X130619772Y-121760383D01*
X130629848Y-121747860D01*
X130639372Y-121728549D01*
X130659814Y-121710621D01*
X130671271Y-121696384D01*
X130685254Y-121688310D01*
X130703543Y-121672272D01*
X130726579Y-121664452D01*
X130740561Y-121656380D01*
X130758615Y-121653577D01*
X130784366Y-121644836D01*
X130805852Y-121646244D01*
X130821734Y-121643779D01*
X130864588Y-121650094D01*
G37*
G36*
X149486100Y-120475964D02*
G01*
X149529136Y-120480957D01*
X149543840Y-120487449D01*
X149564962Y-120491651D01*
X149587576Y-120506761D01*
X149604285Y-120514139D01*
X149615696Y-120525550D01*
X149635930Y-120539070D01*
X149649449Y-120559303D01*
X149660860Y-120570714D01*
X149668237Y-120587421D01*
X149683349Y-120610038D01*
X149687550Y-120631161D01*
X149694042Y-120645863D01*
X149699033Y-120688889D01*
X149700000Y-120693750D01*
X149700000Y-121206250D01*
X149699032Y-121211112D01*
X149694042Y-121254136D01*
X149687551Y-121268836D01*
X149683349Y-121289962D01*
X149668235Y-121312580D01*
X149660860Y-121329285D01*
X149649451Y-121340693D01*
X149635930Y-121360930D01*
X149615693Y-121374451D01*
X149604285Y-121385860D01*
X149587580Y-121393235D01*
X149564962Y-121408349D01*
X149543836Y-121412551D01*
X149529136Y-121419042D01*
X149486111Y-121424032D01*
X149481250Y-121425000D01*
X149043750Y-121425000D01*
X149038888Y-121424032D01*
X148995863Y-121419042D01*
X148981161Y-121412550D01*
X148960038Y-121408349D01*
X148937421Y-121393237D01*
X148920714Y-121385860D01*
X148909303Y-121374449D01*
X148889070Y-121360930D01*
X148875550Y-121340696D01*
X148864139Y-121329285D01*
X148856761Y-121312576D01*
X148841651Y-121289962D01*
X148837449Y-121268840D01*
X148830957Y-121254136D01*
X148825964Y-121211099D01*
X148825000Y-121206250D01*
X148825000Y-120693750D01*
X148825964Y-120688900D01*
X148830957Y-120645863D01*
X148837450Y-120631157D01*
X148841651Y-120610038D01*
X148856759Y-120587425D01*
X148864139Y-120570714D01*
X148875552Y-120559300D01*
X148889070Y-120539070D01*
X148909300Y-120525552D01*
X148920714Y-120514139D01*
X148937425Y-120506759D01*
X148960038Y-120491651D01*
X148981157Y-120487450D01*
X148995863Y-120480957D01*
X149038901Y-120475964D01*
X149043750Y-120475000D01*
X149481250Y-120475000D01*
X149486100Y-120475964D01*
G37*
G36*
X151061100Y-120475964D02*
G01*
X151104136Y-120480957D01*
X151118840Y-120487449D01*
X151139962Y-120491651D01*
X151162576Y-120506761D01*
X151179285Y-120514139D01*
X151190696Y-120525550D01*
X151210930Y-120539070D01*
X151224449Y-120559303D01*
X151235860Y-120570714D01*
X151243237Y-120587421D01*
X151258349Y-120610038D01*
X151262550Y-120631161D01*
X151269042Y-120645863D01*
X151274033Y-120688889D01*
X151275000Y-120693750D01*
X151275000Y-121206250D01*
X151274032Y-121211112D01*
X151269042Y-121254136D01*
X151262551Y-121268836D01*
X151258349Y-121289962D01*
X151243235Y-121312580D01*
X151235860Y-121329285D01*
X151224451Y-121340693D01*
X151210930Y-121360930D01*
X151190693Y-121374451D01*
X151179285Y-121385860D01*
X151162580Y-121393235D01*
X151139962Y-121408349D01*
X151118836Y-121412551D01*
X151104136Y-121419042D01*
X151061111Y-121424032D01*
X151056250Y-121425000D01*
X150618750Y-121425000D01*
X150613888Y-121424032D01*
X150570863Y-121419042D01*
X150556161Y-121412550D01*
X150535038Y-121408349D01*
X150512421Y-121393237D01*
X150495714Y-121385860D01*
X150484303Y-121374449D01*
X150464070Y-121360930D01*
X150450550Y-121340696D01*
X150439139Y-121329285D01*
X150431761Y-121312576D01*
X150416651Y-121289962D01*
X150412449Y-121268840D01*
X150405957Y-121254136D01*
X150400964Y-121211099D01*
X150400000Y-121206250D01*
X150400000Y-120693750D01*
X150400964Y-120688900D01*
X150405957Y-120645863D01*
X150412450Y-120631157D01*
X150416651Y-120610038D01*
X150431759Y-120587425D01*
X150439139Y-120570714D01*
X150450552Y-120559300D01*
X150464070Y-120539070D01*
X150484300Y-120525552D01*
X150495714Y-120514139D01*
X150512425Y-120506759D01*
X150535038Y-120491651D01*
X150556157Y-120487450D01*
X150570863Y-120480957D01*
X150613901Y-120475964D01*
X150618750Y-120475000D01*
X151056250Y-120475000D01*
X151061100Y-120475964D01*
G37*
G36*
X157154310Y-117809864D02*
G01*
X157170388Y-117811271D01*
X157186782Y-117819329D01*
X157212892Y-117826940D01*
X157229684Y-117840417D01*
X157244109Y-117847508D01*
X157275588Y-117877259D01*
X157279456Y-117880364D01*
X157560676Y-118215508D01*
X157563056Y-118219846D01*
X157586893Y-118256021D01*
X157591369Y-118271454D01*
X157601730Y-118290338D01*
X157604691Y-118317378D01*
X157609779Y-118334917D01*
X157608372Y-118350991D01*
X157611022Y-118375183D01*
X157604211Y-118398549D01*
X157602805Y-118414622D01*
X157594750Y-118431007D01*
X157587138Y-118457126D01*
X157573655Y-118473924D01*
X157566568Y-118488343D01*
X157536823Y-118519814D01*
X157533713Y-118523690D01*
X157141116Y-118853119D01*
X157136767Y-118855504D01*
X157100602Y-118879336D01*
X157085168Y-118883812D01*
X157066286Y-118894172D01*
X157039243Y-118897133D01*
X157021706Y-118902221D01*
X157005635Y-118900815D01*
X156981441Y-118903465D01*
X156958075Y-118896654D01*
X156942001Y-118895248D01*
X156925610Y-118887191D01*
X156899498Y-118879580D01*
X156882703Y-118866100D01*
X156868280Y-118859011D01*
X156836802Y-118829260D01*
X156832934Y-118826156D01*
X156551714Y-118491012D01*
X156549335Y-118486676D01*
X156525496Y-118450498D01*
X156521018Y-118435062D01*
X156510660Y-118416182D01*
X156507699Y-118389145D01*
X156502610Y-118371602D01*
X156504016Y-118355523D01*
X156501368Y-118331337D01*
X156508177Y-118307975D01*
X156509584Y-118291897D01*
X156517641Y-118275504D01*
X156525252Y-118249394D01*
X156538730Y-118232600D01*
X156545821Y-118218176D01*
X156575577Y-118186691D01*
X156578677Y-118182830D01*
X156971274Y-117853401D01*
X156975607Y-117851023D01*
X157011787Y-117827183D01*
X157027226Y-117822704D01*
X157046104Y-117812348D01*
X157073139Y-117809386D01*
X157090683Y-117804298D01*
X157106759Y-117805704D01*
X157130949Y-117803055D01*
X157154310Y-117809864D01*
G37*
G36*
X142784024Y-117704754D02*
G01*
X142811218Y-117705348D01*
X142830929Y-117714021D01*
X142846694Y-117717136D01*
X142884800Y-117737726D01*
X142889341Y-117739724D01*
X143309156Y-118033682D01*
X143312578Y-118037256D01*
X143344966Y-118066028D01*
X143353286Y-118079780D01*
X143368179Y-118095337D01*
X143378038Y-118120689D01*
X143387492Y-118136315D01*
X143390294Y-118152206D01*
X143399114Y-118174886D01*
X143398583Y-118199210D01*
X143401386Y-118215105D01*
X143397845Y-118233025D01*
X143397252Y-118260218D01*
X143388577Y-118279930D01*
X143385463Y-118295696D01*
X143364872Y-118333804D01*
X143362876Y-118338341D01*
X143111936Y-118696720D01*
X143108356Y-118700146D01*
X143079587Y-118732531D01*
X143065838Y-118740849D01*
X143050281Y-118755743D01*
X143024927Y-118765602D01*
X143009305Y-118775055D01*
X142993418Y-118777856D01*
X142970733Y-118786678D01*
X142946395Y-118786146D01*
X142930509Y-118788948D01*
X142912598Y-118785409D01*
X142885400Y-118784816D01*
X142865685Y-118776141D01*
X142849923Y-118773027D01*
X142811821Y-118752439D01*
X142807277Y-118750440D01*
X142387462Y-118456482D01*
X142384039Y-118452906D01*
X142351651Y-118424135D01*
X142343329Y-118410382D01*
X142328439Y-118394827D01*
X142318580Y-118369476D01*
X142309125Y-118353848D01*
X142306322Y-118337953D01*
X142297504Y-118315278D01*
X142298034Y-118290957D01*
X142295231Y-118275058D01*
X142298772Y-118257131D01*
X142299366Y-118229946D01*
X142308038Y-118210237D01*
X142311154Y-118194467D01*
X142331752Y-118156344D01*
X142333742Y-118151823D01*
X142335727Y-118148986D01*
X142335730Y-118148983D01*
X142582688Y-117796289D01*
X142582697Y-117796278D01*
X142584682Y-117793444D01*
X142588248Y-117790029D01*
X142617030Y-117757632D01*
X142630783Y-117749310D01*
X142646337Y-117734421D01*
X142671682Y-117724564D01*
X142687312Y-117715108D01*
X142703205Y-117712305D01*
X142725885Y-117703486D01*
X142750216Y-117704016D01*
X142766108Y-117701215D01*
X142784024Y-117704754D01*
G37*
G36*
X147836546Y-116768924D02*
G01*
X147948523Y-116833574D01*
X148039951Y-116925002D01*
X148104601Y-117036979D01*
X148138066Y-117161872D01*
X148138066Y-117291172D01*
X148104601Y-117416065D01*
X148039951Y-117528042D01*
X147948523Y-117619470D01*
X147836546Y-117684120D01*
X147711653Y-117717585D01*
X147582353Y-117717585D01*
X147457460Y-117684120D01*
X147345483Y-117619470D01*
X147254055Y-117528042D01*
X147189405Y-117416065D01*
X147155940Y-117291172D01*
X147155940Y-117161872D01*
X147189405Y-117036979D01*
X147254055Y-116925002D01*
X147345483Y-116833574D01*
X147457460Y-116768924D01*
X147582353Y-116735459D01*
X147711653Y-116735459D01*
X147836546Y-116768924D01*
G37*
G36*
X156141920Y-116603344D02*
G01*
X156157998Y-116604751D01*
X156174392Y-116612809D01*
X156200502Y-116620420D01*
X156217294Y-116633897D01*
X156231719Y-116640988D01*
X156263198Y-116670739D01*
X156267066Y-116673844D01*
X156548286Y-117008988D01*
X156550666Y-117013326D01*
X156574503Y-117049501D01*
X156578979Y-117064934D01*
X156589340Y-117083818D01*
X156592301Y-117110858D01*
X156597389Y-117128397D01*
X156595982Y-117144471D01*
X156598632Y-117168663D01*
X156591821Y-117192029D01*
X156590415Y-117208102D01*
X156582360Y-117224487D01*
X156574748Y-117250606D01*
X156561265Y-117267404D01*
X156554178Y-117281823D01*
X156524433Y-117313294D01*
X156521323Y-117317170D01*
X156128726Y-117646599D01*
X156124377Y-117648984D01*
X156088212Y-117672816D01*
X156072778Y-117677292D01*
X156053896Y-117687652D01*
X156026853Y-117690613D01*
X156009316Y-117695701D01*
X155993245Y-117694295D01*
X155969051Y-117696945D01*
X155945685Y-117690134D01*
X155929611Y-117688728D01*
X155913220Y-117680671D01*
X155887108Y-117673060D01*
X155870313Y-117659580D01*
X155855890Y-117652491D01*
X155824412Y-117622740D01*
X155820544Y-117619636D01*
X155539324Y-117284492D01*
X155536945Y-117280156D01*
X155513106Y-117243978D01*
X155508628Y-117228542D01*
X155498270Y-117209662D01*
X155495309Y-117182625D01*
X155490220Y-117165082D01*
X155491626Y-117149003D01*
X155488978Y-117124817D01*
X155495787Y-117101455D01*
X155497194Y-117085377D01*
X155505251Y-117068984D01*
X155512862Y-117042874D01*
X155526340Y-117026080D01*
X155533431Y-117011656D01*
X155563187Y-116980171D01*
X155566287Y-116976310D01*
X155958884Y-116646881D01*
X155963217Y-116644503D01*
X155999397Y-116620663D01*
X156014836Y-116616184D01*
X156033714Y-116605828D01*
X156060749Y-116602866D01*
X156078293Y-116597778D01*
X156094369Y-116599184D01*
X156118559Y-116596535D01*
X156141920Y-116603344D01*
G37*
G36*
X143687406Y-116414590D02*
G01*
X143714600Y-116415184D01*
X143734311Y-116423857D01*
X143750076Y-116426972D01*
X143788182Y-116447562D01*
X143792723Y-116449560D01*
X144212538Y-116743518D01*
X144215960Y-116747092D01*
X144248348Y-116775864D01*
X144256668Y-116789616D01*
X144271561Y-116805173D01*
X144281420Y-116830525D01*
X144290874Y-116846151D01*
X144293676Y-116862042D01*
X144302496Y-116884722D01*
X144301965Y-116909046D01*
X144304768Y-116924941D01*
X144301227Y-116942861D01*
X144300634Y-116970054D01*
X144291959Y-116989766D01*
X144288845Y-117005532D01*
X144268254Y-117043640D01*
X144266258Y-117048177D01*
X144015318Y-117406556D01*
X144011738Y-117409982D01*
X143982969Y-117442367D01*
X143969220Y-117450685D01*
X143953663Y-117465579D01*
X143928309Y-117475438D01*
X143912687Y-117484891D01*
X143896800Y-117487692D01*
X143874115Y-117496514D01*
X143849777Y-117495982D01*
X143833891Y-117498784D01*
X143815980Y-117495245D01*
X143788782Y-117494652D01*
X143769067Y-117485977D01*
X143753305Y-117482863D01*
X143715203Y-117462275D01*
X143710659Y-117460276D01*
X143290844Y-117166318D01*
X143287421Y-117162742D01*
X143255033Y-117133971D01*
X143246711Y-117120218D01*
X143231821Y-117104663D01*
X143221962Y-117079312D01*
X143212507Y-117063684D01*
X143209704Y-117047789D01*
X143200886Y-117025114D01*
X143201416Y-117000793D01*
X143198613Y-116984894D01*
X143202154Y-116966967D01*
X143202748Y-116939782D01*
X143211420Y-116920073D01*
X143214536Y-116904303D01*
X143235134Y-116866180D01*
X143237124Y-116861659D01*
X143239109Y-116858822D01*
X143239112Y-116858819D01*
X143486070Y-116506125D01*
X143486079Y-116506114D01*
X143488064Y-116503280D01*
X143491630Y-116499865D01*
X143520412Y-116467468D01*
X143534165Y-116459146D01*
X143549719Y-116444257D01*
X143575064Y-116434400D01*
X143590694Y-116424944D01*
X143606587Y-116422141D01*
X143629267Y-116413322D01*
X143653598Y-116413852D01*
X143669490Y-116411051D01*
X143687406Y-116414590D01*
G37*
G36*
X168301786Y-116367576D02*
G01*
X168323274Y-116366168D01*
X168349026Y-116374909D01*
X168367078Y-116377712D01*
X168381057Y-116385783D01*
X168404097Y-116393604D01*
X168422387Y-116409644D01*
X168436368Y-116417716D01*
X168447822Y-116431950D01*
X168468268Y-116449881D01*
X168477792Y-116469195D01*
X168487868Y-116481716D01*
X168503823Y-116521981D01*
X168506018Y-116526431D01*
X168619251Y-116949023D01*
X168619574Y-116953958D01*
X168625890Y-116996821D01*
X168623425Y-117012699D01*
X168624834Y-117034192D01*
X168616090Y-117059951D01*
X168613289Y-117077996D01*
X168605221Y-117091968D01*
X168597399Y-117115015D01*
X168581352Y-117133312D01*
X168573285Y-117147286D01*
X168559056Y-117158735D01*
X168541122Y-117179186D01*
X168521804Y-117188712D01*
X168509286Y-117198786D01*
X168469029Y-117214737D01*
X168464572Y-117216936D01*
X167969535Y-117349581D01*
X167964597Y-117349904D01*
X167921736Y-117356220D01*
X167905857Y-117353755D01*
X167884366Y-117355164D01*
X167858609Y-117346420D01*
X167840561Y-117343619D01*
X167826583Y-117335549D01*
X167803543Y-117327728D01*
X167785251Y-117311686D01*
X167771271Y-117303615D01*
X167759817Y-117289381D01*
X167739372Y-117271451D01*
X167729847Y-117252137D01*
X167719771Y-117239615D01*
X167703813Y-117199344D01*
X167701622Y-117194901D01*
X167629303Y-116925002D01*
X167589285Y-116775656D01*
X167589283Y-116775649D01*
X167588389Y-116772309D01*
X167588066Y-116767383D01*
X167581749Y-116724510D01*
X167584214Y-116708627D01*
X167582806Y-116687140D01*
X167591547Y-116661386D01*
X167594350Y-116643335D01*
X167602420Y-116629356D01*
X167610241Y-116606317D01*
X167626282Y-116588025D01*
X167634354Y-116574045D01*
X167648588Y-116562590D01*
X167666518Y-116542146D01*
X167685829Y-116532622D01*
X167698353Y-116522545D01*
X167738624Y-116506587D01*
X167743068Y-116504396D01*
X168021534Y-116429781D01*
X168234757Y-116372647D01*
X168234766Y-116372645D01*
X168238105Y-116371751D01*
X168243028Y-116371428D01*
X168285903Y-116365111D01*
X168301786Y-116367576D01*
G37*
G36*
X132156948Y-116271426D02*
G01*
X132161895Y-116271751D01*
X132614969Y-116393152D01*
X132640033Y-116399868D01*
X132656932Y-116404396D01*
X132661371Y-116406585D01*
X132701647Y-116422546D01*
X132714167Y-116432621D01*
X132733482Y-116442146D01*
X132751414Y-116462593D01*
X132765645Y-116474045D01*
X132773714Y-116488021D01*
X132789759Y-116506317D01*
X132797581Y-116529360D01*
X132805649Y-116543335D01*
X132808450Y-116561381D01*
X132817194Y-116587140D01*
X132815785Y-116608631D01*
X132818250Y-116624509D01*
X132811935Y-116667359D01*
X132811611Y-116672309D01*
X132698378Y-117094901D01*
X132696183Y-117099350D01*
X132680227Y-117139616D01*
X132670154Y-117152133D01*
X132660628Y-117171451D01*
X132640179Y-117189384D01*
X132628728Y-117203615D01*
X132614750Y-117211684D01*
X132596457Y-117227728D01*
X132573413Y-117235550D01*
X132559438Y-117243619D01*
X132541391Y-117246420D01*
X132515634Y-117255164D01*
X132494142Y-117253755D01*
X132478265Y-117256220D01*
X132435421Y-117249905D01*
X132430465Y-117249581D01*
X131935428Y-117116936D01*
X131930982Y-117114743D01*
X131890712Y-117098785D01*
X131878193Y-117088711D01*
X131858878Y-117079186D01*
X131840945Y-117058737D01*
X131826714Y-117047286D01*
X131818644Y-117033308D01*
X131802601Y-117015015D01*
X131794779Y-116991972D01*
X131786710Y-116977996D01*
X131783907Y-116959945D01*
X131775166Y-116934192D01*
X131776574Y-116912704D01*
X131774109Y-116896822D01*
X131780425Y-116853958D01*
X131780749Y-116849023D01*
X131846201Y-116604751D01*
X131893084Y-116429781D01*
X131893085Y-116429778D01*
X131893982Y-116426431D01*
X131896169Y-116421995D01*
X131912132Y-116381715D01*
X131922208Y-116369192D01*
X131931732Y-116349881D01*
X131952174Y-116331953D01*
X131963631Y-116317716D01*
X131977614Y-116309642D01*
X131995903Y-116293604D01*
X132018939Y-116285784D01*
X132032921Y-116277712D01*
X132050975Y-116274909D01*
X132076726Y-116266168D01*
X132098212Y-116267576D01*
X132114094Y-116265111D01*
X132156948Y-116271426D01*
G37*
G36*
X152916546Y-115752924D02*
G01*
X153028523Y-115817574D01*
X153119951Y-115909002D01*
X153184601Y-116020979D01*
X153218066Y-116145872D01*
X153218066Y-116275172D01*
X153184601Y-116400065D01*
X153119951Y-116512042D01*
X153028523Y-116603470D01*
X152916546Y-116668120D01*
X152791653Y-116701585D01*
X152662353Y-116701585D01*
X152537460Y-116668120D01*
X152425483Y-116603470D01*
X152334055Y-116512042D01*
X152269405Y-116400065D01*
X152235940Y-116275172D01*
X152235940Y-116145872D01*
X152269405Y-116020979D01*
X152334055Y-115909002D01*
X152425483Y-115817574D01*
X152537460Y-115752924D01*
X152662353Y-115719459D01*
X152791653Y-115719459D01*
X152916546Y-115752924D01*
G37*
G36*
X163904310Y-114959864D02*
G01*
X163920388Y-114961271D01*
X163936782Y-114969329D01*
X163962892Y-114976940D01*
X163979684Y-114990417D01*
X163994109Y-114997508D01*
X164025588Y-115027259D01*
X164029456Y-115030364D01*
X164310676Y-115365508D01*
X164313056Y-115369846D01*
X164336893Y-115406021D01*
X164341369Y-115421454D01*
X164351730Y-115440338D01*
X164354691Y-115467378D01*
X164359779Y-115484917D01*
X164358372Y-115500991D01*
X164361022Y-115525183D01*
X164354211Y-115548549D01*
X164352805Y-115564622D01*
X164344750Y-115581007D01*
X164337138Y-115607126D01*
X164323655Y-115623924D01*
X164316568Y-115638343D01*
X164286823Y-115669814D01*
X164283713Y-115673690D01*
X163891116Y-116003119D01*
X163886767Y-116005504D01*
X163850602Y-116029336D01*
X163835168Y-116033812D01*
X163816286Y-116044172D01*
X163789243Y-116047133D01*
X163771706Y-116052221D01*
X163755635Y-116050815D01*
X163731441Y-116053465D01*
X163708075Y-116046654D01*
X163692001Y-116045248D01*
X163675610Y-116037191D01*
X163649498Y-116029580D01*
X163632703Y-116016100D01*
X163618280Y-116009011D01*
X163586802Y-115979260D01*
X163582934Y-115976156D01*
X163301714Y-115641012D01*
X163299335Y-115636676D01*
X163275496Y-115600498D01*
X163271018Y-115585062D01*
X163260660Y-115566182D01*
X163257699Y-115539145D01*
X163252610Y-115521602D01*
X163254016Y-115505523D01*
X163251368Y-115481337D01*
X163258177Y-115457975D01*
X163259584Y-115441897D01*
X163267641Y-115425504D01*
X163275252Y-115399394D01*
X163288730Y-115382600D01*
X163295821Y-115368176D01*
X163325577Y-115336691D01*
X163328677Y-115332830D01*
X163721274Y-115003401D01*
X163725607Y-115001023D01*
X163761787Y-114977183D01*
X163777226Y-114972704D01*
X163796104Y-114962348D01*
X163823139Y-114959386D01*
X163840683Y-114954298D01*
X163856759Y-114955704D01*
X163880949Y-114953055D01*
X163904310Y-114959864D01*
G37*
G36*
X136393240Y-114805704D02*
G01*
X136409316Y-114804298D01*
X136426859Y-114809386D01*
X136453896Y-114812348D01*
X136472774Y-114822705D01*
X136488212Y-114827183D01*
X136524373Y-114851013D01*
X136528726Y-114853401D01*
X136742788Y-115033021D01*
X136918662Y-115180596D01*
X136918667Y-115180601D01*
X136921323Y-115182830D01*
X136924419Y-115186688D01*
X136954178Y-115218176D01*
X136961266Y-115232596D01*
X136974748Y-115249394D01*
X136982359Y-115275509D01*
X136990415Y-115291897D01*
X136991821Y-115307970D01*
X136998632Y-115331337D01*
X136995982Y-115355528D01*
X136997389Y-115371602D01*
X136992301Y-115389140D01*
X136989340Y-115416182D01*
X136978979Y-115435066D01*
X136974503Y-115450498D01*
X136950674Y-115486657D01*
X136948286Y-115491012D01*
X136667066Y-115826156D01*
X136663197Y-115829261D01*
X136631719Y-115859011D01*
X136617298Y-115866099D01*
X136600502Y-115879580D01*
X136574387Y-115887192D01*
X136557998Y-115895248D01*
X136541925Y-115896654D01*
X136518559Y-115903465D01*
X136494364Y-115900814D01*
X136478293Y-115902221D01*
X136460754Y-115897133D01*
X136433714Y-115894172D01*
X136414832Y-115883813D01*
X136399397Y-115879336D01*
X136363239Y-115855508D01*
X136358884Y-115853119D01*
X136057823Y-115600498D01*
X135968947Y-115525923D01*
X135968942Y-115525918D01*
X135966287Y-115523690D01*
X135963190Y-115519831D01*
X135933431Y-115488343D01*
X135926342Y-115473921D01*
X135912862Y-115457126D01*
X135905250Y-115431012D01*
X135897194Y-115414622D01*
X135895787Y-115398544D01*
X135888978Y-115375183D01*
X135891626Y-115350996D01*
X135890220Y-115334917D01*
X135895309Y-115317372D01*
X135898270Y-115290338D01*
X135908627Y-115271458D01*
X135913106Y-115256021D01*
X135936943Y-115219847D01*
X135939324Y-115215508D01*
X136199789Y-114905099D01*
X136218315Y-114883020D01*
X136218316Y-114883018D01*
X136220544Y-114880364D01*
X136224399Y-114877269D01*
X136255890Y-114847508D01*
X136270316Y-114840416D01*
X136287108Y-114826940D01*
X136313215Y-114819330D01*
X136329611Y-114811271D01*
X136345690Y-114809864D01*
X136369051Y-114803055D01*
X136393240Y-114805704D01*
G37*
G36*
X167894146Y-114846244D02*
G01*
X167915634Y-114844836D01*
X167941386Y-114853577D01*
X167959438Y-114856380D01*
X167973417Y-114864451D01*
X167996457Y-114872272D01*
X168014747Y-114888312D01*
X168028728Y-114896384D01*
X168040182Y-114910618D01*
X168060628Y-114928549D01*
X168070152Y-114947863D01*
X168080228Y-114960384D01*
X168096183Y-115000649D01*
X168098378Y-115005099D01*
X168211611Y-115427691D01*
X168211934Y-115432626D01*
X168218250Y-115475489D01*
X168215785Y-115491367D01*
X168217194Y-115512860D01*
X168208450Y-115538619D01*
X168205649Y-115556664D01*
X168197581Y-115570636D01*
X168189759Y-115593683D01*
X168173712Y-115611980D01*
X168165645Y-115625954D01*
X168151416Y-115637403D01*
X168133482Y-115657854D01*
X168114164Y-115667380D01*
X168101646Y-115677454D01*
X168061389Y-115693405D01*
X168056932Y-115695604D01*
X167561895Y-115828249D01*
X167556957Y-115828572D01*
X167514096Y-115834888D01*
X167498217Y-115832423D01*
X167476726Y-115833832D01*
X167450969Y-115825088D01*
X167432921Y-115822287D01*
X167418943Y-115814217D01*
X167395903Y-115806396D01*
X167377611Y-115790354D01*
X167363631Y-115782283D01*
X167352177Y-115768049D01*
X167331732Y-115750119D01*
X167322207Y-115730805D01*
X167312131Y-115718283D01*
X167296173Y-115678012D01*
X167293982Y-115673569D01*
X167210726Y-115362853D01*
X167181645Y-115254324D01*
X167181643Y-115254317D01*
X167180749Y-115250977D01*
X167180426Y-115246051D01*
X167174109Y-115203178D01*
X167176574Y-115187295D01*
X167175166Y-115165808D01*
X167183907Y-115140054D01*
X167186710Y-115122003D01*
X167194780Y-115108024D01*
X167202601Y-115084985D01*
X167218642Y-115066693D01*
X167226714Y-115052713D01*
X167240948Y-115041258D01*
X167258878Y-115020814D01*
X167278189Y-115011290D01*
X167290713Y-115001213D01*
X167330984Y-114985255D01*
X167335428Y-114983064D01*
X167613894Y-114908449D01*
X167827117Y-114851315D01*
X167827126Y-114851313D01*
X167830465Y-114850419D01*
X167835388Y-114850096D01*
X167878263Y-114843779D01*
X167894146Y-114846244D01*
G37*
G36*
X132564588Y-114750094D02*
G01*
X132569535Y-114750419D01*
X133022609Y-114871820D01*
X133054495Y-114880364D01*
X133064572Y-114883064D01*
X133069011Y-114885253D01*
X133109287Y-114901214D01*
X133121807Y-114911289D01*
X133141122Y-114920814D01*
X133159054Y-114941261D01*
X133173285Y-114952713D01*
X133181354Y-114966689D01*
X133197399Y-114984985D01*
X133205221Y-115008028D01*
X133213289Y-115022003D01*
X133216090Y-115040049D01*
X133224834Y-115065808D01*
X133223425Y-115087299D01*
X133225890Y-115103177D01*
X133219575Y-115146027D01*
X133219251Y-115150977D01*
X133106018Y-115573569D01*
X133103823Y-115578018D01*
X133087867Y-115618284D01*
X133077794Y-115630801D01*
X133068268Y-115650119D01*
X133047819Y-115668052D01*
X133036368Y-115682283D01*
X133022390Y-115690352D01*
X133004097Y-115706396D01*
X132981053Y-115714218D01*
X132967078Y-115722287D01*
X132949031Y-115725088D01*
X132923274Y-115733832D01*
X132901782Y-115732423D01*
X132885905Y-115734888D01*
X132843061Y-115728573D01*
X132838105Y-115728249D01*
X132343068Y-115595604D01*
X132338622Y-115593411D01*
X132298352Y-115577453D01*
X132285833Y-115567379D01*
X132266518Y-115557854D01*
X132248585Y-115537405D01*
X132234354Y-115525954D01*
X132226284Y-115511976D01*
X132210241Y-115493683D01*
X132202419Y-115470640D01*
X132194350Y-115456664D01*
X132191547Y-115438613D01*
X132182806Y-115412860D01*
X132184214Y-115391372D01*
X132181749Y-115375490D01*
X132188065Y-115332626D01*
X132188389Y-115327691D01*
X132268057Y-115030364D01*
X132300724Y-114908449D01*
X132300725Y-114908446D01*
X132301622Y-114905099D01*
X132303809Y-114900663D01*
X132319772Y-114860383D01*
X132329848Y-114847860D01*
X132339372Y-114828549D01*
X132359814Y-114810621D01*
X132371271Y-114796384D01*
X132385254Y-114788310D01*
X132403543Y-114772272D01*
X132426579Y-114764452D01*
X132440561Y-114756380D01*
X132458615Y-114753577D01*
X132484366Y-114744836D01*
X132505852Y-114746244D01*
X132521734Y-114743779D01*
X132564588Y-114750094D01*
G37*
G36*
X147836546Y-114736924D02*
G01*
X147948523Y-114801574D01*
X148039951Y-114893002D01*
X148104601Y-115004979D01*
X148138066Y-115129872D01*
X148138066Y-115259172D01*
X148104601Y-115384065D01*
X148039951Y-115496042D01*
X147948523Y-115587470D01*
X147836546Y-115652120D01*
X147711653Y-115685585D01*
X147582353Y-115685585D01*
X147457460Y-115652120D01*
X147345483Y-115587470D01*
X147254055Y-115496042D01*
X147189405Y-115384065D01*
X147155940Y-115259172D01*
X147155940Y-115129872D01*
X147189405Y-115004979D01*
X147254055Y-114893002D01*
X147345483Y-114801574D01*
X147457460Y-114736924D01*
X147582353Y-114703459D01*
X147711653Y-114703459D01*
X147836546Y-114736924D01*
G37*
G36*
X162891920Y-113753344D02*
G01*
X162907998Y-113754751D01*
X162924392Y-113762809D01*
X162950502Y-113770420D01*
X162967294Y-113783897D01*
X162981719Y-113790988D01*
X163013198Y-113820739D01*
X163017066Y-113823844D01*
X163298286Y-114158988D01*
X163300666Y-114163326D01*
X163324503Y-114199501D01*
X163328979Y-114214934D01*
X163339340Y-114233818D01*
X163342301Y-114260858D01*
X163347389Y-114278397D01*
X163345982Y-114294471D01*
X163348632Y-114318663D01*
X163341821Y-114342029D01*
X163340415Y-114358102D01*
X163332360Y-114374487D01*
X163324748Y-114400606D01*
X163311265Y-114417404D01*
X163304178Y-114431823D01*
X163274433Y-114463294D01*
X163271323Y-114467170D01*
X162878726Y-114796599D01*
X162874377Y-114798984D01*
X162838212Y-114822816D01*
X162822778Y-114827292D01*
X162803896Y-114837652D01*
X162776853Y-114840613D01*
X162759316Y-114845701D01*
X162743245Y-114844295D01*
X162719051Y-114846945D01*
X162695685Y-114840134D01*
X162679611Y-114838728D01*
X162663220Y-114830671D01*
X162637108Y-114823060D01*
X162620313Y-114809580D01*
X162605890Y-114802491D01*
X162574412Y-114772740D01*
X162570544Y-114769636D01*
X162289324Y-114434492D01*
X162286945Y-114430156D01*
X162263106Y-114393978D01*
X162258628Y-114378542D01*
X162248270Y-114359662D01*
X162245309Y-114332625D01*
X162240220Y-114315082D01*
X162241626Y-114299003D01*
X162238978Y-114274817D01*
X162245787Y-114251455D01*
X162247194Y-114235377D01*
X162255251Y-114218984D01*
X162262862Y-114192874D01*
X162276340Y-114176080D01*
X162283431Y-114161656D01*
X162313187Y-114130171D01*
X162316287Y-114126310D01*
X162708884Y-113796881D01*
X162713217Y-113794503D01*
X162749397Y-113770663D01*
X162764836Y-113766184D01*
X162783714Y-113755828D01*
X162810749Y-113752866D01*
X162828293Y-113747778D01*
X162844369Y-113749184D01*
X162868559Y-113746535D01*
X162891920Y-113753344D01*
G37*
G36*
X137405630Y-113599184D02*
G01*
X137421706Y-113597778D01*
X137439249Y-113602866D01*
X137466286Y-113605828D01*
X137485164Y-113616185D01*
X137500602Y-113620663D01*
X137536763Y-113644493D01*
X137541116Y-113646881D01*
X137755178Y-113826501D01*
X137931052Y-113974076D01*
X137931057Y-113974081D01*
X137933713Y-113976310D01*
X137936809Y-113980168D01*
X137966568Y-114011656D01*
X137973656Y-114026076D01*
X137987138Y-114042874D01*
X137994749Y-114068989D01*
X138002805Y-114085377D01*
X138004211Y-114101450D01*
X138011022Y-114124817D01*
X138008372Y-114149008D01*
X138009779Y-114165082D01*
X138004691Y-114182620D01*
X138001730Y-114209662D01*
X137991369Y-114228546D01*
X137986893Y-114243978D01*
X137963064Y-114280137D01*
X137960676Y-114284492D01*
X137679456Y-114619636D01*
X137675587Y-114622741D01*
X137644109Y-114652491D01*
X137629688Y-114659579D01*
X137612892Y-114673060D01*
X137586777Y-114680672D01*
X137570388Y-114688728D01*
X137554315Y-114690134D01*
X137530949Y-114696945D01*
X137506754Y-114694294D01*
X137490683Y-114695701D01*
X137473144Y-114690613D01*
X137446104Y-114687652D01*
X137427222Y-114677293D01*
X137411787Y-114672816D01*
X137375629Y-114648988D01*
X137371274Y-114646599D01*
X137070213Y-114393978D01*
X136981337Y-114319403D01*
X136981332Y-114319398D01*
X136978677Y-114317170D01*
X136975580Y-114313311D01*
X136945821Y-114281823D01*
X136938732Y-114267401D01*
X136925252Y-114250606D01*
X136917640Y-114224492D01*
X136909584Y-114208102D01*
X136908177Y-114192024D01*
X136901368Y-114168663D01*
X136904016Y-114144476D01*
X136902610Y-114128397D01*
X136907699Y-114110852D01*
X136910660Y-114083818D01*
X136921017Y-114064938D01*
X136925496Y-114049501D01*
X136949333Y-114013327D01*
X136951714Y-114008988D01*
X137232934Y-113673844D01*
X137236789Y-113670749D01*
X137268280Y-113640988D01*
X137282706Y-113633896D01*
X137299498Y-113620420D01*
X137325605Y-113612810D01*
X137342001Y-113604751D01*
X137358080Y-113603344D01*
X137381441Y-113596535D01*
X137405630Y-113599184D01*
G37*
G36*
X156802114Y-108045469D02*
G01*
X156919219Y-108100118D01*
X158291298Y-108740421D01*
X158302114Y-108745469D01*
X158304699Y-108748291D01*
X158305000Y-108750000D01*
X158305000Y-110750000D01*
X158303536Y-110753536D01*
X158302114Y-110754531D01*
X156802114Y-111454531D01*
X156800000Y-111455000D01*
X156793424Y-111455000D01*
X144808883Y-111455000D01*
X144800000Y-111455000D01*
X144797226Y-111454160D01*
X143597226Y-110654160D01*
X143595097Y-110650981D01*
X143595000Y-110650000D01*
X143595000Y-108850000D01*
X143596464Y-108846464D01*
X143597226Y-108845840D01*
X143603360Y-108841750D01*
X143603361Y-108841749D01*
X144789834Y-108050767D01*
X144789836Y-108050766D01*
X144797226Y-108045840D01*
X144800000Y-108045000D01*
X156800000Y-108045000D01*
X156802114Y-108045469D01*
G37*
G36*
X166606948Y-108971426D02*
G01*
X166611895Y-108971751D01*
X167106932Y-109104396D01*
X167111371Y-109106585D01*
X167151647Y-109122546D01*
X167164167Y-109132621D01*
X167183482Y-109142146D01*
X167201414Y-109162593D01*
X167215645Y-109174045D01*
X167223714Y-109188021D01*
X167239759Y-109206317D01*
X167247581Y-109229360D01*
X167255649Y-109243335D01*
X167258450Y-109261381D01*
X167267194Y-109287140D01*
X167265785Y-109308631D01*
X167268250Y-109324509D01*
X167261935Y-109367359D01*
X167261611Y-109372309D01*
X167148378Y-109794901D01*
X167146183Y-109799350D01*
X167130227Y-109839616D01*
X167120154Y-109852133D01*
X167110628Y-109871451D01*
X167090179Y-109889384D01*
X167078728Y-109903615D01*
X167064750Y-109911684D01*
X167046457Y-109927728D01*
X167023413Y-109935550D01*
X167009438Y-109943619D01*
X166991391Y-109946420D01*
X166965634Y-109955164D01*
X166944142Y-109953755D01*
X166928265Y-109956220D01*
X166885421Y-109949905D01*
X166880465Y-109949581D01*
X166385428Y-109816936D01*
X166380982Y-109814743D01*
X166340712Y-109798785D01*
X166328193Y-109788711D01*
X166308878Y-109779186D01*
X166290945Y-109758737D01*
X166276714Y-109747286D01*
X166268644Y-109733308D01*
X166252601Y-109715015D01*
X166244779Y-109691972D01*
X166236710Y-109677996D01*
X166233907Y-109659945D01*
X166225166Y-109634192D01*
X166226574Y-109612704D01*
X166224109Y-109596822D01*
X166230425Y-109553958D01*
X166230749Y-109549023D01*
X166278099Y-109372309D01*
X166343084Y-109129781D01*
X166343085Y-109129778D01*
X166343982Y-109126431D01*
X166346169Y-109121995D01*
X166362132Y-109081715D01*
X166372208Y-109069192D01*
X166381732Y-109049881D01*
X166402174Y-109031953D01*
X166413631Y-109017716D01*
X166427614Y-109009642D01*
X166445903Y-108993604D01*
X166468939Y-108985784D01*
X166482921Y-108977712D01*
X166500975Y-108974909D01*
X166526726Y-108966168D01*
X166548212Y-108967576D01*
X166564094Y-108965111D01*
X166606948Y-108971426D01*
G37*
G36*
X133451786Y-108717577D02*
G01*
X133473274Y-108716169D01*
X133499026Y-108724910D01*
X133517078Y-108727713D01*
X133531057Y-108735784D01*
X133554097Y-108743605D01*
X133572387Y-108759645D01*
X133586368Y-108767717D01*
X133597822Y-108781951D01*
X133618268Y-108799882D01*
X133627792Y-108819196D01*
X133637868Y-108831717D01*
X133653823Y-108871982D01*
X133656018Y-108876432D01*
X133769251Y-109299024D01*
X133769574Y-109303959D01*
X133775890Y-109346822D01*
X133773425Y-109362700D01*
X133774834Y-109384193D01*
X133766090Y-109409952D01*
X133763289Y-109427997D01*
X133755221Y-109441969D01*
X133747399Y-109465016D01*
X133731352Y-109483313D01*
X133723285Y-109497287D01*
X133709056Y-109508736D01*
X133691122Y-109529187D01*
X133671804Y-109538713D01*
X133659286Y-109548787D01*
X133619029Y-109564738D01*
X133614572Y-109566937D01*
X133119535Y-109699582D01*
X133114597Y-109699905D01*
X133071736Y-109706221D01*
X133055857Y-109703756D01*
X133034366Y-109705165D01*
X133008609Y-109696421D01*
X132990561Y-109693620D01*
X132976583Y-109685550D01*
X132953543Y-109677729D01*
X132935251Y-109661687D01*
X132921271Y-109653616D01*
X132909817Y-109639382D01*
X132889372Y-109621452D01*
X132879847Y-109602138D01*
X132869771Y-109589616D01*
X132853813Y-109549345D01*
X132851622Y-109544902D01*
X132770817Y-109243335D01*
X132739285Y-109125657D01*
X132739283Y-109125650D01*
X132738389Y-109122310D01*
X132738066Y-109117384D01*
X132731749Y-109074511D01*
X132734214Y-109058628D01*
X132732806Y-109037141D01*
X132741547Y-109011387D01*
X132744350Y-108993336D01*
X132752420Y-108979357D01*
X132760241Y-108956318D01*
X132776282Y-108938026D01*
X132784354Y-108924046D01*
X132798588Y-108912591D01*
X132816518Y-108892147D01*
X132835829Y-108882623D01*
X132848353Y-108872546D01*
X132888624Y-108856588D01*
X132893068Y-108854397D01*
X133160648Y-108782698D01*
X133384757Y-108722648D01*
X133384766Y-108722646D01*
X133388105Y-108721752D01*
X133393028Y-108721429D01*
X133435903Y-108715112D01*
X133451786Y-108717577D01*
G37*
G36*
X167014588Y-107450094D02*
G01*
X167019535Y-107450419D01*
X167514572Y-107583064D01*
X167519011Y-107585253D01*
X167559287Y-107601214D01*
X167571807Y-107611289D01*
X167591122Y-107620814D01*
X167609054Y-107641261D01*
X167623285Y-107652713D01*
X167631354Y-107666689D01*
X167647399Y-107684985D01*
X167655221Y-107708028D01*
X167663289Y-107722003D01*
X167666090Y-107740049D01*
X167674834Y-107765808D01*
X167673425Y-107787299D01*
X167675890Y-107803177D01*
X167669575Y-107846027D01*
X167669251Y-107850977D01*
X167556018Y-108273569D01*
X167553823Y-108278018D01*
X167537867Y-108318284D01*
X167527794Y-108330801D01*
X167518268Y-108350119D01*
X167497819Y-108368052D01*
X167486368Y-108382283D01*
X167472390Y-108390352D01*
X167454097Y-108406396D01*
X167431053Y-108414218D01*
X167417078Y-108422287D01*
X167399031Y-108425088D01*
X167373274Y-108433832D01*
X167351782Y-108432423D01*
X167335905Y-108434888D01*
X167293061Y-108428573D01*
X167288105Y-108428249D01*
X166793068Y-108295604D01*
X166788622Y-108293411D01*
X166748352Y-108277453D01*
X166735833Y-108267379D01*
X166716518Y-108257854D01*
X166698585Y-108237405D01*
X166684354Y-108225954D01*
X166676284Y-108211976D01*
X166660241Y-108193683D01*
X166652419Y-108170640D01*
X166644350Y-108156664D01*
X166641547Y-108138613D01*
X166632806Y-108112860D01*
X166634214Y-108091372D01*
X166631749Y-108075490D01*
X166638065Y-108032626D01*
X166638389Y-108027691D01*
X166675031Y-107890940D01*
X166750724Y-107608449D01*
X166750725Y-107608446D01*
X166751622Y-107605099D01*
X166753809Y-107600663D01*
X166769772Y-107560383D01*
X166779848Y-107547860D01*
X166789372Y-107528549D01*
X166809814Y-107510621D01*
X166821271Y-107496384D01*
X166835254Y-107488310D01*
X166853543Y-107472272D01*
X166876579Y-107464452D01*
X166890561Y-107456380D01*
X166908615Y-107453577D01*
X166934366Y-107444836D01*
X166955852Y-107446244D01*
X166971734Y-107443779D01*
X167014588Y-107450094D01*
G37*
G36*
X133044146Y-107196243D02*
G01*
X133065634Y-107194835D01*
X133091386Y-107203576D01*
X133109438Y-107206379D01*
X133123417Y-107214450D01*
X133146457Y-107222271D01*
X133164747Y-107238311D01*
X133178728Y-107246383D01*
X133190182Y-107260617D01*
X133210628Y-107278548D01*
X133220152Y-107297862D01*
X133230228Y-107310383D01*
X133246183Y-107350648D01*
X133248378Y-107355098D01*
X133361611Y-107777690D01*
X133361934Y-107782625D01*
X133368250Y-107825488D01*
X133365785Y-107841366D01*
X133367194Y-107862859D01*
X133358450Y-107888618D01*
X133355649Y-107906663D01*
X133347581Y-107920635D01*
X133339759Y-107943682D01*
X133323712Y-107961979D01*
X133315645Y-107975953D01*
X133301416Y-107987402D01*
X133283482Y-108007853D01*
X133264164Y-108017379D01*
X133251646Y-108027453D01*
X133211389Y-108043404D01*
X133206932Y-108045603D01*
X132711895Y-108178248D01*
X132706957Y-108178571D01*
X132664096Y-108184887D01*
X132648217Y-108182422D01*
X132626726Y-108183831D01*
X132600969Y-108175087D01*
X132582921Y-108172286D01*
X132568943Y-108164216D01*
X132545903Y-108156395D01*
X132527611Y-108140353D01*
X132513631Y-108132282D01*
X132502177Y-108118048D01*
X132481732Y-108100118D01*
X132472207Y-108080804D01*
X132462131Y-108068282D01*
X132446173Y-108028011D01*
X132443982Y-108023568D01*
X132353259Y-107684985D01*
X132331645Y-107604323D01*
X132331643Y-107604316D01*
X132330749Y-107600976D01*
X132330426Y-107596050D01*
X132324109Y-107553177D01*
X132326574Y-107537294D01*
X132325166Y-107515807D01*
X132333907Y-107490053D01*
X132336710Y-107472002D01*
X132344780Y-107458023D01*
X132352601Y-107434984D01*
X132368642Y-107416692D01*
X132376714Y-107402712D01*
X132390948Y-107391257D01*
X132408878Y-107370813D01*
X132428189Y-107361289D01*
X132440713Y-107351212D01*
X132480984Y-107335254D01*
X132485428Y-107333063D01*
X132753008Y-107261364D01*
X132977117Y-107201314D01*
X132977126Y-107201312D01*
X132980465Y-107200418D01*
X132985388Y-107200095D01*
X133028263Y-107193778D01*
X133044146Y-107196243D01*
G37*
G36*
X171392024Y-103258177D02*
G01*
X171408102Y-103259584D01*
X171424492Y-103267640D01*
X171450606Y-103275252D01*
X171467401Y-103288732D01*
X171481823Y-103295821D01*
X171513301Y-103325572D01*
X171517170Y-103328677D01*
X171846599Y-103721274D01*
X171848981Y-103725616D01*
X171872816Y-103761787D01*
X171877293Y-103777222D01*
X171887652Y-103796104D01*
X171890613Y-103823144D01*
X171895701Y-103840683D01*
X171894294Y-103856754D01*
X171896945Y-103880949D01*
X171890134Y-103904315D01*
X171888728Y-103920388D01*
X171880672Y-103936777D01*
X171873060Y-103962892D01*
X171859579Y-103979688D01*
X171852491Y-103994109D01*
X171822745Y-104025581D01*
X171819636Y-104029456D01*
X171484492Y-104310676D01*
X171480147Y-104313059D01*
X171443978Y-104336893D01*
X171428546Y-104341369D01*
X171409662Y-104351730D01*
X171382620Y-104354691D01*
X171365082Y-104359779D01*
X171349008Y-104358372D01*
X171324817Y-104361022D01*
X171301450Y-104354211D01*
X171285377Y-104352805D01*
X171268989Y-104344749D01*
X171242874Y-104337138D01*
X171226076Y-104323656D01*
X171211656Y-104316568D01*
X171180178Y-104286817D01*
X171176310Y-104283713D01*
X170846881Y-103891116D01*
X170844500Y-103886776D01*
X170820663Y-103850602D01*
X170816185Y-103835164D01*
X170805828Y-103816286D01*
X170802866Y-103789249D01*
X170797778Y-103771706D01*
X170799184Y-103755630D01*
X170796535Y-103731441D01*
X170803344Y-103708080D01*
X170804751Y-103692001D01*
X170812810Y-103675605D01*
X170820420Y-103649498D01*
X170833896Y-103632706D01*
X170840988Y-103618280D01*
X170870745Y-103586795D01*
X170873844Y-103582934D01*
X171041801Y-103442001D01*
X171206333Y-103303941D01*
X171206337Y-103303938D01*
X171208988Y-103301714D01*
X171213317Y-103299338D01*
X171249501Y-103275496D01*
X171264938Y-103271017D01*
X171283818Y-103260660D01*
X171310852Y-103257699D01*
X171328397Y-103252610D01*
X171344476Y-103254016D01*
X171368663Y-103251368D01*
X171392024Y-103258177D01*
G37*
G36*
X128805523Y-103004016D02*
G01*
X128821602Y-103002610D01*
X128839145Y-103007699D01*
X128866182Y-103010660D01*
X128885062Y-103021018D01*
X128900498Y-103025496D01*
X128936666Y-103049330D01*
X128941012Y-103051714D01*
X129276156Y-103332934D01*
X129279255Y-103336796D01*
X129309011Y-103368280D01*
X129316100Y-103382703D01*
X129329580Y-103399498D01*
X129337191Y-103425610D01*
X129345248Y-103442001D01*
X129346654Y-103458075D01*
X129353465Y-103481441D01*
X129350815Y-103505635D01*
X129352221Y-103521706D01*
X129347133Y-103539243D01*
X129344172Y-103566286D01*
X129333812Y-103585168D01*
X129329336Y-103600602D01*
X129305511Y-103636754D01*
X129303119Y-103641116D01*
X128973690Y-104033713D01*
X128969824Y-104036815D01*
X128938343Y-104066568D01*
X128923924Y-104073655D01*
X128907126Y-104087138D01*
X128881007Y-104094750D01*
X128864622Y-104102805D01*
X128848549Y-104104211D01*
X128825183Y-104111022D01*
X128800991Y-104108372D01*
X128784917Y-104109779D01*
X128767378Y-104104691D01*
X128740338Y-104101730D01*
X128721454Y-104091369D01*
X128706021Y-104086893D01*
X128669856Y-104063061D01*
X128665508Y-104060676D01*
X128330364Y-103779456D01*
X128327264Y-103775594D01*
X128297508Y-103744109D01*
X128290417Y-103729684D01*
X128276940Y-103712892D01*
X128269329Y-103686782D01*
X128261271Y-103670388D01*
X128259864Y-103654310D01*
X128253055Y-103630949D01*
X128255704Y-103606759D01*
X128254298Y-103590683D01*
X128259386Y-103573139D01*
X128262348Y-103546104D01*
X128272704Y-103527226D01*
X128277183Y-103511787D01*
X128301016Y-103475620D01*
X128303401Y-103471274D01*
X128445679Y-103301714D01*
X128630596Y-103081337D01*
X128630605Y-103081327D01*
X128632830Y-103078677D01*
X128636681Y-103075585D01*
X128668176Y-103045821D01*
X128682600Y-103038730D01*
X128699394Y-103025252D01*
X128725504Y-103017641D01*
X128741897Y-103009584D01*
X128757975Y-103008177D01*
X128781337Y-103001368D01*
X128805523Y-103004016D01*
G37*
G36*
X172598544Y-102245787D02*
G01*
X172614622Y-102247194D01*
X172631012Y-102255250D01*
X172657126Y-102262862D01*
X172673921Y-102276342D01*
X172688343Y-102283431D01*
X172719821Y-102313182D01*
X172723690Y-102316287D01*
X173053119Y-102708884D01*
X173055501Y-102713226D01*
X173079336Y-102749397D01*
X173083813Y-102764832D01*
X173094172Y-102783714D01*
X173097133Y-102810754D01*
X173102221Y-102828293D01*
X173100814Y-102844364D01*
X173103465Y-102868559D01*
X173096654Y-102891925D01*
X173095248Y-102907998D01*
X173087192Y-102924387D01*
X173079580Y-102950502D01*
X173066099Y-102967298D01*
X173059011Y-102981719D01*
X173029265Y-103013191D01*
X173026156Y-103017066D01*
X172691012Y-103298286D01*
X172686667Y-103300669D01*
X172650498Y-103324503D01*
X172635066Y-103328979D01*
X172616182Y-103339340D01*
X172589140Y-103342301D01*
X172571602Y-103347389D01*
X172555528Y-103345982D01*
X172531337Y-103348632D01*
X172507970Y-103341821D01*
X172491897Y-103340415D01*
X172475509Y-103332359D01*
X172449394Y-103324748D01*
X172432596Y-103311266D01*
X172418176Y-103304178D01*
X172386698Y-103274427D01*
X172382830Y-103271323D01*
X172053401Y-102878726D01*
X172051020Y-102874386D01*
X172027183Y-102838212D01*
X172022705Y-102822774D01*
X172012348Y-102803896D01*
X172009386Y-102776859D01*
X172004298Y-102759316D01*
X172005704Y-102743240D01*
X172003055Y-102719051D01*
X172009864Y-102695690D01*
X172011271Y-102679611D01*
X172019330Y-102663215D01*
X172026940Y-102637108D01*
X172040416Y-102620316D01*
X172047508Y-102605890D01*
X172077265Y-102574405D01*
X172080364Y-102570544D01*
X172248321Y-102429611D01*
X172412853Y-102291551D01*
X172412857Y-102291548D01*
X172415508Y-102289324D01*
X172419837Y-102286948D01*
X172456021Y-102263106D01*
X172471458Y-102258627D01*
X172490338Y-102248270D01*
X172517372Y-102245309D01*
X172534917Y-102240220D01*
X172550996Y-102241626D01*
X172575183Y-102238978D01*
X172598544Y-102245787D01*
G37*
G36*
X127599003Y-101991626D02*
G01*
X127615082Y-101990220D01*
X127632625Y-101995309D01*
X127659662Y-101998270D01*
X127678542Y-102008628D01*
X127693978Y-102013106D01*
X127730146Y-102036940D01*
X127734492Y-102039324D01*
X128069636Y-102320544D01*
X128072735Y-102324406D01*
X128102491Y-102355890D01*
X128109580Y-102370313D01*
X128123060Y-102387108D01*
X128130671Y-102413220D01*
X128138728Y-102429611D01*
X128140134Y-102445685D01*
X128146945Y-102469051D01*
X128144295Y-102493245D01*
X128145701Y-102509316D01*
X128140613Y-102526853D01*
X128137652Y-102553896D01*
X128127292Y-102572778D01*
X128122816Y-102588212D01*
X128098991Y-102624364D01*
X128096599Y-102628726D01*
X127767170Y-103021323D01*
X127763304Y-103024425D01*
X127731823Y-103054178D01*
X127717404Y-103061265D01*
X127700606Y-103074748D01*
X127674487Y-103082360D01*
X127658102Y-103090415D01*
X127642029Y-103091821D01*
X127618663Y-103098632D01*
X127594471Y-103095982D01*
X127578397Y-103097389D01*
X127560858Y-103092301D01*
X127533818Y-103089340D01*
X127514934Y-103078979D01*
X127499501Y-103074503D01*
X127463336Y-103050671D01*
X127458988Y-103048286D01*
X127123844Y-102767066D01*
X127120744Y-102763204D01*
X127090988Y-102731719D01*
X127083897Y-102717294D01*
X127070420Y-102700502D01*
X127062809Y-102674392D01*
X127054751Y-102657998D01*
X127053344Y-102641920D01*
X127046535Y-102618559D01*
X127049184Y-102594369D01*
X127047778Y-102578293D01*
X127052866Y-102560749D01*
X127055828Y-102533714D01*
X127066184Y-102514836D01*
X127070663Y-102499397D01*
X127094496Y-102463230D01*
X127096881Y-102458884D01*
X127256397Y-102268781D01*
X127424076Y-102068947D01*
X127424085Y-102068937D01*
X127426310Y-102066287D01*
X127430161Y-102063195D01*
X127461656Y-102033431D01*
X127476080Y-102026340D01*
X127492874Y-102012862D01*
X127518984Y-102005251D01*
X127535377Y-101997194D01*
X127551455Y-101995787D01*
X127574817Y-101988978D01*
X127599003Y-101991626D01*
G37*
G36*
X134804212Y-101244698D02*
G01*
X134820283Y-101245028D01*
X134861386Y-101258688D01*
X134866206Y-101259868D01*
X135262716Y-101444764D01*
X135266706Y-101447690D01*
X135303600Y-101470402D01*
X135314183Y-101482501D01*
X135331547Y-101495233D01*
X135345653Y-101518479D01*
X135357682Y-101532231D01*
X135363202Y-101547398D01*
X135375826Y-101568201D01*
X135379528Y-101592254D01*
X135385047Y-101607418D01*
X135384672Y-101625675D01*
X135388810Y-101652560D01*
X135383690Y-101673480D01*
X135383361Y-101689544D01*
X135369704Y-101730637D01*
X135368523Y-101735466D01*
X135151931Y-102199949D01*
X135148992Y-102203956D01*
X135126290Y-102240834D01*
X135114198Y-102251410D01*
X135101462Y-102268781D01*
X135078206Y-102282892D01*
X135064462Y-102294915D01*
X135049299Y-102300433D01*
X135028493Y-102313059D01*
X135004437Y-102316761D01*
X134989275Y-102322280D01*
X134971016Y-102321905D01*
X134944134Y-102326043D01*
X134923217Y-102320924D01*
X134907150Y-102320595D01*
X134866055Y-102306937D01*
X134861228Y-102305756D01*
X134464718Y-102120860D01*
X134460723Y-102117931D01*
X134423833Y-102095221D01*
X134413250Y-102083122D01*
X134395887Y-102070391D01*
X134381780Y-102047144D01*
X134369751Y-102033392D01*
X134364230Y-102018223D01*
X134351608Y-101997423D01*
X134347906Y-101973372D01*
X134342386Y-101958205D01*
X134342760Y-101939942D01*
X134338624Y-101913064D01*
X134343742Y-101892148D01*
X134344072Y-101876079D01*
X134357733Y-101834971D01*
X134358911Y-101830158D01*
X134575503Y-101365675D01*
X134578431Y-101361681D01*
X134601143Y-101324789D01*
X134613239Y-101314208D01*
X134625972Y-101296843D01*
X134649220Y-101282735D01*
X134662971Y-101270708D01*
X134678140Y-101265187D01*
X134698941Y-101252565D01*
X134722990Y-101248863D01*
X134738158Y-101243343D01*
X134756422Y-101243717D01*
X134783300Y-101239581D01*
X134804212Y-101244698D01*
G37*
G36*
X165313860Y-101241648D02*
G01*
X165332091Y-101242867D01*
X165346722Y-101249690D01*
X165370356Y-101255473D01*
X165389978Y-101269860D01*
X165404605Y-101276681D01*
X165417251Y-101289857D01*
X165439188Y-101305942D01*
X165450362Y-101324356D01*
X165461488Y-101335949D01*
X165480894Y-101374673D01*
X165483466Y-101378911D01*
X165658751Y-101860503D01*
X165659504Y-101865398D01*
X165669531Y-101907543D01*
X165668459Y-101923575D01*
X165671736Y-101944862D01*
X165665270Y-101971283D01*
X165664053Y-101989503D01*
X165657234Y-102004125D01*
X165651449Y-102027768D01*
X165637055Y-102047398D01*
X165630238Y-102062018D01*
X165617066Y-102074659D01*
X165600979Y-102096600D01*
X165582561Y-102107775D01*
X165570971Y-102118900D01*
X165532252Y-102138303D01*
X165528010Y-102140878D01*
X165116895Y-102290512D01*
X165111997Y-102291265D01*
X165069855Y-102301292D01*
X165053819Y-102300220D01*
X165032536Y-102303496D01*
X165006120Y-102297032D01*
X164987894Y-102295814D01*
X164973265Y-102288992D01*
X164949630Y-102283209D01*
X164930005Y-102268820D01*
X164915380Y-102262000D01*
X164902734Y-102248824D01*
X164880798Y-102232740D01*
X164869623Y-102214325D01*
X164858497Y-102202732D01*
X164839088Y-102164003D01*
X164836520Y-102159771D01*
X164667014Y-101694058D01*
X164662420Y-101681435D01*
X164662419Y-101681434D01*
X164661235Y-101678179D01*
X164660482Y-101673292D01*
X164650454Y-101631138D01*
X164651525Y-101615101D01*
X164648250Y-101593820D01*
X164654713Y-101567404D01*
X164655932Y-101549178D01*
X164662753Y-101534549D01*
X164668537Y-101510914D01*
X164682926Y-101491289D01*
X164689747Y-101476663D01*
X164702924Y-101464016D01*
X164719007Y-101442082D01*
X164737418Y-101430909D01*
X164749014Y-101419781D01*
X164787747Y-101400369D01*
X164791976Y-101397804D01*
X164974749Y-101331279D01*
X165199834Y-101249355D01*
X165199837Y-101249354D01*
X165203091Y-101248170D01*
X165207973Y-101247418D01*
X165250130Y-101237389D01*
X165266171Y-101238461D01*
X165287450Y-101235186D01*
X165313860Y-101241648D01*
G37*
G36*
X166793874Y-100702966D02*
G01*
X166812105Y-100704185D01*
X166826736Y-100711008D01*
X166850370Y-100716791D01*
X166869992Y-100731178D01*
X166884619Y-100737999D01*
X166897265Y-100751175D01*
X166919202Y-100767260D01*
X166930376Y-100785674D01*
X166941502Y-100797267D01*
X166960908Y-100835991D01*
X166963480Y-100840229D01*
X167138765Y-101321821D01*
X167139518Y-101326716D01*
X167149545Y-101368861D01*
X167148473Y-101384893D01*
X167151750Y-101406180D01*
X167145284Y-101432601D01*
X167144067Y-101450821D01*
X167137248Y-101465443D01*
X167131463Y-101489086D01*
X167117069Y-101508716D01*
X167110252Y-101523336D01*
X167097080Y-101535977D01*
X167080993Y-101557918D01*
X167062575Y-101569093D01*
X167050985Y-101580218D01*
X167012266Y-101599621D01*
X167008024Y-101602196D01*
X166596909Y-101751830D01*
X166592011Y-101752583D01*
X166549869Y-101762610D01*
X166533833Y-101761538D01*
X166512550Y-101764814D01*
X166486134Y-101758350D01*
X166467908Y-101757132D01*
X166453279Y-101750310D01*
X166429644Y-101744527D01*
X166410019Y-101730138D01*
X166395394Y-101723318D01*
X166382748Y-101710142D01*
X166360812Y-101694058D01*
X166349637Y-101675643D01*
X166338511Y-101664050D01*
X166319102Y-101625321D01*
X166316534Y-101621089D01*
X166141249Y-101139497D01*
X166140496Y-101134610D01*
X166130468Y-101092456D01*
X166131539Y-101076419D01*
X166128264Y-101055138D01*
X166134727Y-101028722D01*
X166135946Y-101010496D01*
X166142767Y-100995867D01*
X166148551Y-100972232D01*
X166162940Y-100952607D01*
X166169761Y-100937981D01*
X166182938Y-100925334D01*
X166199021Y-100903400D01*
X166217432Y-100892227D01*
X166229028Y-100881099D01*
X166267761Y-100861687D01*
X166271990Y-100859122D01*
X166524378Y-100767260D01*
X166679848Y-100710673D01*
X166679851Y-100710672D01*
X166683105Y-100709488D01*
X166687987Y-100708736D01*
X166730144Y-100698707D01*
X166746185Y-100699779D01*
X166767464Y-100696504D01*
X166793874Y-100702966D01*
G37*
G36*
X133376778Y-100579074D02*
G01*
X133392849Y-100579404D01*
X133433952Y-100593064D01*
X133438772Y-100594244D01*
X133835282Y-100779140D01*
X133839272Y-100782066D01*
X133876166Y-100804778D01*
X133886749Y-100816877D01*
X133904113Y-100829609D01*
X133918219Y-100852855D01*
X133930248Y-100866607D01*
X133935768Y-100881774D01*
X133948392Y-100902577D01*
X133952094Y-100926630D01*
X133957613Y-100941794D01*
X133957238Y-100960051D01*
X133961376Y-100986936D01*
X133956256Y-101007856D01*
X133955927Y-101023920D01*
X133942270Y-101065013D01*
X133941089Y-101069842D01*
X133724497Y-101534325D01*
X133721558Y-101538332D01*
X133698856Y-101575210D01*
X133686764Y-101585786D01*
X133674028Y-101603157D01*
X133650772Y-101617268D01*
X133637028Y-101629291D01*
X133621865Y-101634809D01*
X133601059Y-101647435D01*
X133577003Y-101651137D01*
X133561841Y-101656656D01*
X133543582Y-101656281D01*
X133516700Y-101660419D01*
X133495783Y-101655300D01*
X133479716Y-101654971D01*
X133438621Y-101641313D01*
X133433794Y-101640132D01*
X133037284Y-101455236D01*
X133033289Y-101452307D01*
X132996399Y-101429597D01*
X132985816Y-101417498D01*
X132968453Y-101404767D01*
X132954346Y-101381520D01*
X132942317Y-101367768D01*
X132936796Y-101352599D01*
X132924174Y-101331799D01*
X132920472Y-101307748D01*
X132914952Y-101292581D01*
X132915326Y-101274318D01*
X132911190Y-101247440D01*
X132916308Y-101226524D01*
X132916638Y-101210455D01*
X132930299Y-101169347D01*
X132931477Y-101164534D01*
X133148069Y-100700051D01*
X133150997Y-100696057D01*
X133173709Y-100659165D01*
X133185805Y-100648584D01*
X133198538Y-100631219D01*
X133221786Y-100617111D01*
X133235537Y-100605084D01*
X133250706Y-100599563D01*
X133271507Y-100586941D01*
X133295556Y-100583239D01*
X133310724Y-100577719D01*
X133328988Y-100578093D01*
X133355866Y-100573957D01*
X133376778Y-100579074D01*
G37*
G36*
X176792024Y-98708177D02*
G01*
X176808102Y-98709584D01*
X176824492Y-98717640D01*
X176850606Y-98725252D01*
X176867401Y-98738732D01*
X176881823Y-98745821D01*
X176913301Y-98775572D01*
X176917170Y-98778677D01*
X177246599Y-99171274D01*
X177248981Y-99175616D01*
X177272816Y-99211787D01*
X177277293Y-99227222D01*
X177287652Y-99246104D01*
X177290613Y-99273144D01*
X177295701Y-99290683D01*
X177294294Y-99306754D01*
X177296945Y-99330949D01*
X177290134Y-99354315D01*
X177288728Y-99370388D01*
X177280672Y-99386777D01*
X177273060Y-99412892D01*
X177259579Y-99429688D01*
X177252491Y-99444109D01*
X177222745Y-99475581D01*
X177219636Y-99479456D01*
X176884492Y-99760676D01*
X176880147Y-99763059D01*
X176843978Y-99786893D01*
X176828546Y-99791369D01*
X176809662Y-99801730D01*
X176782620Y-99804691D01*
X176765082Y-99809779D01*
X176749008Y-99808372D01*
X176724817Y-99811022D01*
X176701450Y-99804211D01*
X176685377Y-99802805D01*
X176668989Y-99794749D01*
X176642874Y-99787138D01*
X176626076Y-99773656D01*
X176611656Y-99766568D01*
X176580178Y-99736817D01*
X176576310Y-99733713D01*
X176246881Y-99341116D01*
X176244500Y-99336776D01*
X176220663Y-99300602D01*
X176216185Y-99285164D01*
X176205828Y-99266286D01*
X176202866Y-99239249D01*
X176197778Y-99221706D01*
X176199184Y-99205630D01*
X176196535Y-99181441D01*
X176203344Y-99158080D01*
X176204751Y-99142001D01*
X176212810Y-99125605D01*
X176220420Y-99099498D01*
X176233896Y-99082706D01*
X176240988Y-99068280D01*
X176270745Y-99036795D01*
X176273844Y-99032934D01*
X176466502Y-98871274D01*
X176606333Y-98753941D01*
X176606337Y-98753938D01*
X176608988Y-98751714D01*
X176613317Y-98749338D01*
X176649501Y-98725496D01*
X176664938Y-98721017D01*
X176683818Y-98710660D01*
X176710852Y-98707699D01*
X176728397Y-98702610D01*
X176744476Y-98704016D01*
X176768663Y-98701368D01*
X176792024Y-98708177D01*
G37*
G36*
X123455523Y-98404016D02*
G01*
X123471602Y-98402610D01*
X123489145Y-98407699D01*
X123516182Y-98410660D01*
X123535062Y-98421018D01*
X123550498Y-98425496D01*
X123586666Y-98449330D01*
X123591012Y-98451714D01*
X123926156Y-98732934D01*
X123929255Y-98736796D01*
X123959011Y-98768280D01*
X123966100Y-98782703D01*
X123979580Y-98799498D01*
X123987191Y-98825610D01*
X123995248Y-98842001D01*
X123996654Y-98858075D01*
X124003465Y-98881441D01*
X124000815Y-98905635D01*
X124002221Y-98921706D01*
X123997133Y-98939243D01*
X123994172Y-98966286D01*
X123983812Y-98985168D01*
X123979336Y-99000602D01*
X123955511Y-99036754D01*
X123953119Y-99041116D01*
X123623690Y-99433713D01*
X123619824Y-99436815D01*
X123588343Y-99466568D01*
X123573924Y-99473655D01*
X123557126Y-99487138D01*
X123531007Y-99494750D01*
X123514622Y-99502805D01*
X123498549Y-99504211D01*
X123475183Y-99511022D01*
X123450991Y-99508372D01*
X123434917Y-99509779D01*
X123417378Y-99504691D01*
X123390338Y-99501730D01*
X123371454Y-99491369D01*
X123356021Y-99486893D01*
X123319856Y-99463061D01*
X123315508Y-99460676D01*
X122980364Y-99179456D01*
X122977264Y-99175594D01*
X122947508Y-99144109D01*
X122940417Y-99129684D01*
X122926940Y-99112892D01*
X122919329Y-99086782D01*
X122911271Y-99070388D01*
X122909864Y-99054310D01*
X122903055Y-99030949D01*
X122905704Y-99006759D01*
X122904298Y-98990683D01*
X122909386Y-98973139D01*
X122912348Y-98946104D01*
X122922704Y-98927226D01*
X122927183Y-98911787D01*
X122951016Y-98875620D01*
X122953401Y-98871274D01*
X123095969Y-98701368D01*
X123280596Y-98481337D01*
X123280605Y-98481327D01*
X123282830Y-98478677D01*
X123286681Y-98475585D01*
X123318176Y-98445821D01*
X123332600Y-98438730D01*
X123349394Y-98425252D01*
X123375504Y-98417641D01*
X123391897Y-98409584D01*
X123407975Y-98408177D01*
X123431337Y-98401368D01*
X123455523Y-98404016D01*
G37*
G36*
X177998544Y-97695787D02*
G01*
X178014622Y-97697194D01*
X178031012Y-97705250D01*
X178057126Y-97712862D01*
X178073921Y-97726342D01*
X178088343Y-97733431D01*
X178119821Y-97763182D01*
X178123690Y-97766287D01*
X178453119Y-98158884D01*
X178455501Y-98163226D01*
X178479336Y-98199397D01*
X178483813Y-98214832D01*
X178494172Y-98233714D01*
X178497133Y-98260754D01*
X178502221Y-98278293D01*
X178500814Y-98294364D01*
X178503465Y-98318559D01*
X178496654Y-98341925D01*
X178495248Y-98357998D01*
X178487192Y-98374387D01*
X178479580Y-98400502D01*
X178466099Y-98417298D01*
X178459011Y-98431719D01*
X178429265Y-98463191D01*
X178426156Y-98467066D01*
X178091012Y-98748286D01*
X178086667Y-98750669D01*
X178050498Y-98774503D01*
X178035066Y-98778979D01*
X178016182Y-98789340D01*
X177989140Y-98792301D01*
X177971602Y-98797389D01*
X177955528Y-98795982D01*
X177931337Y-98798632D01*
X177907970Y-98791821D01*
X177891897Y-98790415D01*
X177875509Y-98782359D01*
X177849394Y-98774748D01*
X177832596Y-98761266D01*
X177818176Y-98754178D01*
X177786698Y-98724427D01*
X177782830Y-98721323D01*
X177453401Y-98328726D01*
X177451020Y-98324386D01*
X177427183Y-98288212D01*
X177422705Y-98272774D01*
X177412348Y-98253896D01*
X177409386Y-98226859D01*
X177404298Y-98209316D01*
X177405704Y-98193240D01*
X177403055Y-98169051D01*
X177409864Y-98145690D01*
X177411271Y-98129611D01*
X177419330Y-98113215D01*
X177426940Y-98087108D01*
X177440416Y-98070316D01*
X177447508Y-98055890D01*
X177477265Y-98024405D01*
X177480364Y-98020544D01*
X177673022Y-97858884D01*
X177812853Y-97741551D01*
X177812857Y-97741548D01*
X177815508Y-97739324D01*
X177819837Y-97736948D01*
X177856021Y-97713106D01*
X177871458Y-97708627D01*
X177890338Y-97698270D01*
X177917372Y-97695309D01*
X177934917Y-97690220D01*
X177950996Y-97691626D01*
X177975183Y-97688978D01*
X177998544Y-97695787D01*
G37*
G36*
X122249003Y-97391626D02*
G01*
X122265082Y-97390220D01*
X122282625Y-97395309D01*
X122309662Y-97398270D01*
X122328542Y-97408628D01*
X122343978Y-97413106D01*
X122380146Y-97436940D01*
X122384492Y-97439324D01*
X122719636Y-97720544D01*
X122722735Y-97724406D01*
X122752491Y-97755890D01*
X122759580Y-97770313D01*
X122773060Y-97787108D01*
X122780671Y-97813220D01*
X122788728Y-97829611D01*
X122790134Y-97845685D01*
X122796945Y-97869051D01*
X122794295Y-97893245D01*
X122795701Y-97909316D01*
X122790613Y-97926853D01*
X122787652Y-97953896D01*
X122777292Y-97972778D01*
X122772816Y-97988212D01*
X122748991Y-98024364D01*
X122746599Y-98028726D01*
X122417170Y-98421323D01*
X122413304Y-98424425D01*
X122381823Y-98454178D01*
X122367404Y-98461265D01*
X122350606Y-98474748D01*
X122324487Y-98482360D01*
X122308102Y-98490415D01*
X122292029Y-98491821D01*
X122268663Y-98498632D01*
X122244471Y-98495982D01*
X122228397Y-98497389D01*
X122210858Y-98492301D01*
X122183818Y-98489340D01*
X122164934Y-98478979D01*
X122149501Y-98474503D01*
X122113336Y-98450671D01*
X122108988Y-98448286D01*
X121773844Y-98167066D01*
X121770744Y-98163204D01*
X121740988Y-98131719D01*
X121733897Y-98117294D01*
X121720420Y-98100502D01*
X121712809Y-98074392D01*
X121704751Y-98057998D01*
X121703344Y-98041920D01*
X121696535Y-98018559D01*
X121699184Y-97994369D01*
X121697778Y-97978293D01*
X121702866Y-97960749D01*
X121705828Y-97933714D01*
X121716184Y-97914836D01*
X121720663Y-97899397D01*
X121744496Y-97863230D01*
X121746881Y-97858884D01*
X121918665Y-97654160D01*
X122074076Y-97468947D01*
X122074085Y-97468937D01*
X122076310Y-97466287D01*
X122080161Y-97463195D01*
X122111656Y-97433431D01*
X122126080Y-97426340D01*
X122142874Y-97412862D01*
X122168984Y-97405251D01*
X122185377Y-97397194D01*
X122201455Y-97395787D01*
X122224817Y-97388978D01*
X122249003Y-97391626D01*
G37*
G36*
X156802114Y-95045469D02*
G01*
X157003615Y-95139503D01*
X158291298Y-95740421D01*
X158302114Y-95745469D01*
X158304699Y-95748291D01*
X158305000Y-95750000D01*
X158305000Y-97750000D01*
X158303536Y-97753536D01*
X158302114Y-97754531D01*
X156802114Y-98454531D01*
X156800000Y-98455000D01*
X156793424Y-98455000D01*
X144808883Y-98455000D01*
X144800000Y-98455000D01*
X144797226Y-98454160D01*
X143597226Y-97654160D01*
X143595097Y-97650981D01*
X143595000Y-97650000D01*
X143595000Y-95850000D01*
X143596464Y-95846464D01*
X143597226Y-95845840D01*
X143603360Y-95841750D01*
X143603361Y-95841749D01*
X144789834Y-95050767D01*
X144789836Y-95050766D01*
X144797226Y-95045840D01*
X144800000Y-95045000D01*
X156800000Y-95045000D01*
X156802114Y-95045469D01*
G37*
G36*
X127083829Y-95238461D02*
G01*
X127099870Y-95237389D01*
X127142012Y-95247416D01*
X127146910Y-95248170D01*
X127481005Y-95369771D01*
X127554767Y-95396618D01*
X127554768Y-95396618D01*
X127558025Y-95397804D01*
X127562253Y-95400369D01*
X127600987Y-95419781D01*
X127612581Y-95430909D01*
X127630994Y-95442082D01*
X127647078Y-95464018D01*
X127660253Y-95476663D01*
X127667071Y-95491285D01*
X127681464Y-95510914D01*
X127687248Y-95534554D01*
X127694068Y-95549178D01*
X127695285Y-95567399D01*
X127701751Y-95593820D01*
X127698474Y-95615106D01*
X127699546Y-95631137D01*
X127689521Y-95673272D01*
X127688766Y-95678179D01*
X127513481Y-96159771D01*
X127510910Y-96164007D01*
X127491504Y-96202732D01*
X127480377Y-96214324D01*
X127469203Y-96232740D01*
X127447263Y-96248826D01*
X127434620Y-96262000D01*
X127419996Y-96268818D01*
X127400371Y-96283209D01*
X127376733Y-96288993D01*
X127362106Y-96295814D01*
X127343880Y-96297032D01*
X127317465Y-96303496D01*
X127296181Y-96300220D01*
X127280145Y-96301292D01*
X127238012Y-96291267D01*
X127233106Y-96290512D01*
X126821991Y-96140878D01*
X126817758Y-96138309D01*
X126779028Y-96118900D01*
X126767434Y-96107772D01*
X126749022Y-96096600D01*
X126732937Y-96074663D01*
X126719762Y-96062018D01*
X126712942Y-96047394D01*
X126698552Y-96027768D01*
X126692767Y-96004129D01*
X126685947Y-95989503D01*
X126684728Y-95971277D01*
X126678265Y-95944862D01*
X126681540Y-95923580D01*
X126680469Y-95907544D01*
X126690497Y-95865394D01*
X126691250Y-95860503D01*
X126866535Y-95378911D01*
X126869097Y-95374688D01*
X126888511Y-95335949D01*
X126899642Y-95324351D01*
X126910813Y-95305942D01*
X126932745Y-95289860D01*
X126945395Y-95276681D01*
X126960024Y-95269859D01*
X126979645Y-95255473D01*
X127003275Y-95249690D01*
X127017909Y-95242867D01*
X127036141Y-95241648D01*
X127062551Y-95235186D01*
X127083829Y-95238461D01*
G37*
G36*
X172791371Y-95234214D02*
G01*
X172812859Y-95232806D01*
X172838612Y-95241548D01*
X172856663Y-95244350D01*
X172870639Y-95252419D01*
X172893682Y-95260241D01*
X172911975Y-95276284D01*
X172925953Y-95284354D01*
X172937405Y-95298585D01*
X172957853Y-95316518D01*
X172967377Y-95335832D01*
X172977453Y-95348353D01*
X172993406Y-95388614D01*
X172995603Y-95393068D01*
X173128248Y-95888105D01*
X173128571Y-95893040D01*
X173134887Y-95935903D01*
X173132422Y-95951781D01*
X173133831Y-95973274D01*
X173125087Y-95999031D01*
X173122286Y-96017078D01*
X173114217Y-96031053D01*
X173106395Y-96054097D01*
X173090351Y-96072390D01*
X173082282Y-96086368D01*
X173068051Y-96097819D01*
X173050118Y-96118268D01*
X173030801Y-96127793D01*
X173018282Y-96137868D01*
X172978022Y-96153821D01*
X172973568Y-96156018D01*
X172550976Y-96269251D01*
X172546038Y-96269574D01*
X172503177Y-96275890D01*
X172487298Y-96273425D01*
X172465807Y-96274834D01*
X172440048Y-96266090D01*
X172422002Y-96263289D01*
X172408027Y-96255221D01*
X172384984Y-96247399D01*
X172366688Y-96231354D01*
X172352712Y-96223285D01*
X172341260Y-96209053D01*
X172320813Y-96191122D01*
X172311288Y-96171808D01*
X172301212Y-96159286D01*
X172285256Y-96119019D01*
X172283063Y-96114572D01*
X172185817Y-95751646D01*
X172151314Y-95622882D01*
X172151312Y-95622875D01*
X172150418Y-95619535D01*
X172150095Y-95614609D01*
X172143778Y-95571736D01*
X172146243Y-95555853D01*
X172144835Y-95534366D01*
X172153576Y-95508614D01*
X172156379Y-95490561D01*
X172164451Y-95476579D01*
X172172271Y-95453543D01*
X172188309Y-95435254D01*
X172196383Y-95421271D01*
X172210620Y-95409814D01*
X172228548Y-95389372D01*
X172247858Y-95379848D01*
X172260383Y-95369771D01*
X172300658Y-95353811D01*
X172305098Y-95351622D01*
X172509326Y-95296899D01*
X172724342Y-95239285D01*
X172724351Y-95239283D01*
X172727690Y-95238389D01*
X172732613Y-95238066D01*
X172775488Y-95231749D01*
X172791371Y-95234214D01*
G37*
G36*
X174312705Y-94826574D02*
G01*
X174334193Y-94825166D01*
X174359946Y-94833908D01*
X174377997Y-94836710D01*
X174391973Y-94844779D01*
X174415016Y-94852601D01*
X174433309Y-94868644D01*
X174447287Y-94876714D01*
X174458739Y-94890945D01*
X174479187Y-94908878D01*
X174488711Y-94928192D01*
X174498787Y-94940713D01*
X174514740Y-94980974D01*
X174516937Y-94985428D01*
X174649582Y-95480465D01*
X174649905Y-95485400D01*
X174656221Y-95528263D01*
X174653756Y-95544141D01*
X174655165Y-95565634D01*
X174646421Y-95591391D01*
X174643620Y-95609438D01*
X174635551Y-95623413D01*
X174627729Y-95646457D01*
X174611685Y-95664750D01*
X174603616Y-95678728D01*
X174589385Y-95690179D01*
X174571452Y-95710628D01*
X174552135Y-95720153D01*
X174539616Y-95730228D01*
X174499356Y-95746181D01*
X174494902Y-95748378D01*
X174072310Y-95861611D01*
X174067372Y-95861934D01*
X174024511Y-95868250D01*
X174008632Y-95865785D01*
X173987141Y-95867194D01*
X173961382Y-95858450D01*
X173943336Y-95855649D01*
X173929361Y-95847581D01*
X173906318Y-95839759D01*
X173888022Y-95823714D01*
X173874046Y-95815645D01*
X173862594Y-95801413D01*
X173842147Y-95783482D01*
X173832622Y-95764168D01*
X173822546Y-95751646D01*
X173806590Y-95711379D01*
X173804397Y-95706932D01*
X173704992Y-95335949D01*
X173672648Y-95215242D01*
X173672646Y-95215235D01*
X173671752Y-95211895D01*
X173671429Y-95206969D01*
X173665112Y-95164096D01*
X173667577Y-95148213D01*
X173666169Y-95126726D01*
X173674910Y-95100974D01*
X173677713Y-95082921D01*
X173685785Y-95068939D01*
X173693605Y-95045903D01*
X173709643Y-95027614D01*
X173717717Y-95013631D01*
X173731954Y-95002174D01*
X173749882Y-94981732D01*
X173769192Y-94972208D01*
X173781717Y-94962131D01*
X173821992Y-94946171D01*
X173826432Y-94943982D01*
X174030660Y-94889259D01*
X174245676Y-94831645D01*
X174245685Y-94831643D01*
X174249024Y-94830749D01*
X174253947Y-94830426D01*
X174296822Y-94824109D01*
X174312705Y-94826574D01*
G37*
G36*
X125603813Y-94699779D02*
G01*
X125619854Y-94698707D01*
X125661996Y-94708734D01*
X125666894Y-94709488D01*
X126026101Y-94840229D01*
X126074751Y-94857936D01*
X126074752Y-94857936D01*
X126078009Y-94859122D01*
X126082237Y-94861687D01*
X126120971Y-94881099D01*
X126132565Y-94892227D01*
X126150978Y-94903400D01*
X126167062Y-94925336D01*
X126180237Y-94937981D01*
X126187055Y-94952603D01*
X126201448Y-94972232D01*
X126207232Y-94995872D01*
X126214052Y-95010496D01*
X126215269Y-95028717D01*
X126221735Y-95055138D01*
X126218458Y-95076424D01*
X126219530Y-95092455D01*
X126209505Y-95134590D01*
X126208750Y-95139497D01*
X126033465Y-95621089D01*
X126030894Y-95625325D01*
X126011488Y-95664050D01*
X126000361Y-95675642D01*
X125989187Y-95694058D01*
X125967247Y-95710144D01*
X125954604Y-95723318D01*
X125939980Y-95730136D01*
X125920355Y-95744527D01*
X125896717Y-95750311D01*
X125882090Y-95757132D01*
X125863864Y-95758350D01*
X125837449Y-95764814D01*
X125816165Y-95761538D01*
X125800129Y-95762610D01*
X125757996Y-95752585D01*
X125753090Y-95751830D01*
X125341975Y-95602196D01*
X125337742Y-95599627D01*
X125299012Y-95580218D01*
X125287418Y-95569090D01*
X125269006Y-95557918D01*
X125252921Y-95535981D01*
X125239746Y-95523336D01*
X125232926Y-95508712D01*
X125218536Y-95489086D01*
X125212751Y-95465447D01*
X125205931Y-95450821D01*
X125204712Y-95432595D01*
X125198249Y-95406180D01*
X125201524Y-95384898D01*
X125200453Y-95368862D01*
X125210481Y-95326712D01*
X125211234Y-95321821D01*
X125386519Y-94840229D01*
X125389081Y-94836006D01*
X125408495Y-94797267D01*
X125419626Y-94785669D01*
X125430797Y-94767260D01*
X125452729Y-94751178D01*
X125465379Y-94737999D01*
X125480008Y-94731177D01*
X125499629Y-94716791D01*
X125523259Y-94711008D01*
X125537893Y-94704185D01*
X125556125Y-94702966D01*
X125582535Y-94696504D01*
X125603813Y-94699779D01*
G37*
G36*
X135683829Y-94388461D02*
G01*
X135699870Y-94387389D01*
X135742012Y-94397416D01*
X135746910Y-94398170D01*
X136084626Y-94521089D01*
X136154767Y-94546618D01*
X136154768Y-94546618D01*
X136158025Y-94547804D01*
X136162253Y-94550369D01*
X136200987Y-94569781D01*
X136212581Y-94580909D01*
X136230994Y-94592082D01*
X136247078Y-94614018D01*
X136260253Y-94626663D01*
X136267071Y-94641285D01*
X136281464Y-94660914D01*
X136287248Y-94684554D01*
X136294068Y-94699178D01*
X136295285Y-94717399D01*
X136301751Y-94743820D01*
X136298474Y-94765106D01*
X136299546Y-94781137D01*
X136289521Y-94823272D01*
X136288766Y-94828179D01*
X136113481Y-95309771D01*
X136110910Y-95314007D01*
X136091504Y-95352732D01*
X136080377Y-95364324D01*
X136069203Y-95382740D01*
X136047263Y-95398826D01*
X136034620Y-95412000D01*
X136019996Y-95418818D01*
X136000371Y-95433209D01*
X135976733Y-95438993D01*
X135962106Y-95445814D01*
X135943880Y-95447032D01*
X135917465Y-95453496D01*
X135896181Y-95450220D01*
X135880145Y-95451292D01*
X135838012Y-95441267D01*
X135833106Y-95440512D01*
X135421991Y-95290878D01*
X135417758Y-95288309D01*
X135379028Y-95268900D01*
X135367434Y-95257772D01*
X135349022Y-95246600D01*
X135332937Y-95224663D01*
X135319762Y-95212018D01*
X135312942Y-95197394D01*
X135298552Y-95177768D01*
X135292767Y-95154129D01*
X135285947Y-95139503D01*
X135284728Y-95121277D01*
X135278265Y-95094862D01*
X135281540Y-95073580D01*
X135280469Y-95057544D01*
X135290497Y-95015394D01*
X135291250Y-95010503D01*
X135466535Y-94528911D01*
X135469097Y-94524688D01*
X135488511Y-94485949D01*
X135499642Y-94474351D01*
X135510813Y-94455942D01*
X135532745Y-94439860D01*
X135545395Y-94426681D01*
X135560024Y-94419859D01*
X135579645Y-94405473D01*
X135603275Y-94399690D01*
X135617909Y-94392867D01*
X135636141Y-94391648D01*
X135662551Y-94385186D01*
X135683829Y-94388461D01*
G37*
G36*
X164363860Y-94141648D02*
G01*
X164382091Y-94142867D01*
X164396722Y-94149690D01*
X164420356Y-94155473D01*
X164439978Y-94169860D01*
X164454605Y-94176681D01*
X164467251Y-94189857D01*
X164489188Y-94205942D01*
X164500362Y-94224356D01*
X164511488Y-94235949D01*
X164530894Y-94274673D01*
X164533466Y-94278911D01*
X164708751Y-94760503D01*
X164709504Y-94765398D01*
X164719531Y-94807543D01*
X164718459Y-94823575D01*
X164721736Y-94844862D01*
X164715270Y-94871283D01*
X164714053Y-94889503D01*
X164707234Y-94904125D01*
X164701449Y-94927768D01*
X164687055Y-94947398D01*
X164680238Y-94962018D01*
X164667066Y-94974659D01*
X164650979Y-94996600D01*
X164632561Y-95007775D01*
X164620971Y-95018900D01*
X164582252Y-95038303D01*
X164578010Y-95040878D01*
X164166895Y-95190512D01*
X164161997Y-95191265D01*
X164119855Y-95201292D01*
X164103819Y-95200220D01*
X164082536Y-95203496D01*
X164056120Y-95197032D01*
X164037894Y-95195814D01*
X164023265Y-95188992D01*
X163999630Y-95183209D01*
X163980005Y-95168820D01*
X163965380Y-95162000D01*
X163952734Y-95148824D01*
X163930798Y-95132740D01*
X163919623Y-95114325D01*
X163908497Y-95102732D01*
X163889088Y-95064003D01*
X163886520Y-95059771D01*
X163711235Y-94578179D01*
X163710482Y-94573292D01*
X163700454Y-94531138D01*
X163701525Y-94515101D01*
X163698250Y-94493820D01*
X163704713Y-94467404D01*
X163705932Y-94449178D01*
X163712753Y-94434549D01*
X163718537Y-94410914D01*
X163732926Y-94391289D01*
X163739747Y-94376663D01*
X163752924Y-94364016D01*
X163769007Y-94342082D01*
X163787418Y-94330909D01*
X163799014Y-94319781D01*
X163837747Y-94300369D01*
X163841976Y-94297804D01*
X164050737Y-94221821D01*
X164249834Y-94149355D01*
X164249837Y-94149354D01*
X164253091Y-94148170D01*
X164257973Y-94147418D01*
X164300130Y-94137389D01*
X164316171Y-94138461D01*
X164337450Y-94135186D01*
X164363860Y-94141648D01*
G37*
G36*
X134203813Y-93849779D02*
G01*
X134219854Y-93848707D01*
X134261996Y-93858734D01*
X134266894Y-93859488D01*
X134626101Y-93990229D01*
X134674751Y-94007936D01*
X134674752Y-94007936D01*
X134678009Y-94009122D01*
X134682237Y-94011687D01*
X134720971Y-94031099D01*
X134732565Y-94042227D01*
X134750978Y-94053400D01*
X134767062Y-94075336D01*
X134780237Y-94087981D01*
X134787055Y-94102603D01*
X134801448Y-94122232D01*
X134807232Y-94145872D01*
X134814052Y-94160496D01*
X134815269Y-94178717D01*
X134821735Y-94205138D01*
X134818458Y-94226424D01*
X134819530Y-94242455D01*
X134809505Y-94284590D01*
X134808750Y-94289497D01*
X134633465Y-94771089D01*
X134630894Y-94775325D01*
X134611488Y-94814050D01*
X134600361Y-94825642D01*
X134589187Y-94844058D01*
X134567247Y-94860144D01*
X134554604Y-94873318D01*
X134539980Y-94880136D01*
X134520355Y-94894527D01*
X134496717Y-94900311D01*
X134482090Y-94907132D01*
X134463864Y-94908350D01*
X134437449Y-94914814D01*
X134416165Y-94911538D01*
X134400129Y-94912610D01*
X134357996Y-94902585D01*
X134353090Y-94901830D01*
X133941975Y-94752196D01*
X133937742Y-94749627D01*
X133899012Y-94730218D01*
X133887418Y-94719090D01*
X133869006Y-94707918D01*
X133852921Y-94685981D01*
X133839746Y-94673336D01*
X133832926Y-94658712D01*
X133818536Y-94639086D01*
X133812751Y-94615447D01*
X133805931Y-94600821D01*
X133804712Y-94582595D01*
X133798249Y-94556180D01*
X133801524Y-94534898D01*
X133800453Y-94518862D01*
X133810481Y-94476712D01*
X133811234Y-94471821D01*
X133986519Y-93990229D01*
X133989081Y-93986006D01*
X134008495Y-93947267D01*
X134019626Y-93935669D01*
X134030797Y-93917260D01*
X134052729Y-93901178D01*
X134065379Y-93887999D01*
X134080008Y-93881177D01*
X134099629Y-93866791D01*
X134123259Y-93861008D01*
X134137893Y-93854185D01*
X134156125Y-93852966D01*
X134182535Y-93846504D01*
X134203813Y-93849779D01*
G37*
G36*
X165843874Y-93602966D02*
G01*
X165862105Y-93604185D01*
X165876736Y-93611008D01*
X165900370Y-93616791D01*
X165919992Y-93631178D01*
X165934619Y-93637999D01*
X165947265Y-93651175D01*
X165969202Y-93667260D01*
X165980376Y-93685674D01*
X165991502Y-93697267D01*
X166010908Y-93735991D01*
X166013480Y-93740229D01*
X166188765Y-94221821D01*
X166189518Y-94226716D01*
X166199545Y-94268861D01*
X166198473Y-94284893D01*
X166201750Y-94306180D01*
X166195284Y-94332601D01*
X166194067Y-94350821D01*
X166187248Y-94365443D01*
X166181463Y-94389086D01*
X166167069Y-94408716D01*
X166160252Y-94423336D01*
X166147080Y-94435977D01*
X166130993Y-94457918D01*
X166112575Y-94469093D01*
X166100985Y-94480218D01*
X166062266Y-94499621D01*
X166058024Y-94502196D01*
X165646909Y-94651830D01*
X165642011Y-94652583D01*
X165599869Y-94662610D01*
X165583833Y-94661538D01*
X165562550Y-94664814D01*
X165536134Y-94658350D01*
X165517908Y-94657132D01*
X165503279Y-94650310D01*
X165479644Y-94644527D01*
X165460019Y-94630138D01*
X165445394Y-94623318D01*
X165432748Y-94610142D01*
X165410812Y-94594058D01*
X165399637Y-94575643D01*
X165388511Y-94564050D01*
X165369102Y-94525321D01*
X165366534Y-94521089D01*
X165191249Y-94039497D01*
X165190496Y-94034610D01*
X165180468Y-93992456D01*
X165181539Y-93976419D01*
X165178264Y-93955138D01*
X165184727Y-93928722D01*
X165185946Y-93910496D01*
X165192767Y-93895867D01*
X165198551Y-93872232D01*
X165212940Y-93852607D01*
X165219761Y-93837981D01*
X165232938Y-93825334D01*
X165249021Y-93803400D01*
X165267432Y-93792227D01*
X165279028Y-93781099D01*
X165317761Y-93761687D01*
X165321990Y-93759122D01*
X165574378Y-93667260D01*
X165729848Y-93610673D01*
X165729851Y-93610672D01*
X165733105Y-93609488D01*
X165737987Y-93608736D01*
X165780144Y-93598707D01*
X165796185Y-93599779D01*
X165817464Y-93596504D01*
X165843874Y-93602966D01*
G37*
G36*
X118333829Y-92338461D02*
G01*
X118349870Y-92337389D01*
X118392012Y-92347416D01*
X118396910Y-92348170D01*
X118731005Y-92469771D01*
X118804767Y-92496618D01*
X118804768Y-92496618D01*
X118808025Y-92497804D01*
X118812253Y-92500369D01*
X118850987Y-92519781D01*
X118862581Y-92530909D01*
X118880994Y-92542082D01*
X118897078Y-92564018D01*
X118910253Y-92576663D01*
X118917071Y-92591285D01*
X118931464Y-92610914D01*
X118937248Y-92634554D01*
X118944068Y-92649178D01*
X118945285Y-92667399D01*
X118951751Y-92693820D01*
X118948474Y-92715106D01*
X118949546Y-92731137D01*
X118939521Y-92773272D01*
X118938766Y-92778179D01*
X118763481Y-93259771D01*
X118760910Y-93264007D01*
X118741504Y-93302732D01*
X118730377Y-93314324D01*
X118719203Y-93332740D01*
X118697263Y-93348826D01*
X118684620Y-93362000D01*
X118669996Y-93368818D01*
X118650371Y-93383209D01*
X118626733Y-93388993D01*
X118612106Y-93395814D01*
X118593880Y-93397032D01*
X118567465Y-93403496D01*
X118546181Y-93400220D01*
X118530145Y-93401292D01*
X118488012Y-93391267D01*
X118483106Y-93390512D01*
X118071991Y-93240878D01*
X118067758Y-93238309D01*
X118029028Y-93218900D01*
X118017434Y-93207772D01*
X117999022Y-93196600D01*
X117982937Y-93174663D01*
X117969762Y-93162018D01*
X117962942Y-93147394D01*
X117948552Y-93127768D01*
X117942767Y-93104129D01*
X117935947Y-93089503D01*
X117934728Y-93071277D01*
X117928265Y-93044862D01*
X117931540Y-93023580D01*
X117930469Y-93007544D01*
X117940497Y-92965394D01*
X117941250Y-92960503D01*
X118116535Y-92478911D01*
X118119097Y-92474688D01*
X118138511Y-92435949D01*
X118149642Y-92424351D01*
X118160813Y-92405942D01*
X118182745Y-92389860D01*
X118195395Y-92376681D01*
X118210024Y-92369859D01*
X118229645Y-92355473D01*
X118253275Y-92349690D01*
X118267909Y-92342867D01*
X118286141Y-92341648D01*
X118312551Y-92335186D01*
X118333829Y-92338461D01*
G37*
G36*
X181891371Y-92334214D02*
G01*
X181912859Y-92332806D01*
X181938612Y-92341548D01*
X181956663Y-92344350D01*
X181970639Y-92352419D01*
X181993682Y-92360241D01*
X182011975Y-92376284D01*
X182025953Y-92384354D01*
X182037405Y-92398585D01*
X182057853Y-92416518D01*
X182067377Y-92435832D01*
X182077453Y-92448353D01*
X182093406Y-92488614D01*
X182095603Y-92493068D01*
X182228248Y-92988105D01*
X182228571Y-92993040D01*
X182234887Y-93035903D01*
X182232422Y-93051781D01*
X182233831Y-93073274D01*
X182225087Y-93099031D01*
X182222286Y-93117078D01*
X182214217Y-93131053D01*
X182206395Y-93154097D01*
X182190351Y-93172390D01*
X182182282Y-93186368D01*
X182168051Y-93197819D01*
X182150118Y-93218268D01*
X182130801Y-93227793D01*
X182118282Y-93237868D01*
X182078022Y-93253821D01*
X182073568Y-93256018D01*
X181650976Y-93369251D01*
X181646038Y-93369574D01*
X181603177Y-93375890D01*
X181587298Y-93373425D01*
X181565807Y-93374834D01*
X181540048Y-93366090D01*
X181522002Y-93363289D01*
X181508027Y-93355221D01*
X181484984Y-93347399D01*
X181466688Y-93331354D01*
X181452712Y-93323285D01*
X181441260Y-93309053D01*
X181420813Y-93291122D01*
X181411288Y-93271808D01*
X181401212Y-93259286D01*
X181385256Y-93219019D01*
X181383063Y-93214572D01*
X181285817Y-92851646D01*
X181251314Y-92722882D01*
X181251312Y-92722875D01*
X181250418Y-92719535D01*
X181250095Y-92714609D01*
X181243778Y-92671736D01*
X181246243Y-92655853D01*
X181244835Y-92634366D01*
X181253576Y-92608614D01*
X181256379Y-92590561D01*
X181264451Y-92576579D01*
X181272271Y-92553543D01*
X181288309Y-92535254D01*
X181296383Y-92521271D01*
X181310620Y-92509814D01*
X181328548Y-92489372D01*
X181347858Y-92479848D01*
X181360383Y-92469771D01*
X181400658Y-92453811D01*
X181405098Y-92451622D01*
X181609326Y-92396899D01*
X181824342Y-92339285D01*
X181824351Y-92339283D01*
X181827690Y-92338389D01*
X181832613Y-92338066D01*
X181875488Y-92331749D01*
X181891371Y-92334214D01*
G37*
G36*
X183412705Y-91926574D02*
G01*
X183434193Y-91925166D01*
X183459946Y-91933908D01*
X183477997Y-91936710D01*
X183491973Y-91944779D01*
X183515016Y-91952601D01*
X183533309Y-91968644D01*
X183547287Y-91976714D01*
X183558739Y-91990945D01*
X183579187Y-92008878D01*
X183588711Y-92028192D01*
X183598787Y-92040713D01*
X183614740Y-92080974D01*
X183616937Y-92085428D01*
X183749582Y-92580465D01*
X183749905Y-92585400D01*
X183756221Y-92628263D01*
X183753756Y-92644141D01*
X183755165Y-92665634D01*
X183746421Y-92691391D01*
X183743620Y-92709438D01*
X183735551Y-92723413D01*
X183727729Y-92746457D01*
X183711685Y-92764750D01*
X183703616Y-92778728D01*
X183689385Y-92790179D01*
X183671452Y-92810628D01*
X183652135Y-92820153D01*
X183639616Y-92830228D01*
X183599356Y-92846181D01*
X183594902Y-92848378D01*
X183172310Y-92961611D01*
X183167372Y-92961934D01*
X183124511Y-92968250D01*
X183108632Y-92965785D01*
X183087141Y-92967194D01*
X183061382Y-92958450D01*
X183043336Y-92955649D01*
X183029361Y-92947581D01*
X183006318Y-92939759D01*
X182988022Y-92923714D01*
X182974046Y-92915645D01*
X182962594Y-92901413D01*
X182942147Y-92883482D01*
X182932622Y-92864168D01*
X182922546Y-92851646D01*
X182906590Y-92811379D01*
X182904397Y-92806932D01*
X182804992Y-92435949D01*
X182772648Y-92315242D01*
X182772646Y-92315235D01*
X182771752Y-92311895D01*
X182771429Y-92306969D01*
X182765112Y-92264096D01*
X182767577Y-92248213D01*
X182766169Y-92226726D01*
X182774910Y-92200974D01*
X182777713Y-92182921D01*
X182785785Y-92168939D01*
X182793605Y-92145903D01*
X182809643Y-92127614D01*
X182817717Y-92113631D01*
X182831954Y-92102174D01*
X182849882Y-92081732D01*
X182869192Y-92072208D01*
X182881717Y-92062131D01*
X182921992Y-92046171D01*
X182926432Y-92043982D01*
X183130660Y-91989259D01*
X183345676Y-91931645D01*
X183345685Y-91931643D01*
X183349024Y-91930749D01*
X183353947Y-91930426D01*
X183396822Y-91924109D01*
X183412705Y-91926574D01*
G37*
G36*
X116853813Y-91799779D02*
G01*
X116869854Y-91798707D01*
X116911996Y-91808734D01*
X116916894Y-91809488D01*
X117276101Y-91940229D01*
X117324751Y-91957936D01*
X117324752Y-91957936D01*
X117328009Y-91959122D01*
X117332237Y-91961687D01*
X117370971Y-91981099D01*
X117382565Y-91992227D01*
X117400978Y-92003400D01*
X117417062Y-92025336D01*
X117430237Y-92037981D01*
X117437055Y-92052603D01*
X117451448Y-92072232D01*
X117457232Y-92095872D01*
X117464052Y-92110496D01*
X117465269Y-92128717D01*
X117471735Y-92155138D01*
X117468458Y-92176424D01*
X117469530Y-92192455D01*
X117459505Y-92234590D01*
X117458750Y-92239497D01*
X117283465Y-92721089D01*
X117280894Y-92725325D01*
X117261488Y-92764050D01*
X117250361Y-92775642D01*
X117239187Y-92794058D01*
X117217247Y-92810144D01*
X117204604Y-92823318D01*
X117189980Y-92830136D01*
X117170355Y-92844527D01*
X117146717Y-92850311D01*
X117132090Y-92857132D01*
X117113864Y-92858350D01*
X117087449Y-92864814D01*
X117066165Y-92861538D01*
X117050129Y-92862610D01*
X117007996Y-92852585D01*
X117003090Y-92851830D01*
X116591975Y-92702196D01*
X116587742Y-92699627D01*
X116549012Y-92680218D01*
X116537418Y-92669090D01*
X116519006Y-92657918D01*
X116502921Y-92635981D01*
X116489746Y-92623336D01*
X116482926Y-92608712D01*
X116468536Y-92589086D01*
X116462751Y-92565447D01*
X116455931Y-92550821D01*
X116454712Y-92532595D01*
X116448249Y-92506180D01*
X116451524Y-92484898D01*
X116450453Y-92468862D01*
X116460481Y-92426712D01*
X116461234Y-92421821D01*
X116636519Y-91940229D01*
X116639081Y-91936006D01*
X116658495Y-91897267D01*
X116669626Y-91885669D01*
X116680797Y-91867260D01*
X116702729Y-91851178D01*
X116715379Y-91837999D01*
X116730008Y-91831177D01*
X116749629Y-91816791D01*
X116773259Y-91811008D01*
X116787893Y-91804185D01*
X116806125Y-91802966D01*
X116832535Y-91796504D01*
X116853813Y-91799779D01*
G37*
G36*
X124496930Y-90626915D02*
G01*
X124540241Y-90628138D01*
X124555457Y-90633324D01*
X124576860Y-90635669D01*
X124600699Y-90648747D01*
X124617994Y-90654643D01*
X124630360Y-90665019D01*
X124651691Y-90676722D01*
X124666921Y-90695698D01*
X124679285Y-90706073D01*
X124688091Y-90722075D01*
X124705115Y-90743287D01*
X124711141Y-90763963D01*
X124718888Y-90778040D01*
X124727605Y-90820449D01*
X124728999Y-90825229D01*
X124773666Y-91335779D01*
X124773126Y-91340705D01*
X124771904Y-91384004D01*
X124766718Y-91399214D01*
X124764374Y-91420624D01*
X124751290Y-91444472D01*
X124745398Y-91461758D01*
X124735026Y-91474118D01*
X124723321Y-91495455D01*
X124704341Y-91510687D01*
X124693970Y-91523048D01*
X124677970Y-91531852D01*
X124656756Y-91548879D01*
X124636078Y-91554905D01*
X124622002Y-91562652D01*
X124579584Y-91571371D01*
X124574814Y-91572762D01*
X124138978Y-91610893D01*
X124134051Y-91610353D01*
X124090752Y-91609131D01*
X124075539Y-91603945D01*
X124054134Y-91601601D01*
X124030291Y-91588520D01*
X124012999Y-91582626D01*
X124000634Y-91572250D01*
X123979303Y-91560548D01*
X123964072Y-91541571D01*
X123951708Y-91531196D01*
X123942901Y-91515192D01*
X123925879Y-91493983D01*
X123919852Y-91473308D01*
X123912105Y-91459229D01*
X123903385Y-91416811D01*
X123901995Y-91412041D01*
X123857328Y-90901491D01*
X123857866Y-90896576D01*
X123859089Y-90853265D01*
X123864275Y-90838049D01*
X123866620Y-90816646D01*
X123879699Y-90792804D01*
X123885595Y-90775511D01*
X123895971Y-90763145D01*
X123907673Y-90741815D01*
X123926646Y-90726586D01*
X123937023Y-90714221D01*
X123953029Y-90705412D01*
X123974238Y-90688391D01*
X123994909Y-90682366D01*
X124008991Y-90674617D01*
X124051423Y-90665894D01*
X124056180Y-90664508D01*
X124449799Y-90630070D01*
X124488563Y-90626679D01*
X124492016Y-90626377D01*
X124496930Y-90626915D01*
G37*
G36*
X144991342Y-90638060D02*
G01*
X145104381Y-90703323D01*
X145196677Y-90795619D01*
X145261940Y-90908658D01*
X145295722Y-91034737D01*
X145295722Y-91165263D01*
X145261940Y-91291342D01*
X145196677Y-91404381D01*
X145104381Y-91496677D01*
X144991342Y-91561940D01*
X144865263Y-91595722D01*
X144734737Y-91595722D01*
X144608658Y-91561940D01*
X144495619Y-91496677D01*
X144403323Y-91404381D01*
X144338060Y-91291342D01*
X144304278Y-91165263D01*
X144304278Y-91034737D01*
X144338060Y-90908658D01*
X144403323Y-90795619D01*
X144495619Y-90703323D01*
X144608658Y-90638060D01*
X144734737Y-90604278D01*
X144865263Y-90604278D01*
X144991342Y-90638060D01*
G37*
G36*
X126065936Y-90489645D02*
G01*
X126109247Y-90490868D01*
X126124463Y-90496054D01*
X126145866Y-90498399D01*
X126169705Y-90511477D01*
X126187000Y-90517373D01*
X126199366Y-90527749D01*
X126220697Y-90539452D01*
X126235927Y-90558428D01*
X126248291Y-90568803D01*
X126257097Y-90584805D01*
X126274121Y-90606017D01*
X126280147Y-90626693D01*
X126287894Y-90640770D01*
X126296611Y-90683179D01*
X126298005Y-90687959D01*
X126342672Y-91198509D01*
X126342132Y-91203435D01*
X126340910Y-91246734D01*
X126335724Y-91261944D01*
X126333380Y-91283354D01*
X126320296Y-91307202D01*
X126314404Y-91324488D01*
X126304032Y-91336848D01*
X126292327Y-91358185D01*
X126273347Y-91373417D01*
X126262976Y-91385778D01*
X126246976Y-91394582D01*
X126225762Y-91411609D01*
X126205084Y-91417635D01*
X126191008Y-91425382D01*
X126148590Y-91434101D01*
X126143820Y-91435492D01*
X125707984Y-91473623D01*
X125703057Y-91473083D01*
X125659758Y-91471861D01*
X125644545Y-91466675D01*
X125623140Y-91464331D01*
X125599297Y-91451250D01*
X125582005Y-91445356D01*
X125569640Y-91434980D01*
X125548309Y-91423278D01*
X125533078Y-91404301D01*
X125520714Y-91393926D01*
X125511907Y-91377922D01*
X125494885Y-91356713D01*
X125488858Y-91336038D01*
X125481111Y-91321959D01*
X125472391Y-91279541D01*
X125471001Y-91274771D01*
X125426334Y-90764221D01*
X125426872Y-90759306D01*
X125428095Y-90715995D01*
X125433281Y-90700779D01*
X125435626Y-90679376D01*
X125448705Y-90655534D01*
X125454601Y-90638241D01*
X125464977Y-90625875D01*
X125476679Y-90604545D01*
X125495652Y-90589316D01*
X125506029Y-90576951D01*
X125522035Y-90568142D01*
X125543244Y-90551121D01*
X125563915Y-90545096D01*
X125577997Y-90537347D01*
X125620429Y-90528624D01*
X125625186Y-90527238D01*
X126018805Y-90492800D01*
X126057569Y-90489409D01*
X126061022Y-90489107D01*
X126065936Y-90489645D01*
G37*
G36*
X149241342Y-90438060D02*
G01*
X149354381Y-90503323D01*
X149446677Y-90595619D01*
X149511940Y-90708658D01*
X149545722Y-90834737D01*
X149545722Y-90965263D01*
X149511940Y-91091342D01*
X149446677Y-91204381D01*
X149354381Y-91296677D01*
X149241342Y-91361940D01*
X149115263Y-91395722D01*
X148984737Y-91395722D01*
X148858658Y-91361940D01*
X148745619Y-91296677D01*
X148653323Y-91204381D01*
X148588060Y-91091342D01*
X148554278Y-90965263D01*
X148554278Y-90834737D01*
X148588060Y-90708658D01*
X148653323Y-90595619D01*
X148745619Y-90503323D01*
X148858658Y-90438060D01*
X148984737Y-90404278D01*
X149115263Y-90404278D01*
X149241342Y-90438060D01*
G37*
G36*
X151241342Y-90438060D02*
G01*
X151354381Y-90503323D01*
X151446677Y-90595619D01*
X151511940Y-90708658D01*
X151545722Y-90834737D01*
X151545722Y-90965263D01*
X151511940Y-91091342D01*
X151446677Y-91204381D01*
X151354381Y-91296677D01*
X151241342Y-91361940D01*
X151115263Y-91395722D01*
X150984737Y-91395722D01*
X150858658Y-91361940D01*
X150745619Y-91296677D01*
X150653323Y-91204381D01*
X150588060Y-91091342D01*
X150554278Y-90965263D01*
X150554278Y-90834737D01*
X150588060Y-90708658D01*
X150653323Y-90595619D01*
X150745619Y-90503323D01*
X150858658Y-90438060D01*
X150984737Y-90404278D01*
X151115263Y-90404278D01*
X151241342Y-90438060D01*
G37*
G36*
X175879231Y-90424832D02*
G01*
X176183471Y-90446106D01*
X176183479Y-90446107D01*
X176186932Y-90446349D01*
X176191697Y-90447648D01*
X176234290Y-90455633D01*
X176248505Y-90463135D01*
X176269279Y-90468799D01*
X176290779Y-90485446D01*
X176306937Y-90493974D01*
X176317527Y-90506157D01*
X176336766Y-90521053D01*
X176348838Y-90542176D01*
X176359430Y-90554360D01*
X176365626Y-90571548D01*
X176379119Y-90595156D01*
X176381836Y-90616515D01*
X176387287Y-90631636D01*
X176389264Y-90674908D01*
X176389890Y-90679826D01*
X176354140Y-91191077D01*
X176352837Y-91195854D01*
X176344855Y-91238435D01*
X176337354Y-91252646D01*
X176331690Y-91273424D01*
X176315039Y-91294928D01*
X176306514Y-91311082D01*
X176294333Y-91321669D01*
X176279436Y-91340911D01*
X176258309Y-91352985D01*
X176246128Y-91363575D01*
X176228942Y-91369770D01*
X176205333Y-91383264D01*
X176183973Y-91385981D01*
X176168853Y-91391432D01*
X176125582Y-91393409D01*
X176120664Y-91394035D01*
X175705173Y-91364981D01*
X175687690Y-91363759D01*
X175687689Y-91363758D01*
X175684230Y-91363517D01*
X175679454Y-91362215D01*
X175636871Y-91354232D01*
X175622658Y-91346730D01*
X175601883Y-91341067D01*
X175580380Y-91324417D01*
X175564224Y-91315891D01*
X175553633Y-91303708D01*
X175534396Y-91288813D01*
X175522323Y-91267690D01*
X175511731Y-91255505D01*
X175505534Y-91238314D01*
X175492043Y-91214710D01*
X175489326Y-91193353D01*
X175483874Y-91178229D01*
X175481896Y-91134946D01*
X175481272Y-91130040D01*
X175495746Y-90923048D01*
X175516779Y-90622249D01*
X175516780Y-90622240D01*
X175517022Y-90618789D01*
X175518320Y-90614025D01*
X175526306Y-90571430D01*
X175533809Y-90557213D01*
X175539472Y-90536442D01*
X175556118Y-90514943D01*
X175564647Y-90498783D01*
X175576832Y-90488190D01*
X175591726Y-90468955D01*
X175612846Y-90456883D01*
X175625033Y-90446290D01*
X175642226Y-90440091D01*
X175665829Y-90426602D01*
X175687182Y-90423885D01*
X175702308Y-90418433D01*
X175745592Y-90416455D01*
X175750498Y-90415831D01*
X175879231Y-90424832D01*
G37*
G36*
X147241342Y-90338060D02*
G01*
X147354381Y-90403323D01*
X147446677Y-90495619D01*
X147511940Y-90608658D01*
X147545722Y-90734737D01*
X147545722Y-90865263D01*
X147511940Y-90991342D01*
X147446677Y-91104381D01*
X147354381Y-91196677D01*
X147241342Y-91261940D01*
X147115263Y-91295722D01*
X146984737Y-91295722D01*
X146858658Y-91261940D01*
X146745619Y-91196677D01*
X146653323Y-91104381D01*
X146588060Y-90991342D01*
X146554278Y-90865263D01*
X146554278Y-90734737D01*
X146588060Y-90608658D01*
X146653323Y-90495619D01*
X146745619Y-90403323D01*
X146858658Y-90338060D01*
X146984737Y-90304278D01*
X147115263Y-90304278D01*
X147241342Y-90338060D01*
G37*
G36*
X174308069Y-90314966D02*
G01*
X174612309Y-90336240D01*
X174612317Y-90336241D01*
X174615770Y-90336483D01*
X174620535Y-90337782D01*
X174663128Y-90345767D01*
X174677343Y-90353269D01*
X174698117Y-90358933D01*
X174719617Y-90375580D01*
X174735775Y-90384108D01*
X174746365Y-90396291D01*
X174765604Y-90411187D01*
X174777676Y-90432310D01*
X174788268Y-90444494D01*
X174794464Y-90461682D01*
X174807957Y-90485290D01*
X174810674Y-90506649D01*
X174816125Y-90521770D01*
X174818102Y-90565042D01*
X174818728Y-90569960D01*
X174782978Y-91081211D01*
X174781675Y-91085988D01*
X174773693Y-91128569D01*
X174766192Y-91142780D01*
X174760528Y-91163558D01*
X174743877Y-91185062D01*
X174735352Y-91201216D01*
X174723171Y-91211803D01*
X174708274Y-91231045D01*
X174687147Y-91243119D01*
X174674966Y-91253709D01*
X174657780Y-91259904D01*
X174634171Y-91273398D01*
X174612811Y-91276115D01*
X174597691Y-91281566D01*
X174554420Y-91283543D01*
X174549502Y-91284169D01*
X174134011Y-91255115D01*
X174116528Y-91253893D01*
X174116527Y-91253892D01*
X174113068Y-91253651D01*
X174108292Y-91252349D01*
X174065709Y-91244366D01*
X174051496Y-91236864D01*
X174030721Y-91231201D01*
X174009218Y-91214551D01*
X173993062Y-91206025D01*
X173982471Y-91193842D01*
X173963234Y-91178947D01*
X173951161Y-91157824D01*
X173940569Y-91145639D01*
X173934372Y-91128448D01*
X173920881Y-91104844D01*
X173918164Y-91083487D01*
X173912712Y-91068363D01*
X173910734Y-91025080D01*
X173910110Y-91020174D01*
X173920947Y-90865194D01*
X173945617Y-90512383D01*
X173945618Y-90512374D01*
X173945860Y-90508923D01*
X173947158Y-90504159D01*
X173955144Y-90461564D01*
X173962647Y-90447347D01*
X173968310Y-90426576D01*
X173984956Y-90405077D01*
X173993485Y-90388917D01*
X174005670Y-90378324D01*
X174020564Y-90359089D01*
X174041684Y-90347017D01*
X174053871Y-90336424D01*
X174071064Y-90330225D01*
X174094667Y-90316736D01*
X174116020Y-90314019D01*
X174131146Y-90308567D01*
X174174430Y-90306589D01*
X174179336Y-90305965D01*
X174308069Y-90314966D01*
G37*
G36*
X131696930Y-90026915D02*
G01*
X131740241Y-90028138D01*
X131755457Y-90033324D01*
X131776860Y-90035669D01*
X131800699Y-90048747D01*
X131817994Y-90054643D01*
X131830360Y-90065019D01*
X131851691Y-90076722D01*
X131866921Y-90095698D01*
X131879285Y-90106073D01*
X131888091Y-90122075D01*
X131905115Y-90143287D01*
X131911141Y-90163963D01*
X131918888Y-90178040D01*
X131927605Y-90220449D01*
X131928999Y-90225229D01*
X131973666Y-90735779D01*
X131973126Y-90740705D01*
X131971904Y-90784004D01*
X131966718Y-90799214D01*
X131964374Y-90820624D01*
X131951290Y-90844472D01*
X131945398Y-90861758D01*
X131935026Y-90874118D01*
X131923321Y-90895455D01*
X131904341Y-90910687D01*
X131893970Y-90923048D01*
X131877970Y-90931852D01*
X131856756Y-90948879D01*
X131836078Y-90954905D01*
X131822002Y-90962652D01*
X131779584Y-90971371D01*
X131774814Y-90972762D01*
X131338978Y-91010893D01*
X131334051Y-91010353D01*
X131290752Y-91009131D01*
X131275539Y-91003945D01*
X131254134Y-91001601D01*
X131230291Y-90988520D01*
X131212999Y-90982626D01*
X131200634Y-90972250D01*
X131179303Y-90960548D01*
X131164072Y-90941571D01*
X131151708Y-90931196D01*
X131142901Y-90915192D01*
X131125879Y-90893983D01*
X131119852Y-90873308D01*
X131112105Y-90859229D01*
X131103385Y-90816811D01*
X131101995Y-90812041D01*
X131057328Y-90301491D01*
X131057866Y-90296576D01*
X131059089Y-90253265D01*
X131064275Y-90238049D01*
X131066620Y-90216646D01*
X131079699Y-90192804D01*
X131085595Y-90175511D01*
X131095971Y-90163145D01*
X131107673Y-90141815D01*
X131126646Y-90126586D01*
X131137023Y-90114221D01*
X131153029Y-90105412D01*
X131174238Y-90088391D01*
X131194909Y-90082366D01*
X131208991Y-90074617D01*
X131251423Y-90065894D01*
X131256180Y-90064508D01*
X131649799Y-90030070D01*
X131688563Y-90026679D01*
X131692016Y-90026377D01*
X131696930Y-90026915D01*
G37*
G36*
X168470116Y-89915012D02*
G01*
X168663718Y-89931950D01*
X168663724Y-89931951D01*
X168667172Y-89932253D01*
X168671913Y-89933635D01*
X168714360Y-89942362D01*
X168728440Y-89950110D01*
X168749114Y-89956136D01*
X168770324Y-89973159D01*
X168786328Y-89981966D01*
X168796702Y-89994329D01*
X168815679Y-90009560D01*
X168827382Y-90030893D01*
X168837756Y-90043256D01*
X168843649Y-90060544D01*
X168856732Y-90084391D01*
X168859076Y-90105797D01*
X168864262Y-90121009D01*
X168865483Y-90164299D01*
X168866024Y-90169236D01*
X168821357Y-90679786D01*
X168819968Y-90684550D01*
X168811246Y-90726974D01*
X168803500Y-90741049D01*
X168797473Y-90761728D01*
X168780447Y-90782941D01*
X168771643Y-90798941D01*
X168759281Y-90809313D01*
X168744049Y-90828293D01*
X168722715Y-90839996D01*
X168710352Y-90850371D01*
X168693061Y-90856265D01*
X168669218Y-90869346D01*
X168647812Y-90871690D01*
X168632600Y-90876876D01*
X168589311Y-90878097D01*
X168584374Y-90878638D01*
X168148538Y-90840507D01*
X168143786Y-90839122D01*
X168101349Y-90830397D01*
X168087271Y-90822650D01*
X168066596Y-90816624D01*
X168045383Y-90799599D01*
X168029381Y-90790793D01*
X168019007Y-90778430D01*
X168000031Y-90763200D01*
X167988327Y-90741866D01*
X167977953Y-90729503D01*
X167972058Y-90712212D01*
X167958978Y-90688369D01*
X167956633Y-90666965D01*
X167951447Y-90651750D01*
X167950225Y-90608448D01*
X167949686Y-90603524D01*
X167994353Y-90092974D01*
X167995737Y-90088223D01*
X168004463Y-90045785D01*
X168012211Y-90031704D01*
X168018237Y-90011032D01*
X168035257Y-89989824D01*
X168044066Y-89973818D01*
X168056433Y-89963440D01*
X168071661Y-89944467D01*
X168092988Y-89932766D01*
X168105357Y-89922388D01*
X168122654Y-89916491D01*
X168146492Y-89903414D01*
X168167892Y-89901070D01*
X168183109Y-89895883D01*
X168226411Y-89894661D01*
X168231336Y-89894122D01*
X168470116Y-89915012D01*
G37*
G36*
X133265936Y-89889645D02*
G01*
X133309247Y-89890868D01*
X133324463Y-89896054D01*
X133345866Y-89898399D01*
X133369705Y-89911477D01*
X133387000Y-89917373D01*
X133399366Y-89927749D01*
X133420697Y-89939452D01*
X133435927Y-89958428D01*
X133448291Y-89968803D01*
X133457097Y-89984805D01*
X133474121Y-90006017D01*
X133480147Y-90026693D01*
X133487894Y-90040770D01*
X133496611Y-90083179D01*
X133498005Y-90087959D01*
X133542672Y-90598509D01*
X133542132Y-90603435D01*
X133540910Y-90646734D01*
X133535724Y-90661944D01*
X133533380Y-90683354D01*
X133520296Y-90707202D01*
X133514404Y-90724488D01*
X133504032Y-90736848D01*
X133492327Y-90758185D01*
X133473347Y-90773417D01*
X133462976Y-90785778D01*
X133446976Y-90794582D01*
X133425762Y-90811609D01*
X133405084Y-90817635D01*
X133391008Y-90825382D01*
X133348590Y-90834101D01*
X133343820Y-90835492D01*
X132907984Y-90873623D01*
X132903057Y-90873083D01*
X132859758Y-90871861D01*
X132844545Y-90866675D01*
X132823140Y-90864331D01*
X132799297Y-90851250D01*
X132782005Y-90845356D01*
X132769640Y-90834980D01*
X132748309Y-90823278D01*
X132733078Y-90804301D01*
X132720714Y-90793926D01*
X132711907Y-90777922D01*
X132694885Y-90756713D01*
X132688858Y-90736038D01*
X132681111Y-90721959D01*
X132672391Y-90679541D01*
X132671001Y-90674771D01*
X132626334Y-90164221D01*
X132626872Y-90159306D01*
X132628095Y-90115995D01*
X132633281Y-90100779D01*
X132635626Y-90079376D01*
X132648705Y-90055534D01*
X132654601Y-90038241D01*
X132664977Y-90025875D01*
X132676679Y-90004545D01*
X132695652Y-89989316D01*
X132706029Y-89976951D01*
X132722035Y-89968142D01*
X132743244Y-89951121D01*
X132763915Y-89945096D01*
X132777997Y-89937347D01*
X132820429Y-89928624D01*
X132825186Y-89927238D01*
X133218805Y-89892800D01*
X133257569Y-89889409D01*
X133261022Y-89889107D01*
X133265936Y-89889645D01*
G37*
G36*
X155531055Y-89809586D02*
G01*
X155595939Y-89852941D01*
X155639294Y-89917825D01*
X155654518Y-89994362D01*
X155654518Y-90544362D01*
X155639294Y-90620899D01*
X155595939Y-90685783D01*
X155531055Y-90729138D01*
X155454518Y-90744362D01*
X155054518Y-90744362D01*
X154977981Y-90729138D01*
X154913097Y-90685783D01*
X154869742Y-90620899D01*
X154854518Y-90544362D01*
X154854518Y-89994362D01*
X154869742Y-89917825D01*
X154913097Y-89852941D01*
X154977981Y-89809586D01*
X155054518Y-89794362D01*
X155454518Y-89794362D01*
X155531055Y-89809586D01*
G37*
G36*
X157181055Y-89809586D02*
G01*
X157245939Y-89852941D01*
X157289294Y-89917825D01*
X157304518Y-89994362D01*
X157304518Y-90544362D01*
X157289294Y-90620899D01*
X157245939Y-90685783D01*
X157181055Y-90729138D01*
X157104518Y-90744362D01*
X156704518Y-90744362D01*
X156627981Y-90729138D01*
X156563097Y-90685783D01*
X156519742Y-90620899D01*
X156504518Y-90544362D01*
X156504518Y-89994362D01*
X156519742Y-89917825D01*
X156563097Y-89852941D01*
X156627981Y-89809586D01*
X156704518Y-89794362D01*
X157104518Y-89794362D01*
X157181055Y-89809586D01*
G37*
G36*
X166901110Y-89777742D02*
G01*
X167094712Y-89794680D01*
X167094718Y-89794681D01*
X167098166Y-89794983D01*
X167102907Y-89796365D01*
X167145354Y-89805092D01*
X167159434Y-89812840D01*
X167180108Y-89818866D01*
X167201318Y-89835889D01*
X167217322Y-89844696D01*
X167227696Y-89857059D01*
X167246673Y-89872290D01*
X167258376Y-89893623D01*
X167268750Y-89905986D01*
X167274643Y-89923274D01*
X167287726Y-89947121D01*
X167290070Y-89968527D01*
X167295256Y-89983739D01*
X167296477Y-90027029D01*
X167297018Y-90031966D01*
X167252351Y-90542516D01*
X167250962Y-90547280D01*
X167242240Y-90589704D01*
X167234494Y-90603779D01*
X167228467Y-90624458D01*
X167211441Y-90645671D01*
X167202637Y-90661671D01*
X167190275Y-90672043D01*
X167175043Y-90691023D01*
X167153709Y-90702726D01*
X167141346Y-90713101D01*
X167124055Y-90718995D01*
X167100212Y-90732076D01*
X167078806Y-90734420D01*
X167063594Y-90739606D01*
X167020305Y-90740827D01*
X167015368Y-90741368D01*
X166579532Y-90703237D01*
X166574780Y-90701852D01*
X166532343Y-90693127D01*
X166518265Y-90685380D01*
X166497590Y-90679354D01*
X166476377Y-90662329D01*
X166460375Y-90653523D01*
X166450001Y-90641160D01*
X166431025Y-90625930D01*
X166419321Y-90604596D01*
X166408947Y-90592233D01*
X166403052Y-90574942D01*
X166389972Y-90551099D01*
X166387627Y-90529695D01*
X166382441Y-90514480D01*
X166381219Y-90471178D01*
X166380680Y-90466254D01*
X166425347Y-89955704D01*
X166426731Y-89950953D01*
X166435457Y-89908515D01*
X166443205Y-89894434D01*
X166449231Y-89873762D01*
X166466251Y-89852554D01*
X166475060Y-89836548D01*
X166487427Y-89826170D01*
X166502655Y-89807197D01*
X166523982Y-89795496D01*
X166536351Y-89785118D01*
X166553648Y-89779221D01*
X166577486Y-89766144D01*
X166598886Y-89763800D01*
X166614103Y-89758613D01*
X166657405Y-89757391D01*
X166662330Y-89756852D01*
X166901110Y-89777742D01*
G37*
G36*
X139000793Y-88701416D02*
G01*
X139025114Y-88700886D01*
X139047789Y-88709704D01*
X139063684Y-88712507D01*
X139079311Y-88721962D01*
X139104663Y-88731821D01*
X139120219Y-88746713D01*
X139133968Y-88755032D01*
X139162732Y-88787411D01*
X139166318Y-88790844D01*
X139460276Y-89210659D01*
X139462273Y-89215199D01*
X139482863Y-89253306D01*
X139485976Y-89269066D01*
X139494652Y-89288782D01*
X139495245Y-89315980D01*
X139498784Y-89333891D01*
X139495982Y-89349777D01*
X139496514Y-89374115D01*
X139487692Y-89396800D01*
X139484891Y-89412687D01*
X139475438Y-89428309D01*
X139465579Y-89453663D01*
X139450683Y-89469222D01*
X139442367Y-89482968D01*
X139409993Y-89511726D01*
X139406556Y-89515318D01*
X139048177Y-89766258D01*
X139043631Y-89768258D01*
X139005529Y-89788845D01*
X138989768Y-89791958D01*
X138970054Y-89800634D01*
X138942860Y-89801227D01*
X138924941Y-89804768D01*
X138909046Y-89801965D01*
X138884722Y-89802496D01*
X138862042Y-89793676D01*
X138846151Y-89790874D01*
X138830526Y-89781420D01*
X138805173Y-89771561D01*
X138789615Y-89756667D01*
X138775867Y-89748349D01*
X138747102Y-89715969D01*
X138743518Y-89712538D01*
X138462403Y-89311065D01*
X138451552Y-89295568D01*
X138451551Y-89295567D01*
X138449560Y-89292723D01*
X138447564Y-89288187D01*
X138426972Y-89250075D01*
X138423857Y-89234311D01*
X138415184Y-89214600D01*
X138414590Y-89187405D01*
X138411051Y-89169490D01*
X138413852Y-89153598D01*
X138413322Y-89129267D01*
X138422141Y-89106587D01*
X138424944Y-89090694D01*
X138434400Y-89075065D01*
X138444257Y-89049719D01*
X138459147Y-89034164D01*
X138467468Y-89020413D01*
X138499854Y-88991642D01*
X138503280Y-88988064D01*
X138521937Y-88975000D01*
X138858813Y-88739116D01*
X138858817Y-88739113D01*
X138861659Y-88737124D01*
X138866189Y-88735130D01*
X138904306Y-88714536D01*
X138920072Y-88711420D01*
X138939782Y-88702748D01*
X138966968Y-88702154D01*
X138984894Y-88698613D01*
X139000793Y-88701416D01*
G37*
G36*
X161033031Y-88602155D02*
G01*
X161060219Y-88602749D01*
X161079927Y-88611421D01*
X161095697Y-88614537D01*
X161133815Y-88635133D01*
X161138342Y-88637125D01*
X161170212Y-88659440D01*
X161493875Y-88886071D01*
X161493881Y-88886076D01*
X161496721Y-88888065D01*
X161500141Y-88891637D01*
X161532532Y-88920413D01*
X161540851Y-88934163D01*
X161555744Y-88949720D01*
X161565602Y-88975070D01*
X161575056Y-88990695D01*
X161577857Y-89006583D01*
X161586679Y-89029268D01*
X161586147Y-89053604D01*
X161588949Y-89069491D01*
X161585410Y-89087401D01*
X161584817Y-89114601D01*
X161576141Y-89134316D01*
X161573028Y-89150077D01*
X161552443Y-89188173D01*
X161550441Y-89192724D01*
X161256483Y-89612539D01*
X161252901Y-89615967D01*
X161224136Y-89648349D01*
X161210385Y-89656668D01*
X161194828Y-89671562D01*
X161169472Y-89681422D01*
X161153849Y-89690875D01*
X161137959Y-89693676D01*
X161115279Y-89702497D01*
X161090953Y-89701966D01*
X161075059Y-89704769D01*
X161057138Y-89701228D01*
X161029947Y-89700635D01*
X161010234Y-89691961D01*
X160994468Y-89688846D01*
X160956355Y-89668252D01*
X160951824Y-89666259D01*
X160839547Y-89587642D01*
X160596290Y-89417312D01*
X160596285Y-89417307D01*
X160593445Y-89415319D01*
X160590023Y-89411745D01*
X160557633Y-89382970D01*
X160549313Y-89369219D01*
X160534422Y-89353664D01*
X160524564Y-89328315D01*
X160515109Y-89312688D01*
X160512307Y-89296796D01*
X160503487Y-89274116D01*
X160504017Y-89249783D01*
X160501216Y-89233892D01*
X160504755Y-89215975D01*
X160505349Y-89188783D01*
X160514022Y-89169072D01*
X160517137Y-89153306D01*
X160537729Y-89115194D01*
X160539725Y-89110660D01*
X160735514Y-88831045D01*
X160831694Y-88693685D01*
X160831695Y-88693682D01*
X160833683Y-88690845D01*
X160837251Y-88687428D01*
X160866029Y-88655034D01*
X160879784Y-88646711D01*
X160895338Y-88631822D01*
X160920686Y-88621964D01*
X160936316Y-88612508D01*
X160952211Y-88609704D01*
X160974887Y-88600887D01*
X160999206Y-88601417D01*
X161015106Y-88598614D01*
X161033031Y-88602155D01*
G37*
G36*
X146182403Y-89061418D02*
G01*
X146231066Y-89093934D01*
X146263582Y-89142597D01*
X146275000Y-89200000D01*
X146275000Y-89500000D01*
X146263582Y-89557403D01*
X146231066Y-89606066D01*
X146182403Y-89638582D01*
X146125000Y-89650000D01*
X144950000Y-89650000D01*
X144892597Y-89638582D01*
X144843934Y-89606066D01*
X144811418Y-89557403D01*
X144800000Y-89500000D01*
X144800000Y-89200000D01*
X144811418Y-89142597D01*
X144843934Y-89093934D01*
X144892597Y-89061418D01*
X144950000Y-89050000D01*
X146125000Y-89050000D01*
X146182403Y-89061418D01*
G37*
G36*
X149671140Y-88695006D02*
G01*
X149687361Y-88705844D01*
X149758072Y-88776555D01*
X149768910Y-88792776D01*
X149772716Y-88811910D01*
X149768910Y-88831045D01*
X149758072Y-88847266D01*
X149227742Y-89377596D01*
X149211521Y-89388434D01*
X149192386Y-89392240D01*
X149173252Y-89388434D01*
X149157031Y-89377596D01*
X149086320Y-89306885D01*
X149075482Y-89290664D01*
X149071676Y-89271530D01*
X149075482Y-89252395D01*
X149086320Y-89236174D01*
X149616650Y-88705844D01*
X149632871Y-88695006D01*
X149652006Y-88691200D01*
X149671140Y-88695006D01*
G37*
G36*
X150130759Y-88695006D02*
G01*
X150146980Y-88705844D01*
X150677310Y-89236174D01*
X150688148Y-89252395D01*
X150691954Y-89271530D01*
X150688148Y-89290664D01*
X150677310Y-89306885D01*
X150606599Y-89377596D01*
X150590378Y-89388434D01*
X150571244Y-89392240D01*
X150552109Y-89388434D01*
X150535888Y-89377596D01*
X150005558Y-88847266D01*
X149994720Y-88831045D01*
X149990914Y-88811910D01*
X149994720Y-88792776D01*
X150005558Y-88776555D01*
X150040913Y-88741200D01*
X150072088Y-88710024D01*
X150072091Y-88710021D01*
X150076269Y-88705844D01*
X150092490Y-88695006D01*
X150111624Y-88691200D01*
X150130759Y-88695006D01*
G37*
G36*
X153951537Y-88390224D02*
G01*
X154016421Y-88433579D01*
X154059776Y-88498463D01*
X154075000Y-88575000D01*
X154075000Y-88975000D01*
X154059776Y-89051537D01*
X154016421Y-89116421D01*
X153951537Y-89159776D01*
X153875000Y-89175000D01*
X153325000Y-89175000D01*
X153248463Y-89159776D01*
X153183579Y-89116421D01*
X153140224Y-89051537D01*
X153125000Y-88975000D01*
X153125000Y-88575000D01*
X153140224Y-88498463D01*
X153183579Y-88433579D01*
X153248463Y-88390224D01*
X153325000Y-88375000D01*
X153875000Y-88375000D01*
X153951537Y-88390224D01*
G37*
G36*
X149388297Y-88412164D02*
G01*
X149404518Y-88423002D01*
X149475229Y-88493713D01*
X149486067Y-88509934D01*
X149489873Y-88529068D01*
X149486067Y-88548203D01*
X149475229Y-88564424D01*
X148944899Y-89094754D01*
X148928678Y-89105592D01*
X148909543Y-89109398D01*
X148890409Y-89105592D01*
X148874188Y-89094754D01*
X148803477Y-89024043D01*
X148792639Y-89007822D01*
X148788833Y-88988688D01*
X148792639Y-88969553D01*
X148803477Y-88953332D01*
X149333807Y-88423002D01*
X149350028Y-88412164D01*
X149369163Y-88408358D01*
X149388297Y-88412164D01*
G37*
G36*
X150413602Y-88412164D02*
G01*
X150429823Y-88423002D01*
X150960153Y-88953332D01*
X150970991Y-88969553D01*
X150974797Y-88988688D01*
X150970991Y-89007822D01*
X150960153Y-89024043D01*
X150889442Y-89094754D01*
X150873221Y-89105592D01*
X150854087Y-89109398D01*
X150834952Y-89105592D01*
X150818731Y-89094754D01*
X150288401Y-88564424D01*
X150277563Y-88548203D01*
X150273757Y-88529068D01*
X150277563Y-88509934D01*
X150288401Y-88493713D01*
X150319578Y-88462536D01*
X150354931Y-88427182D01*
X150354934Y-88427179D01*
X150359112Y-88423002D01*
X150375333Y-88412164D01*
X150394467Y-88408358D01*
X150413602Y-88412164D01*
G37*
G36*
X140290957Y-87798034D02*
G01*
X140315278Y-87797504D01*
X140337953Y-87806322D01*
X140353848Y-87809125D01*
X140369475Y-87818580D01*
X140394827Y-87828439D01*
X140410383Y-87843331D01*
X140424132Y-87851650D01*
X140452896Y-87884029D01*
X140456482Y-87887462D01*
X140750440Y-88307277D01*
X140752437Y-88311817D01*
X140773027Y-88349924D01*
X140776140Y-88365684D01*
X140784816Y-88385400D01*
X140785409Y-88412598D01*
X140788948Y-88430509D01*
X140786146Y-88446395D01*
X140786678Y-88470733D01*
X140777856Y-88493418D01*
X140775055Y-88509305D01*
X140765602Y-88524927D01*
X140755743Y-88550281D01*
X140740847Y-88565840D01*
X140732531Y-88579586D01*
X140700157Y-88608344D01*
X140696720Y-88611936D01*
X140338341Y-88862876D01*
X140333795Y-88864876D01*
X140295693Y-88885463D01*
X140279932Y-88888576D01*
X140260218Y-88897252D01*
X140233024Y-88897845D01*
X140215105Y-88901386D01*
X140199210Y-88898583D01*
X140174886Y-88899114D01*
X140152206Y-88890294D01*
X140136315Y-88887492D01*
X140120690Y-88878038D01*
X140095337Y-88868179D01*
X140079779Y-88853285D01*
X140066031Y-88844967D01*
X140037266Y-88812587D01*
X140033682Y-88809156D01*
X139782394Y-88450280D01*
X139741716Y-88392186D01*
X139741715Y-88392185D01*
X139739724Y-88389341D01*
X139737728Y-88384805D01*
X139717136Y-88346693D01*
X139714021Y-88330929D01*
X139705348Y-88311218D01*
X139704754Y-88284023D01*
X139701215Y-88266108D01*
X139704016Y-88250216D01*
X139703486Y-88225885D01*
X139712305Y-88203205D01*
X139715108Y-88187312D01*
X139724564Y-88171683D01*
X139734421Y-88146337D01*
X139749311Y-88130782D01*
X139757632Y-88117031D01*
X139790018Y-88088260D01*
X139793444Y-88084682D01*
X139796290Y-88082689D01*
X140148977Y-87835734D01*
X140148981Y-87835731D01*
X140151823Y-87833742D01*
X140156353Y-87831748D01*
X140194470Y-87811154D01*
X140210236Y-87808038D01*
X140229946Y-87799366D01*
X140257132Y-87798772D01*
X140275058Y-87795231D01*
X140290957Y-87798034D01*
G37*
G36*
X149105454Y-88129321D02*
G01*
X149121675Y-88140159D01*
X149192386Y-88210870D01*
X149203224Y-88227091D01*
X149207030Y-88246225D01*
X149203224Y-88265360D01*
X149192386Y-88281581D01*
X148662056Y-88811911D01*
X148645835Y-88822749D01*
X148626700Y-88826555D01*
X148607566Y-88822749D01*
X148591345Y-88811911D01*
X148520634Y-88741200D01*
X148509796Y-88724979D01*
X148505990Y-88705845D01*
X148509796Y-88686710D01*
X148520634Y-88670489D01*
X149050964Y-88140159D01*
X149067185Y-88129321D01*
X149086320Y-88125515D01*
X149105454Y-88129321D01*
G37*
G36*
X150696445Y-88129321D02*
G01*
X150712666Y-88140159D01*
X151242996Y-88670489D01*
X151253834Y-88686710D01*
X151257640Y-88705845D01*
X151253834Y-88724979D01*
X151242996Y-88741200D01*
X151172285Y-88811911D01*
X151156064Y-88822749D01*
X151136930Y-88826555D01*
X151117795Y-88822749D01*
X151101574Y-88811911D01*
X150571244Y-88281581D01*
X150560406Y-88265360D01*
X150556600Y-88246225D01*
X150560406Y-88227091D01*
X150571244Y-88210870D01*
X150602421Y-88179693D01*
X150637774Y-88144339D01*
X150637777Y-88144336D01*
X150641955Y-88140159D01*
X150658176Y-88129321D01*
X150677310Y-88125515D01*
X150696445Y-88129321D01*
G37*
G36*
X159742865Y-87698771D02*
G01*
X159770053Y-87699365D01*
X159789761Y-87708037D01*
X159805531Y-87711153D01*
X159843649Y-87731749D01*
X159848176Y-87733741D01*
X159851015Y-87735729D01*
X160203709Y-87982687D01*
X160203715Y-87982692D01*
X160206555Y-87984681D01*
X160209975Y-87988253D01*
X160242366Y-88017029D01*
X160250685Y-88030779D01*
X160265578Y-88046336D01*
X160275436Y-88071686D01*
X160284890Y-88087311D01*
X160287691Y-88103199D01*
X160296513Y-88125884D01*
X160295981Y-88150220D01*
X160298783Y-88166107D01*
X160295244Y-88184017D01*
X160294651Y-88211217D01*
X160285975Y-88230932D01*
X160282862Y-88246693D01*
X160262277Y-88284789D01*
X160260275Y-88289340D01*
X159966317Y-88709155D01*
X159962735Y-88712583D01*
X159933970Y-88744965D01*
X159920219Y-88753284D01*
X159904662Y-88768178D01*
X159879306Y-88778038D01*
X159863683Y-88787491D01*
X159847793Y-88790292D01*
X159825113Y-88799113D01*
X159800787Y-88798582D01*
X159784893Y-88801385D01*
X159766972Y-88797844D01*
X159739781Y-88797251D01*
X159720068Y-88788577D01*
X159704302Y-88785462D01*
X159666189Y-88764868D01*
X159661658Y-88762875D01*
X159507645Y-88655034D01*
X159306124Y-88513928D01*
X159306119Y-88513923D01*
X159303279Y-88511935D01*
X159299857Y-88508361D01*
X159267467Y-88479586D01*
X159259147Y-88465835D01*
X159244256Y-88450280D01*
X159234398Y-88424931D01*
X159224943Y-88409304D01*
X159222141Y-88393412D01*
X159213321Y-88370732D01*
X159213851Y-88346399D01*
X159211050Y-88330508D01*
X159214589Y-88312591D01*
X159215183Y-88285399D01*
X159223856Y-88265688D01*
X159226971Y-88249922D01*
X159247563Y-88211810D01*
X159249559Y-88207276D01*
X159420336Y-87963382D01*
X159541528Y-87790301D01*
X159541529Y-87790298D01*
X159543517Y-87787461D01*
X159547085Y-87784044D01*
X159575863Y-87751650D01*
X159589618Y-87743327D01*
X159605172Y-87728438D01*
X159630520Y-87718580D01*
X159646150Y-87709124D01*
X159662045Y-87706320D01*
X159684721Y-87697503D01*
X159709040Y-87698033D01*
X159724940Y-87695230D01*
X159742865Y-87698771D01*
G37*
G36*
X144307403Y-88111418D02*
G01*
X144356066Y-88143934D01*
X144388582Y-88192597D01*
X144400000Y-88250000D01*
X144400000Y-88550000D01*
X144388582Y-88607403D01*
X144356066Y-88656066D01*
X144307403Y-88688582D01*
X144250000Y-88700000D01*
X143075000Y-88700000D01*
X143017597Y-88688582D01*
X142968934Y-88656066D01*
X142936418Y-88607403D01*
X142925000Y-88550000D01*
X142925000Y-88250000D01*
X142936418Y-88192597D01*
X142968934Y-88143934D01*
X143017597Y-88111418D01*
X143075000Y-88100000D01*
X144250000Y-88100000D01*
X144307403Y-88111418D01*
G37*
G36*
X151048541Y-87450730D02*
G01*
X149881815Y-88617456D01*
X148715089Y-87450730D01*
X149550116Y-86615703D01*
X149877638Y-86288180D01*
X149877641Y-86288177D01*
X149881815Y-86284004D01*
X151048541Y-87450730D01*
G37*
G36*
X148822611Y-87846478D02*
G01*
X148838832Y-87857316D01*
X148909543Y-87928027D01*
X148920381Y-87944248D01*
X148924187Y-87963382D01*
X148920381Y-87982517D01*
X148909543Y-87998738D01*
X148379213Y-88529068D01*
X148362992Y-88539906D01*
X148343857Y-88543712D01*
X148324723Y-88539906D01*
X148308502Y-88529068D01*
X148237791Y-88458357D01*
X148226953Y-88442136D01*
X148223147Y-88423002D01*
X148226953Y-88403867D01*
X148237791Y-88387646D01*
X148768121Y-87857316D01*
X148784342Y-87846478D01*
X148803477Y-87842672D01*
X148822611Y-87846478D01*
G37*
G36*
X150979288Y-87846478D02*
G01*
X150995509Y-87857316D01*
X151525839Y-88387646D01*
X151536677Y-88403867D01*
X151540483Y-88423002D01*
X151536677Y-88442136D01*
X151525839Y-88458357D01*
X151455128Y-88529068D01*
X151438907Y-88539906D01*
X151419773Y-88543712D01*
X151400638Y-88539906D01*
X151384417Y-88529068D01*
X150854087Y-87998738D01*
X150843249Y-87982517D01*
X150839443Y-87963382D01*
X150843249Y-87944248D01*
X150854087Y-87928027D01*
X150858268Y-87923846D01*
X150920617Y-87861496D01*
X150920620Y-87861493D01*
X150924798Y-87857316D01*
X150941019Y-87846478D01*
X150960153Y-87842672D01*
X150979288Y-87846478D01*
G37*
G36*
X155504518Y-88369362D02*
G01*
X155154518Y-88369362D01*
X155154518Y-87994362D01*
X155504518Y-87994362D01*
X155504518Y-88369362D01*
G37*
G36*
X156004518Y-88369362D02*
G01*
X155654518Y-88369362D01*
X155654518Y-87994362D01*
X156004518Y-87994362D01*
X156004518Y-88369362D01*
G37*
G36*
X156504518Y-88369362D02*
G01*
X156154518Y-88369362D01*
X156154518Y-87994362D01*
X156504518Y-87994362D01*
X156504518Y-88369362D01*
G37*
G36*
X157004518Y-88369362D02*
G01*
X156654518Y-88369362D01*
X156654518Y-87994362D01*
X157004518Y-87994362D01*
X157004518Y-88369362D01*
G37*
G36*
X148539769Y-87563635D02*
G01*
X148555990Y-87574473D01*
X148626701Y-87645184D01*
X148637539Y-87661405D01*
X148641345Y-87680539D01*
X148637539Y-87699674D01*
X148626701Y-87715895D01*
X148096371Y-88246225D01*
X148080150Y-88257063D01*
X148061015Y-88260869D01*
X148041881Y-88257063D01*
X148025660Y-88246225D01*
X147954949Y-88175514D01*
X147944111Y-88159293D01*
X147940305Y-88140159D01*
X147944111Y-88121024D01*
X147954949Y-88104803D01*
X148485279Y-87574473D01*
X148501500Y-87563635D01*
X148520635Y-87559829D01*
X148539769Y-87563635D01*
G37*
G36*
X151262130Y-87563635D02*
G01*
X151278351Y-87574473D01*
X151808681Y-88104803D01*
X151819519Y-88121024D01*
X151823325Y-88140159D01*
X151819519Y-88159293D01*
X151808681Y-88175514D01*
X151737970Y-88246225D01*
X151721749Y-88257063D01*
X151702615Y-88260869D01*
X151683480Y-88257063D01*
X151667259Y-88246225D01*
X151136929Y-87715895D01*
X151126091Y-87699674D01*
X151122285Y-87680539D01*
X151126091Y-87661405D01*
X151136929Y-87645184D01*
X151141110Y-87641003D01*
X151203459Y-87578653D01*
X151203462Y-87578650D01*
X151207640Y-87574473D01*
X151223861Y-87563635D01*
X151242995Y-87559829D01*
X151262130Y-87563635D01*
G37*
G36*
X155504518Y-87844362D02*
G01*
X155129518Y-87844362D01*
X155129518Y-87494362D01*
X155504518Y-87494362D01*
X155504518Y-87844362D01*
G37*
G36*
X157029518Y-87844362D02*
G01*
X156654518Y-87844362D01*
X156654518Y-87494362D01*
X157029518Y-87494362D01*
X157029518Y-87844362D01*
G37*
G36*
X146182403Y-87161418D02*
G01*
X146231066Y-87193934D01*
X146263582Y-87242597D01*
X146275000Y-87300000D01*
X146275000Y-87600000D01*
X146263582Y-87657403D01*
X146231066Y-87706066D01*
X146182403Y-87738582D01*
X146125000Y-87750000D01*
X144950000Y-87750000D01*
X144892597Y-87738582D01*
X144843934Y-87706066D01*
X144811418Y-87657403D01*
X144800000Y-87600000D01*
X144800000Y-87300000D01*
X144811418Y-87242597D01*
X144843934Y-87193934D01*
X144892597Y-87161418D01*
X144950000Y-87150000D01*
X146125000Y-87150000D01*
X146182403Y-87161418D01*
G37*
G36*
X153951537Y-86740224D02*
G01*
X154016421Y-86783579D01*
X154059776Y-86848463D01*
X154075000Y-86925000D01*
X154075000Y-87325000D01*
X154059776Y-87401537D01*
X154016421Y-87466421D01*
X153951537Y-87509776D01*
X153875000Y-87525000D01*
X153325000Y-87525000D01*
X153248463Y-87509776D01*
X153183579Y-87466421D01*
X153140224Y-87401537D01*
X153125000Y-87325000D01*
X153125000Y-86925000D01*
X153140224Y-86848463D01*
X153183579Y-86783579D01*
X153248463Y-86740224D01*
X153325000Y-86725000D01*
X153875000Y-86725000D01*
X153951537Y-86740224D01*
G37*
G36*
X155504518Y-87344362D02*
G01*
X155129518Y-87344362D01*
X155129518Y-86994362D01*
X155504518Y-86994362D01*
X155504518Y-87344362D01*
G37*
G36*
X157029518Y-87344362D02*
G01*
X156654518Y-87344362D01*
X156654518Y-86994362D01*
X157029518Y-86994362D01*
X157029518Y-87344362D01*
G37*
G36*
X148080150Y-86644397D02*
G01*
X148096371Y-86655235D01*
X148626701Y-87185565D01*
X148637539Y-87201786D01*
X148641345Y-87220921D01*
X148637539Y-87240055D01*
X148626701Y-87256276D01*
X148555990Y-87326987D01*
X148539769Y-87337825D01*
X148520635Y-87341631D01*
X148501500Y-87337825D01*
X148485279Y-87326987D01*
X147954949Y-86796657D01*
X147944111Y-86780436D01*
X147940305Y-86761301D01*
X147944111Y-86742167D01*
X147954949Y-86725946D01*
X147986126Y-86694769D01*
X148021479Y-86659415D01*
X148021482Y-86659412D01*
X148025660Y-86655235D01*
X148041881Y-86644397D01*
X148061015Y-86640591D01*
X148080150Y-86644397D01*
G37*
G36*
X151721749Y-86644397D02*
G01*
X151737970Y-86655235D01*
X151808681Y-86725946D01*
X151819519Y-86742167D01*
X151823325Y-86761301D01*
X151819519Y-86780436D01*
X151808681Y-86796657D01*
X151278351Y-87326987D01*
X151262130Y-87337825D01*
X151242995Y-87341631D01*
X151223861Y-87337825D01*
X151207640Y-87326987D01*
X151136929Y-87256276D01*
X151126091Y-87240055D01*
X151122285Y-87220921D01*
X151126091Y-87201786D01*
X151136929Y-87185565D01*
X151667259Y-86655235D01*
X151683480Y-86644397D01*
X151702615Y-86640591D01*
X151721749Y-86644397D01*
G37*
G36*
X148362992Y-86361554D02*
G01*
X148379213Y-86372392D01*
X148909543Y-86902722D01*
X148920381Y-86918943D01*
X148924187Y-86938078D01*
X148920381Y-86957212D01*
X148909543Y-86973433D01*
X148838832Y-87044144D01*
X148822611Y-87054982D01*
X148803477Y-87058788D01*
X148784342Y-87054982D01*
X148768121Y-87044144D01*
X148237791Y-86513814D01*
X148226953Y-86497593D01*
X148223147Y-86478458D01*
X148226953Y-86459324D01*
X148237791Y-86443103D01*
X148268968Y-86411926D01*
X148304321Y-86376572D01*
X148304324Y-86376569D01*
X148308502Y-86372392D01*
X148324723Y-86361554D01*
X148343857Y-86357748D01*
X148362992Y-86361554D01*
G37*
G36*
X151438907Y-86361554D02*
G01*
X151455128Y-86372392D01*
X151525839Y-86443103D01*
X151536677Y-86459324D01*
X151540483Y-86478458D01*
X151536677Y-86497593D01*
X151525839Y-86513814D01*
X150995509Y-87044144D01*
X150979288Y-87054982D01*
X150960153Y-87058788D01*
X150941019Y-87054982D01*
X150924798Y-87044144D01*
X150854087Y-86973433D01*
X150843249Y-86957212D01*
X150839443Y-86938078D01*
X150843249Y-86918943D01*
X150854087Y-86902722D01*
X151384417Y-86372392D01*
X151400638Y-86361554D01*
X151419773Y-86357748D01*
X151438907Y-86361554D01*
G37*
G36*
X155504518Y-86844362D02*
G01*
X155154518Y-86844362D01*
X155154518Y-86469362D01*
X155504518Y-86469362D01*
X155504518Y-86844362D01*
G37*
G36*
X156004518Y-86844362D02*
G01*
X155654518Y-86844362D01*
X155654518Y-86469362D01*
X156004518Y-86469362D01*
X156004518Y-86844362D01*
G37*
G36*
X156504518Y-86844362D02*
G01*
X156154518Y-86844362D01*
X156154518Y-86469362D01*
X156504518Y-86469362D01*
X156504518Y-86844362D01*
G37*
G36*
X157004518Y-86844362D02*
G01*
X156654518Y-86844362D01*
X156654518Y-86469362D01*
X157004518Y-86469362D01*
X157004518Y-86844362D01*
G37*
G36*
X148645835Y-86078711D02*
G01*
X148662056Y-86089549D01*
X149192386Y-86619879D01*
X149203224Y-86636100D01*
X149207030Y-86655235D01*
X149203224Y-86674369D01*
X149192386Y-86690590D01*
X149121675Y-86761301D01*
X149105454Y-86772139D01*
X149086320Y-86775945D01*
X149067185Y-86772139D01*
X149050964Y-86761301D01*
X148520634Y-86230971D01*
X148509796Y-86214750D01*
X148505990Y-86195615D01*
X148509796Y-86176481D01*
X148520634Y-86160260D01*
X148555989Y-86124905D01*
X148587164Y-86093729D01*
X148587167Y-86093726D01*
X148591345Y-86089549D01*
X148607566Y-86078711D01*
X148626700Y-86074905D01*
X148645835Y-86078711D01*
G37*
G36*
X151156064Y-86078711D02*
G01*
X151172285Y-86089549D01*
X151242996Y-86160260D01*
X151253834Y-86176481D01*
X151257640Y-86195615D01*
X151253834Y-86214750D01*
X151242996Y-86230971D01*
X150712666Y-86761301D01*
X150696445Y-86772139D01*
X150677310Y-86775945D01*
X150658176Y-86772139D01*
X150641955Y-86761301D01*
X150571244Y-86690590D01*
X150560406Y-86674369D01*
X150556600Y-86655235D01*
X150560406Y-86636100D01*
X150571244Y-86619879D01*
X151101574Y-86089549D01*
X151117795Y-86078711D01*
X151136930Y-86074905D01*
X151156064Y-86078711D01*
G37*
G36*
X148928678Y-85795868D02*
G01*
X148944899Y-85806706D01*
X149475229Y-86337036D01*
X149486067Y-86353257D01*
X149489873Y-86372392D01*
X149486067Y-86391526D01*
X149475229Y-86407747D01*
X149404518Y-86478458D01*
X149388297Y-86489296D01*
X149369163Y-86493102D01*
X149350028Y-86489296D01*
X149333807Y-86478458D01*
X148803477Y-85948128D01*
X148792639Y-85931907D01*
X148788833Y-85912772D01*
X148792639Y-85893638D01*
X148803477Y-85877417D01*
X148821795Y-85859099D01*
X148870007Y-85810886D01*
X148870010Y-85810883D01*
X148874188Y-85806706D01*
X148890409Y-85795868D01*
X148909543Y-85792062D01*
X148928678Y-85795868D01*
G37*
G36*
X150873221Y-85795868D02*
G01*
X150889442Y-85806706D01*
X150960153Y-85877417D01*
X150970991Y-85893638D01*
X150974797Y-85912772D01*
X150970991Y-85931907D01*
X150960153Y-85948128D01*
X150429823Y-86478458D01*
X150413602Y-86489296D01*
X150394467Y-86493102D01*
X150375333Y-86489296D01*
X150359112Y-86478458D01*
X150288401Y-86407747D01*
X150277563Y-86391526D01*
X150273757Y-86372392D01*
X150277563Y-86353257D01*
X150288401Y-86337036D01*
X150818731Y-85806706D01*
X150834952Y-85795868D01*
X150854087Y-85792062D01*
X150873221Y-85795868D01*
G37*
G36*
X149211521Y-85513026D02*
G01*
X149227742Y-85523864D01*
X149758072Y-86054194D01*
X149768910Y-86070415D01*
X149772716Y-86089550D01*
X149768910Y-86108684D01*
X149758072Y-86124905D01*
X149687361Y-86195616D01*
X149671140Y-86206454D01*
X149652006Y-86210260D01*
X149632871Y-86206454D01*
X149616650Y-86195616D01*
X149086320Y-85665286D01*
X149075482Y-85649065D01*
X149071676Y-85629930D01*
X149075482Y-85610796D01*
X149086320Y-85594575D01*
X149090501Y-85590394D01*
X149152850Y-85528044D01*
X149152853Y-85528041D01*
X149157031Y-85523864D01*
X149173252Y-85513026D01*
X149192386Y-85509220D01*
X149211521Y-85513026D01*
G37*
G36*
X150590378Y-85513026D02*
G01*
X150606599Y-85523864D01*
X150677310Y-85594575D01*
X150688148Y-85610796D01*
X150691954Y-85629930D01*
X150688148Y-85649065D01*
X150677310Y-85665286D01*
X150146980Y-86195616D01*
X150130759Y-86206454D01*
X150111624Y-86210260D01*
X150092490Y-86206454D01*
X150076269Y-86195616D01*
X150005558Y-86124905D01*
X149994720Y-86108684D01*
X149990914Y-86089550D01*
X149994720Y-86070415D01*
X150005558Y-86054194D01*
X150535888Y-85523864D01*
X150552109Y-85513026D01*
X150571244Y-85509220D01*
X150590378Y-85513026D01*
G37*
G36*
X144054850Y-84975964D02*
G01*
X144099317Y-84981123D01*
X144114510Y-84987831D01*
X144136104Y-84992127D01*
X144159222Y-85007574D01*
X144176567Y-85015233D01*
X144188412Y-85027078D01*
X144209099Y-85040901D01*
X144222921Y-85061587D01*
X144234766Y-85073432D01*
X144242423Y-85090774D01*
X144257873Y-85113896D01*
X144262168Y-85135491D01*
X144268876Y-85150682D01*
X144274033Y-85195139D01*
X144275000Y-85200000D01*
X144275000Y-85700000D01*
X144274032Y-85704862D01*
X144268876Y-85749317D01*
X144262168Y-85764506D01*
X144257873Y-85786104D01*
X144242422Y-85809227D01*
X144234766Y-85826567D01*
X144222923Y-85838409D01*
X144209099Y-85859099D01*
X144188409Y-85872923D01*
X144176567Y-85884766D01*
X144159227Y-85892422D01*
X144136104Y-85907873D01*
X144114506Y-85912168D01*
X144099317Y-85918876D01*
X144054861Y-85924032D01*
X144050000Y-85925000D01*
X143600000Y-85925000D01*
X143595138Y-85924033D01*
X143550682Y-85918876D01*
X143535491Y-85912168D01*
X143513896Y-85907873D01*
X143490774Y-85892423D01*
X143473432Y-85884766D01*
X143461587Y-85872921D01*
X143440901Y-85859099D01*
X143427078Y-85838412D01*
X143415233Y-85826567D01*
X143407574Y-85809222D01*
X143392127Y-85786104D01*
X143387831Y-85764510D01*
X143381123Y-85749317D01*
X143375964Y-85704849D01*
X143375000Y-85700000D01*
X143375000Y-85200000D01*
X143375964Y-85195150D01*
X143381123Y-85150682D01*
X143387832Y-85135487D01*
X143392127Y-85113896D01*
X143407573Y-85090779D01*
X143415233Y-85073432D01*
X143427080Y-85061584D01*
X143440901Y-85040901D01*
X143461584Y-85027080D01*
X143473432Y-85015233D01*
X143490779Y-85007573D01*
X143513896Y-84992127D01*
X143535487Y-84987832D01*
X143550682Y-84981123D01*
X143595151Y-84975964D01*
X143600000Y-84975000D01*
X144050000Y-84975000D01*
X144054850Y-84975964D01*
G37*
G36*
X145604850Y-84975964D02*
G01*
X145649317Y-84981123D01*
X145664510Y-84987831D01*
X145686104Y-84992127D01*
X145709222Y-85007574D01*
X145726567Y-85015233D01*
X145738412Y-85027078D01*
X145759099Y-85040901D01*
X145772921Y-85061587D01*
X145784766Y-85073432D01*
X145792423Y-85090774D01*
X145807873Y-85113896D01*
X145812168Y-85135491D01*
X145818876Y-85150682D01*
X145824033Y-85195139D01*
X145825000Y-85200000D01*
X145825000Y-85700000D01*
X145824032Y-85704862D01*
X145818876Y-85749317D01*
X145812168Y-85764506D01*
X145807873Y-85786104D01*
X145792422Y-85809227D01*
X145784766Y-85826567D01*
X145772923Y-85838409D01*
X145759099Y-85859099D01*
X145738409Y-85872923D01*
X145726567Y-85884766D01*
X145709227Y-85892422D01*
X145686104Y-85907873D01*
X145664506Y-85912168D01*
X145649317Y-85918876D01*
X145604861Y-85924032D01*
X145600000Y-85925000D01*
X145150000Y-85925000D01*
X145145138Y-85924033D01*
X145100682Y-85918876D01*
X145085491Y-85912168D01*
X145063896Y-85907873D01*
X145040774Y-85892423D01*
X145023432Y-85884766D01*
X145011587Y-85872921D01*
X144990901Y-85859099D01*
X144977078Y-85838412D01*
X144965233Y-85826567D01*
X144957574Y-85809222D01*
X144942127Y-85786104D01*
X144937831Y-85764510D01*
X144931123Y-85749317D01*
X144925964Y-85704849D01*
X144925000Y-85700000D01*
X144925000Y-85200000D01*
X144925964Y-85195150D01*
X144931123Y-85150682D01*
X144937832Y-85135487D01*
X144942127Y-85113896D01*
X144957573Y-85090779D01*
X144965233Y-85073432D01*
X144977080Y-85061584D01*
X144990901Y-85040901D01*
X145011584Y-85027080D01*
X145023432Y-85015233D01*
X145040779Y-85007573D01*
X145063896Y-84992127D01*
X145085487Y-84987832D01*
X145100682Y-84981123D01*
X145145151Y-84975964D01*
X145150000Y-84975000D01*
X145600000Y-84975000D01*
X145604850Y-84975964D01*
G37*
G36*
X153390084Y-84691985D02*
G01*
X153406839Y-84691985D01*
X153424522Y-84698835D01*
X153451789Y-84704259D01*
X153470092Y-84716488D01*
X153485576Y-84722487D01*
X153520648Y-84750269D01*
X153524785Y-84753033D01*
X153842983Y-85071231D01*
X153845738Y-85075355D01*
X153873527Y-85110437D01*
X153879525Y-85125921D01*
X153891757Y-85144227D01*
X153897180Y-85171493D01*
X153904031Y-85189176D01*
X153904031Y-85205932D01*
X153908884Y-85230330D01*
X153904031Y-85254727D01*
X153904031Y-85271484D01*
X153897180Y-85289166D01*
X153891757Y-85316434D01*
X153879525Y-85334739D01*
X153873528Y-85350221D01*
X153845747Y-85385291D01*
X153842983Y-85389429D01*
X153489429Y-85742983D01*
X153485304Y-85745739D01*
X153450223Y-85773527D01*
X153434740Y-85779525D01*
X153416434Y-85791757D01*
X153389165Y-85797180D01*
X153371484Y-85804031D01*
X153354728Y-85804031D01*
X153330330Y-85808884D01*
X153305932Y-85804031D01*
X153289177Y-85804031D01*
X153271494Y-85797180D01*
X153244227Y-85791757D01*
X153225922Y-85779526D01*
X153210439Y-85773528D01*
X153175368Y-85745747D01*
X153171231Y-85742983D01*
X152853033Y-85424785D01*
X152850278Y-85420662D01*
X152822488Y-85385578D01*
X152816489Y-85370092D01*
X152804259Y-85351789D01*
X152798835Y-85324521D01*
X152791985Y-85306839D01*
X152791985Y-85290083D01*
X152787132Y-85265686D01*
X152791985Y-85241288D01*
X152791985Y-85224531D01*
X152798835Y-85206846D01*
X152804259Y-85179582D01*
X152816487Y-85161280D01*
X152822487Y-85145794D01*
X152850277Y-85110710D01*
X152853033Y-85106587D01*
X153206587Y-84753033D01*
X153210697Y-84750286D01*
X153245792Y-84722488D01*
X153261279Y-84716488D01*
X153279582Y-84704259D01*
X153306848Y-84698835D01*
X153324532Y-84691985D01*
X153341288Y-84691985D01*
X153365686Y-84687132D01*
X153390084Y-84691985D01*
G37*
G36*
X155604850Y-84075964D02*
G01*
X155649317Y-84081123D01*
X155664510Y-84087831D01*
X155686104Y-84092127D01*
X155709222Y-84107574D01*
X155726567Y-84115233D01*
X155738412Y-84127078D01*
X155759099Y-84140901D01*
X155772921Y-84161587D01*
X155784766Y-84173432D01*
X155792423Y-84190774D01*
X155807873Y-84213896D01*
X155812168Y-84235491D01*
X155818876Y-84250682D01*
X155824033Y-84295139D01*
X155825000Y-84300000D01*
X155825000Y-84800000D01*
X155824032Y-84804862D01*
X155818876Y-84849317D01*
X155812168Y-84864506D01*
X155807873Y-84886104D01*
X155792422Y-84909227D01*
X155784766Y-84926567D01*
X155772923Y-84938409D01*
X155759099Y-84959099D01*
X155738409Y-84972923D01*
X155726567Y-84984766D01*
X155709227Y-84992422D01*
X155686104Y-85007873D01*
X155664506Y-85012168D01*
X155649317Y-85018876D01*
X155604861Y-85024032D01*
X155600000Y-85025000D01*
X155150000Y-85025000D01*
X155145138Y-85024033D01*
X155100682Y-85018876D01*
X155085491Y-85012168D01*
X155063896Y-85007873D01*
X155040774Y-84992423D01*
X155023432Y-84984766D01*
X155011587Y-84972921D01*
X154990901Y-84959099D01*
X154977078Y-84938412D01*
X154965233Y-84926567D01*
X154957574Y-84909222D01*
X154942127Y-84886104D01*
X154937831Y-84864510D01*
X154931123Y-84849317D01*
X154925964Y-84804849D01*
X154925000Y-84800000D01*
X154925000Y-84300000D01*
X154925964Y-84295150D01*
X154931123Y-84250682D01*
X154937832Y-84235487D01*
X154942127Y-84213896D01*
X154957573Y-84190779D01*
X154965233Y-84173432D01*
X154977080Y-84161584D01*
X154990901Y-84140901D01*
X155011584Y-84127080D01*
X155023432Y-84115233D01*
X155040779Y-84107573D01*
X155063896Y-84092127D01*
X155085487Y-84087832D01*
X155100682Y-84081123D01*
X155145151Y-84075964D01*
X155150000Y-84075000D01*
X155600000Y-84075000D01*
X155604850Y-84075964D01*
G37*
G36*
X157154850Y-84075964D02*
G01*
X157199317Y-84081123D01*
X157214510Y-84087831D01*
X157236104Y-84092127D01*
X157259222Y-84107574D01*
X157276567Y-84115233D01*
X157288412Y-84127078D01*
X157309099Y-84140901D01*
X157322921Y-84161587D01*
X157334766Y-84173432D01*
X157342423Y-84190774D01*
X157357873Y-84213896D01*
X157362168Y-84235491D01*
X157368876Y-84250682D01*
X157374033Y-84295139D01*
X157375000Y-84300000D01*
X157375000Y-84800000D01*
X157374032Y-84804862D01*
X157368876Y-84849317D01*
X157362168Y-84864506D01*
X157357873Y-84886104D01*
X157342422Y-84909227D01*
X157334766Y-84926567D01*
X157322923Y-84938409D01*
X157309099Y-84959099D01*
X157288409Y-84972923D01*
X157276567Y-84984766D01*
X157259227Y-84992422D01*
X157236104Y-85007873D01*
X157214506Y-85012168D01*
X157199317Y-85018876D01*
X157154861Y-85024032D01*
X157150000Y-85025000D01*
X156700000Y-85025000D01*
X156695138Y-85024033D01*
X156650682Y-85018876D01*
X156635491Y-85012168D01*
X156613896Y-85007873D01*
X156590774Y-84992423D01*
X156573432Y-84984766D01*
X156561587Y-84972921D01*
X156540901Y-84959099D01*
X156527078Y-84938412D01*
X156515233Y-84926567D01*
X156507574Y-84909222D01*
X156492127Y-84886104D01*
X156487831Y-84864510D01*
X156481123Y-84849317D01*
X156475964Y-84804849D01*
X156475000Y-84800000D01*
X156475000Y-84300000D01*
X156475964Y-84295150D01*
X156481123Y-84250682D01*
X156487832Y-84235487D01*
X156492127Y-84213896D01*
X156507573Y-84190779D01*
X156515233Y-84173432D01*
X156527080Y-84161584D01*
X156540901Y-84140901D01*
X156561584Y-84127080D01*
X156573432Y-84115233D01*
X156590779Y-84107573D01*
X156613896Y-84092127D01*
X156635487Y-84087832D01*
X156650682Y-84081123D01*
X156695151Y-84075964D01*
X156700000Y-84075000D01*
X157150000Y-84075000D01*
X157154850Y-84075964D01*
G37*
G36*
X152294068Y-83595969D02*
G01*
X152310823Y-83595969D01*
X152328506Y-83602819D01*
X152355773Y-83608243D01*
X152374076Y-83620472D01*
X152389560Y-83626471D01*
X152424632Y-83654253D01*
X152428769Y-83657017D01*
X152746967Y-83975215D01*
X152749722Y-83979339D01*
X152777511Y-84014421D01*
X152783509Y-84029905D01*
X152795741Y-84048211D01*
X152801164Y-84075477D01*
X152808015Y-84093160D01*
X152808015Y-84109916D01*
X152812868Y-84134314D01*
X152808015Y-84158711D01*
X152808015Y-84175468D01*
X152801164Y-84193150D01*
X152795741Y-84220418D01*
X152783509Y-84238723D01*
X152777512Y-84254205D01*
X152749731Y-84289275D01*
X152746967Y-84293413D01*
X152393413Y-84646967D01*
X152389288Y-84649723D01*
X152354207Y-84677511D01*
X152338724Y-84683509D01*
X152320418Y-84695741D01*
X152293149Y-84701164D01*
X152275468Y-84708015D01*
X152258712Y-84708015D01*
X152234314Y-84712868D01*
X152209916Y-84708015D01*
X152193161Y-84708015D01*
X152175478Y-84701164D01*
X152148211Y-84695741D01*
X152129906Y-84683510D01*
X152114423Y-84677512D01*
X152079352Y-84649731D01*
X152075215Y-84646967D01*
X151757017Y-84328769D01*
X151754262Y-84324646D01*
X151726472Y-84289562D01*
X151720473Y-84274076D01*
X151708243Y-84255773D01*
X151702819Y-84228505D01*
X151695969Y-84210823D01*
X151695969Y-84194067D01*
X151691116Y-84169670D01*
X151695969Y-84145272D01*
X151695969Y-84128515D01*
X151702819Y-84110830D01*
X151708243Y-84083566D01*
X151720471Y-84065264D01*
X151726471Y-84049778D01*
X151754261Y-84014694D01*
X151757017Y-84010571D01*
X152110571Y-83657017D01*
X152114681Y-83654270D01*
X152149776Y-83626472D01*
X152165263Y-83620472D01*
X152183566Y-83608243D01*
X152210832Y-83602819D01*
X152228516Y-83595969D01*
X152245272Y-83595969D01*
X152269670Y-83591116D01*
X152294068Y-83595969D01*
G37*
G36*
X150161100Y-83000964D02*
G01*
X150204136Y-83005957D01*
X150218840Y-83012449D01*
X150239962Y-83016651D01*
X150262576Y-83031761D01*
X150279285Y-83039139D01*
X150290696Y-83050550D01*
X150310930Y-83064070D01*
X150324449Y-83084303D01*
X150335860Y-83095714D01*
X150343237Y-83112421D01*
X150358349Y-83135038D01*
X150362550Y-83156161D01*
X150369042Y-83170863D01*
X150374033Y-83213889D01*
X150375000Y-83218750D01*
X150375000Y-83656250D01*
X150374032Y-83661112D01*
X150369042Y-83704136D01*
X150362551Y-83718836D01*
X150358349Y-83739962D01*
X150343235Y-83762580D01*
X150335860Y-83779285D01*
X150324451Y-83790693D01*
X150310930Y-83810930D01*
X150290693Y-83824451D01*
X150279285Y-83835860D01*
X150262580Y-83843235D01*
X150239962Y-83858349D01*
X150218836Y-83862551D01*
X150204136Y-83869042D01*
X150161111Y-83874032D01*
X150156250Y-83875000D01*
X149643750Y-83875000D01*
X149638888Y-83874032D01*
X149595863Y-83869042D01*
X149581161Y-83862550D01*
X149560038Y-83858349D01*
X149537421Y-83843237D01*
X149520714Y-83835860D01*
X149509303Y-83824449D01*
X149489070Y-83810930D01*
X149475550Y-83790696D01*
X149464139Y-83779285D01*
X149456761Y-83762576D01*
X149441651Y-83739962D01*
X149437449Y-83718840D01*
X149430957Y-83704136D01*
X149425964Y-83661099D01*
X149425000Y-83656250D01*
X149425000Y-83218750D01*
X149425964Y-83213900D01*
X149430957Y-83170863D01*
X149437450Y-83156157D01*
X149441651Y-83135038D01*
X149456759Y-83112425D01*
X149464139Y-83095714D01*
X149475552Y-83084300D01*
X149489070Y-83064070D01*
X149509300Y-83050552D01*
X149520714Y-83039139D01*
X149537425Y-83031759D01*
X149560038Y-83016651D01*
X149581157Y-83012450D01*
X149595863Y-83005957D01*
X149638901Y-83000964D01*
X149643750Y-83000000D01*
X150156250Y-83000000D01*
X150161100Y-83000964D01*
G37*
G36*
X147191342Y-82088060D02*
G01*
X147304381Y-82153323D01*
X147396677Y-82245619D01*
X147461940Y-82358658D01*
X147495722Y-82484737D01*
X147495722Y-82615263D01*
X147461940Y-82741342D01*
X147396677Y-82854381D01*
X147304381Y-82946677D01*
X147191342Y-83011940D01*
X147065263Y-83045722D01*
X146934737Y-83045722D01*
X146808658Y-83011940D01*
X146695619Y-82946677D01*
X146603323Y-82854381D01*
X146538060Y-82741342D01*
X146504278Y-82615263D01*
X146504278Y-82484737D01*
X146538060Y-82358658D01*
X146603323Y-82245619D01*
X146695619Y-82153323D01*
X146808658Y-82088060D01*
X146934737Y-82054278D01*
X147065263Y-82054278D01*
X147191342Y-82088060D01*
G37*
G36*
X143407853Y-81643742D02*
G01*
X143423921Y-81644072D01*
X143465025Y-81657732D01*
X143469843Y-81658911D01*
X143934326Y-81875503D01*
X143938325Y-81878435D01*
X143975211Y-81901143D01*
X143985790Y-81913237D01*
X144003158Y-81925972D01*
X144017267Y-81949223D01*
X144029292Y-81962971D01*
X144034811Y-81978136D01*
X144047436Y-81998941D01*
X144051138Y-82022994D01*
X144056657Y-82038158D01*
X144056282Y-82056417D01*
X144060420Y-82083300D01*
X144055301Y-82104217D01*
X144054972Y-82120283D01*
X144041315Y-82161375D01*
X144040133Y-82166206D01*
X143855237Y-82562716D01*
X143852304Y-82566715D01*
X143829598Y-82603600D01*
X143817501Y-82614181D01*
X143804768Y-82631547D01*
X143781517Y-82645655D01*
X143767769Y-82657682D01*
X143752604Y-82663201D01*
X143731800Y-82675826D01*
X143707744Y-82679528D01*
X143692582Y-82685047D01*
X143674324Y-82684672D01*
X143647441Y-82688810D01*
X143626520Y-82683690D01*
X143610456Y-82683361D01*
X143569360Y-82669703D01*
X143564535Y-82668523D01*
X143100052Y-82451931D01*
X143096049Y-82448996D01*
X143059166Y-82426290D01*
X143048587Y-82414196D01*
X143031220Y-82401462D01*
X143017110Y-82378210D01*
X143005085Y-82364462D01*
X142999564Y-82349295D01*
X142986942Y-82328493D01*
X142983240Y-82304442D01*
X142977720Y-82289275D01*
X142978094Y-82271010D01*
X142973958Y-82244134D01*
X142979075Y-82223221D01*
X142979405Y-82207150D01*
X142993066Y-82166043D01*
X142994245Y-82161228D01*
X143179141Y-81764718D01*
X143182063Y-81760732D01*
X143204779Y-81723833D01*
X143216880Y-81713247D01*
X143229610Y-81695887D01*
X143252853Y-81681782D01*
X143266608Y-81669751D01*
X143281779Y-81664229D01*
X143302578Y-81651608D01*
X143326627Y-81647906D01*
X143341795Y-81642386D01*
X143360058Y-81642760D01*
X143386937Y-81638624D01*
X143407853Y-81643742D01*
G37*
G36*
X156872754Y-81606477D02*
G01*
X156891017Y-81606103D01*
X156906184Y-81611623D01*
X156930235Y-81615325D01*
X156951035Y-81627947D01*
X156966204Y-81633468D01*
X156979956Y-81645497D01*
X157003203Y-81659604D01*
X157015934Y-81676967D01*
X157028033Y-81687550D01*
X157050747Y-81724445D01*
X157053672Y-81728435D01*
X157055137Y-81731576D01*
X157055139Y-81731580D01*
X157237103Y-82121801D01*
X157237105Y-82121809D01*
X157238568Y-82124945D01*
X157239741Y-82129741D01*
X157253407Y-82170864D01*
X157253736Y-82186934D01*
X157258855Y-82207851D01*
X157254717Y-82234733D01*
X157255092Y-82252992D01*
X157249573Y-82268154D01*
X157245871Y-82292210D01*
X157233245Y-82313016D01*
X157227727Y-82328179D01*
X157215704Y-82341923D01*
X157201593Y-82365179D01*
X157184222Y-82377915D01*
X157173645Y-82390008D01*
X157136773Y-82412705D01*
X157132761Y-82415648D01*
X156668278Y-82632240D01*
X156663463Y-82633418D01*
X156622358Y-82647078D01*
X156606292Y-82647407D01*
X156585372Y-82652527D01*
X156558487Y-82648389D01*
X156540230Y-82648764D01*
X156525066Y-82643245D01*
X156501013Y-82639543D01*
X156480210Y-82626919D01*
X156465043Y-82621399D01*
X156451291Y-82609370D01*
X156428045Y-82595264D01*
X156415313Y-82577900D01*
X156403214Y-82567317D01*
X156380498Y-82530418D01*
X156377576Y-82526433D01*
X156376112Y-82523293D01*
X156376108Y-82523287D01*
X156194144Y-82133066D01*
X156194140Y-82133054D01*
X156192680Y-82129923D01*
X156191508Y-82125133D01*
X156177840Y-82084003D01*
X156177510Y-82067929D01*
X156172393Y-82047017D01*
X156176529Y-82020139D01*
X156176155Y-82001875D01*
X156181675Y-81986707D01*
X156185377Y-81962658D01*
X156197999Y-81941857D01*
X156203520Y-81926688D01*
X156215547Y-81912937D01*
X156229655Y-81889689D01*
X156247020Y-81876956D01*
X156257602Y-81864859D01*
X156294488Y-81842152D01*
X156298487Y-81839220D01*
X156762970Y-81622628D01*
X156767769Y-81621453D01*
X156808889Y-81607789D01*
X156824960Y-81607459D01*
X156845876Y-81602341D01*
X156872754Y-81606477D01*
G37*
G36*
X150161100Y-81425964D02*
G01*
X150204136Y-81430957D01*
X150218840Y-81437449D01*
X150239962Y-81441651D01*
X150262576Y-81456761D01*
X150279285Y-81464139D01*
X150290696Y-81475550D01*
X150310930Y-81489070D01*
X150324449Y-81509303D01*
X150335860Y-81520714D01*
X150343237Y-81537421D01*
X150358349Y-81560038D01*
X150362550Y-81581161D01*
X150369042Y-81595863D01*
X150374033Y-81638889D01*
X150375000Y-81643750D01*
X150375000Y-82081250D01*
X150374032Y-82086112D01*
X150369042Y-82129136D01*
X150362551Y-82143836D01*
X150358349Y-82164962D01*
X150343235Y-82187580D01*
X150335860Y-82204285D01*
X150324451Y-82215693D01*
X150310930Y-82235930D01*
X150290693Y-82249451D01*
X150279285Y-82260860D01*
X150262580Y-82268235D01*
X150239962Y-82283349D01*
X150218836Y-82287551D01*
X150204136Y-82294042D01*
X150161111Y-82299032D01*
X150156250Y-82300000D01*
X149643750Y-82300000D01*
X149638888Y-82299032D01*
X149595863Y-82294042D01*
X149581161Y-82287550D01*
X149560038Y-82283349D01*
X149537421Y-82268237D01*
X149520714Y-82260860D01*
X149509303Y-82249449D01*
X149489070Y-82235930D01*
X149475550Y-82215696D01*
X149464139Y-82204285D01*
X149456761Y-82187576D01*
X149441651Y-82164962D01*
X149437449Y-82143840D01*
X149430957Y-82129136D01*
X149425964Y-82086099D01*
X149425000Y-82081250D01*
X149425000Y-81643750D01*
X149425964Y-81638900D01*
X149430957Y-81595863D01*
X149437450Y-81581157D01*
X149441651Y-81560038D01*
X149456759Y-81537425D01*
X149464139Y-81520714D01*
X149475552Y-81509300D01*
X149489070Y-81489070D01*
X149509300Y-81475552D01*
X149520714Y-81464139D01*
X149537425Y-81456759D01*
X149560038Y-81441651D01*
X149581157Y-81437450D01*
X149595863Y-81430957D01*
X149638901Y-81425964D01*
X149643750Y-81425000D01*
X150156250Y-81425000D01*
X150161100Y-81425964D01*
G37*
G36*
X144073475Y-80216308D02*
G01*
X144089543Y-80216638D01*
X144130647Y-80230298D01*
X144135465Y-80231477D01*
X144599948Y-80448069D01*
X144603947Y-80451001D01*
X144640833Y-80473709D01*
X144651412Y-80485803D01*
X144668780Y-80498538D01*
X144682889Y-80521789D01*
X144694914Y-80535537D01*
X144700433Y-80550702D01*
X144713058Y-80571507D01*
X144716760Y-80595560D01*
X144722279Y-80610724D01*
X144721904Y-80628983D01*
X144726042Y-80655866D01*
X144720923Y-80676783D01*
X144720594Y-80692849D01*
X144706937Y-80733941D01*
X144705755Y-80738772D01*
X144520859Y-81135282D01*
X144517926Y-81139281D01*
X144495220Y-81176166D01*
X144483123Y-81186747D01*
X144470390Y-81204113D01*
X144447139Y-81218221D01*
X144433391Y-81230248D01*
X144418226Y-81235767D01*
X144397422Y-81248392D01*
X144373366Y-81252094D01*
X144358204Y-81257613D01*
X144339946Y-81257238D01*
X144313063Y-81261376D01*
X144292142Y-81256256D01*
X144276078Y-81255927D01*
X144234982Y-81242269D01*
X144230157Y-81241089D01*
X143765674Y-81024497D01*
X143761671Y-81021562D01*
X143724788Y-80998856D01*
X143714209Y-80986762D01*
X143696842Y-80974028D01*
X143682732Y-80950776D01*
X143670707Y-80937028D01*
X143665186Y-80921861D01*
X143652564Y-80901059D01*
X143648862Y-80877008D01*
X143643342Y-80861841D01*
X143643716Y-80843576D01*
X143639580Y-80816700D01*
X143644697Y-80795787D01*
X143645027Y-80779716D01*
X143658688Y-80738609D01*
X143659867Y-80733794D01*
X143844763Y-80337284D01*
X143847685Y-80333298D01*
X143870401Y-80296399D01*
X143882502Y-80285813D01*
X143895232Y-80268453D01*
X143918475Y-80254348D01*
X143932230Y-80242317D01*
X143947401Y-80236795D01*
X143968200Y-80224174D01*
X143992249Y-80220472D01*
X144007417Y-80214952D01*
X144025680Y-80215326D01*
X144052559Y-80211190D01*
X144073475Y-80216308D01*
G37*
G36*
X156207130Y-80179043D02*
G01*
X156225393Y-80178669D01*
X156240560Y-80184189D01*
X156264611Y-80187891D01*
X156285411Y-80200513D01*
X156300580Y-80206034D01*
X156314332Y-80218063D01*
X156337579Y-80232170D01*
X156350310Y-80249533D01*
X156362409Y-80260116D01*
X156385123Y-80297011D01*
X156388048Y-80301001D01*
X156389513Y-80304142D01*
X156389515Y-80304146D01*
X156571479Y-80694367D01*
X156571481Y-80694375D01*
X156572944Y-80697511D01*
X156574117Y-80702307D01*
X156587783Y-80743430D01*
X156588112Y-80759500D01*
X156593231Y-80780417D01*
X156589093Y-80807299D01*
X156589468Y-80825558D01*
X156583949Y-80840720D01*
X156580247Y-80864776D01*
X156567621Y-80885582D01*
X156562103Y-80900745D01*
X156550080Y-80914489D01*
X156535969Y-80937745D01*
X156518598Y-80950481D01*
X156508021Y-80962574D01*
X156471149Y-80985271D01*
X156467137Y-80988214D01*
X156002654Y-81204806D01*
X155997839Y-81205984D01*
X155956734Y-81219644D01*
X155940668Y-81219973D01*
X155919748Y-81225093D01*
X155892863Y-81220955D01*
X155874606Y-81221330D01*
X155859442Y-81215811D01*
X155835389Y-81212109D01*
X155814586Y-81199485D01*
X155799419Y-81193965D01*
X155785667Y-81181936D01*
X155762421Y-81167830D01*
X155749689Y-81150466D01*
X155737590Y-81139883D01*
X155714874Y-81102984D01*
X155711952Y-81098999D01*
X155710488Y-81095859D01*
X155710484Y-81095853D01*
X155528520Y-80705632D01*
X155528516Y-80705620D01*
X155527056Y-80702489D01*
X155525884Y-80697699D01*
X155512216Y-80656569D01*
X155511886Y-80640495D01*
X155506769Y-80619583D01*
X155510905Y-80592705D01*
X155510531Y-80574441D01*
X155516051Y-80559273D01*
X155519753Y-80535224D01*
X155532375Y-80514423D01*
X155537896Y-80499254D01*
X155549923Y-80485503D01*
X155564031Y-80462255D01*
X155581396Y-80449522D01*
X155591978Y-80437425D01*
X155628864Y-80414718D01*
X155632863Y-80411786D01*
X156097346Y-80195194D01*
X156102145Y-80194019D01*
X156143265Y-80180355D01*
X156159336Y-80180025D01*
X156180252Y-80174907D01*
X156207130Y-80179043D01*
G37*
G36*
X146236100Y-75725964D02*
G01*
X146279136Y-75730957D01*
X146293840Y-75737449D01*
X146314962Y-75741651D01*
X146337576Y-75756761D01*
X146354285Y-75764139D01*
X146365696Y-75775550D01*
X146385930Y-75789070D01*
X146399449Y-75809303D01*
X146410860Y-75820714D01*
X146418237Y-75837421D01*
X146433349Y-75860038D01*
X146437550Y-75881161D01*
X146444042Y-75895863D01*
X146449033Y-75938889D01*
X146450000Y-75943750D01*
X146450000Y-76456250D01*
X146449032Y-76461112D01*
X146444042Y-76504136D01*
X146437551Y-76518836D01*
X146433349Y-76539962D01*
X146418235Y-76562580D01*
X146410860Y-76579285D01*
X146399451Y-76590693D01*
X146385930Y-76610930D01*
X146365693Y-76624451D01*
X146354285Y-76635860D01*
X146337580Y-76643235D01*
X146314962Y-76658349D01*
X146293836Y-76662551D01*
X146279136Y-76669042D01*
X146236111Y-76674032D01*
X146231250Y-76675000D01*
X145793750Y-76675000D01*
X145788888Y-76674032D01*
X145745863Y-76669042D01*
X145731161Y-76662550D01*
X145710038Y-76658349D01*
X145687421Y-76643237D01*
X145670714Y-76635860D01*
X145659303Y-76624449D01*
X145639070Y-76610930D01*
X145625550Y-76590696D01*
X145614139Y-76579285D01*
X145606761Y-76562576D01*
X145591651Y-76539962D01*
X145587449Y-76518840D01*
X145580957Y-76504136D01*
X145575964Y-76461099D01*
X145575000Y-76456250D01*
X145575000Y-75943750D01*
X145575964Y-75938900D01*
X145580957Y-75895863D01*
X145587450Y-75881157D01*
X145591651Y-75860038D01*
X145606759Y-75837425D01*
X145614139Y-75820714D01*
X145625552Y-75809300D01*
X145639070Y-75789070D01*
X145659300Y-75775552D01*
X145670714Y-75764139D01*
X145687425Y-75756759D01*
X145710038Y-75741651D01*
X145731157Y-75737450D01*
X145745863Y-75730957D01*
X145788901Y-75725964D01*
X145793750Y-75725000D01*
X146231250Y-75725000D01*
X146236100Y-75725964D01*
G37*
G36*
X147811100Y-75725964D02*
G01*
X147854136Y-75730957D01*
X147868840Y-75737449D01*
X147889962Y-75741651D01*
X147912576Y-75756761D01*
X147929285Y-75764139D01*
X147940696Y-75775550D01*
X147960930Y-75789070D01*
X147974449Y-75809303D01*
X147985860Y-75820714D01*
X147993237Y-75837421D01*
X148008349Y-75860038D01*
X148012550Y-75881161D01*
X148019042Y-75895863D01*
X148024033Y-75938889D01*
X148025000Y-75943750D01*
X148025000Y-76456250D01*
X148024032Y-76461112D01*
X148019042Y-76504136D01*
X148012551Y-76518836D01*
X148008349Y-76539962D01*
X147993235Y-76562580D01*
X147985860Y-76579285D01*
X147974451Y-76590693D01*
X147960930Y-76610930D01*
X147940693Y-76624451D01*
X147929285Y-76635860D01*
X147912580Y-76643235D01*
X147889962Y-76658349D01*
X147868836Y-76662551D01*
X147854136Y-76669042D01*
X147811111Y-76674032D01*
X147806250Y-76675000D01*
X147368750Y-76675000D01*
X147363888Y-76674032D01*
X147320863Y-76669042D01*
X147306161Y-76662550D01*
X147285038Y-76658349D01*
X147262421Y-76643237D01*
X147245714Y-76635860D01*
X147234303Y-76624449D01*
X147214070Y-76610930D01*
X147200550Y-76590696D01*
X147189139Y-76579285D01*
X147181761Y-76562576D01*
X147166651Y-76539962D01*
X147162449Y-76518840D01*
X147155957Y-76504136D01*
X147150964Y-76461099D01*
X147150000Y-76456250D01*
X147150000Y-75943750D01*
X147150964Y-75938900D01*
X147155957Y-75895863D01*
X147162450Y-75881157D01*
X147166651Y-75860038D01*
X147181759Y-75837425D01*
X147189139Y-75820714D01*
X147200552Y-75809300D01*
X147214070Y-75789070D01*
X147234300Y-75775552D01*
X147245714Y-75764139D01*
X147262425Y-75756759D01*
X147285038Y-75741651D01*
X147306157Y-75737450D01*
X147320863Y-75730957D01*
X147363901Y-75725964D01*
X147368750Y-75725000D01*
X147806250Y-75725000D01*
X147811100Y-75725964D01*
G37*
G36*
X152723600Y-75675964D02*
G01*
X152766636Y-75680957D01*
X152781340Y-75687449D01*
X152802462Y-75691651D01*
X152825076Y-75706761D01*
X152841785Y-75714139D01*
X152853196Y-75725550D01*
X152873430Y-75739070D01*
X152886949Y-75759303D01*
X152898360Y-75770714D01*
X152905737Y-75787421D01*
X152920849Y-75810038D01*
X152925050Y-75831161D01*
X152931542Y-75845863D01*
X152936533Y-75888889D01*
X152937500Y-75893750D01*
X152937500Y-76406250D01*
X152936532Y-76411112D01*
X152931542Y-76454136D01*
X152925051Y-76468836D01*
X152920849Y-76489962D01*
X152905735Y-76512580D01*
X152898360Y-76529285D01*
X152886951Y-76540693D01*
X152873430Y-76560930D01*
X152853193Y-76574451D01*
X152841785Y-76585860D01*
X152825080Y-76593235D01*
X152802462Y-76608349D01*
X152781336Y-76612551D01*
X152766636Y-76619042D01*
X152723611Y-76624032D01*
X152718750Y-76625000D01*
X152281250Y-76625000D01*
X152276388Y-76624032D01*
X152233363Y-76619042D01*
X152218661Y-76612550D01*
X152197538Y-76608349D01*
X152174921Y-76593237D01*
X152158214Y-76585860D01*
X152146803Y-76574449D01*
X152126570Y-76560930D01*
X152113050Y-76540696D01*
X152101639Y-76529285D01*
X152094261Y-76512576D01*
X152079151Y-76489962D01*
X152074949Y-76468840D01*
X152068457Y-76454136D01*
X152063464Y-76411099D01*
X152062500Y-76406250D01*
X152062500Y-75893750D01*
X152063464Y-75888900D01*
X152068457Y-75845863D01*
X152074950Y-75831157D01*
X152079151Y-75810038D01*
X152094259Y-75787425D01*
X152101639Y-75770714D01*
X152113052Y-75759300D01*
X152126570Y-75739070D01*
X152146800Y-75725552D01*
X152158214Y-75714139D01*
X152174925Y-75706759D01*
X152197538Y-75691651D01*
X152218657Y-75687450D01*
X152233363Y-75680957D01*
X152276401Y-75675964D01*
X152281250Y-75675000D01*
X152718750Y-75675000D01*
X152723600Y-75675964D01*
G37*
G36*
X154298600Y-75675964D02*
G01*
X154341636Y-75680957D01*
X154356340Y-75687449D01*
X154377462Y-75691651D01*
X154400076Y-75706761D01*
X154416785Y-75714139D01*
X154428196Y-75725550D01*
X154448430Y-75739070D01*
X154461949Y-75759303D01*
X154473360Y-75770714D01*
X154480737Y-75787421D01*
X154495849Y-75810038D01*
X154500050Y-75831161D01*
X154506542Y-75845863D01*
X154511533Y-75888889D01*
X154512500Y-75893750D01*
X154512500Y-76406250D01*
X154511532Y-76411112D01*
X154506542Y-76454136D01*
X154500051Y-76468836D01*
X154495849Y-76489962D01*
X154480735Y-76512580D01*
X154473360Y-76529285D01*
X154461951Y-76540693D01*
X154448430Y-76560930D01*
X154428193Y-76574451D01*
X154416785Y-76585860D01*
X154400080Y-76593235D01*
X154377462Y-76608349D01*
X154356336Y-76612551D01*
X154341636Y-76619042D01*
X154298611Y-76624032D01*
X154293750Y-76625000D01*
X153856250Y-76625000D01*
X153851388Y-76624032D01*
X153808363Y-76619042D01*
X153793661Y-76612550D01*
X153772538Y-76608349D01*
X153749921Y-76593237D01*
X153733214Y-76585860D01*
X153721803Y-76574449D01*
X153701570Y-76560930D01*
X153688050Y-76540696D01*
X153676639Y-76529285D01*
X153669261Y-76512576D01*
X153654151Y-76489962D01*
X153649949Y-76468840D01*
X153643457Y-76454136D01*
X153638464Y-76411099D01*
X153637500Y-76406250D01*
X153637500Y-75893750D01*
X153638464Y-75888900D01*
X153643457Y-75845863D01*
X153649950Y-75831157D01*
X153654151Y-75810038D01*
X153669259Y-75787425D01*
X153676639Y-75770714D01*
X153688052Y-75759300D01*
X153701570Y-75739070D01*
X153721800Y-75725552D01*
X153733214Y-75714139D01*
X153749925Y-75706759D01*
X153772538Y-75691651D01*
X153793657Y-75687450D01*
X153808363Y-75680957D01*
X153851401Y-75675964D01*
X153856250Y-75675000D01*
X154293750Y-75675000D01*
X154298600Y-75675964D01*
G37*
M02*
