M48
; DRILL file {KiCad 9.0.6} date 2025-11-13T15:57:48+0100
; FORMAT={-:-/ absolute / inch / decimal}
; #@! TF.CreationDate,2025-11-13T15:57:48+01:00
; #@! TF.GenerationSoftware,Kicad,Pcbnew,9.0.6
; #@! TF.FileFunction,Plated,1,2,PTH
FMAT,2
INCH
; #@! TA.AperFunction,Plated,PTH,ViaDrill
T1C0.0118
%
G90
G05
T1
X4.6181Y-3.685
X4.7067Y-3.6319
X4.7796Y-3.8228
X4.8465Y-3.5873
X4.8937Y-3.9311
X4.9035Y-3.7343
X4.9902Y-4.0059
X5.0039Y-3.5709
X5.0591Y-3.7894
X5.1102Y-4.1102
X5.128Y-4.9154
X5.1299Y-3.5669
X5.1299Y-3.8642
X5.1398Y-5.0591
X5.1575Y-5.1575
X5.1732Y-4.7657
X5.189Y-4.6437
X5.2067Y-3.9567
X5.2067Y-4.1969
X5.2382Y-4.4862
X5.248Y-3.6988
X5.248Y-4.3465
X5.2874Y-4.4764
X5.2894Y-4.8425
X5.2953Y-3.5512
X5.3248Y-4.5394
X5.3307Y-3.6142
X5.3425Y-5.0728
X5.3504Y-3.7815
X5.3563Y-4.0551
X5.3957Y-4.8504
X5.4154Y-4.065
X5.435Y-3.5571
X5.4429Y-4.5374
X5.4724Y-4.9902
X5.5438Y-4.843
X5.563Y-3.4547
X5.5787Y-4.9252
X5.5984Y-4.6949
X5.6161Y-3.6024
X5.622Y-3.2756
X5.6457Y-3.4094
X5.6457Y-3.437
X5.6465Y-3.5669
X5.6495Y-3.2727
X5.6868Y-3.3262
X5.6909Y-4.5689
X5.7008Y-3.1319
X5.7106Y-3.3248
X5.7146Y-4.8406
X5.7244Y-3.0591
X5.7402Y-3.5551
X5.7652Y-3.4862
X5.7933Y-3.4783
X5.7972Y-3.4075
X5.8307Y-4.7618
X5.8368Y-3.2783
X5.8445Y-4.6594
X5.8622Y-3.1969
X5.8635Y-3.3403
X5.8661Y-3.0
X5.9434Y-3.345
X5.9488Y-3.2539
X5.9567Y-2.998
X5.9717Y-3.3447
X5.9823Y-3.5157
X5.9843Y-4.687
X5.9843Y-4.7618
X5.9849Y-3.3907
X6.0039Y-3.4449
X6.0394Y-3.594
X6.0433Y-3.3051
X6.0591Y-4.6142
X6.061Y-3.4016
X6.0787Y-3.2003
X6.0866Y-3.4134
X6.0906Y-3.0453
X6.0906Y-3.5113
X6.1102Y-4.8406
X6.1122Y-4.5709
X6.122Y-3.1339
X6.124Y-3.372
X6.1339Y-3.5118
X6.1629Y-3.508
X6.1904Y-3.5059
X6.1929Y-3.2756
X6.2146Y-4.6969
X6.2224Y-3.592
X6.2362Y-4.9213
X6.2471Y-3.6044
X6.2485Y-3.5251
X6.2756Y-4.565
X6.2787Y-3.5993
X6.2795Y-3.435
X6.2972Y-3.5788
X6.3563Y-4.9862
X6.3898Y-3.5236
X6.4016Y-3.813
X6.4075Y-4.3209
X6.4168Y-3.6324
X6.4252Y-3.9252
X6.4252Y-4.8543
X6.4272Y-4.0531
X6.4311Y-4.1654
X6.4527Y-3.6064
X6.4553Y-4.4841
X6.4705Y-4.5728
X6.4783Y-5.065
X6.4862Y-3.6811
X6.4862Y-3.7697
X6.5Y-4.4134
X6.502Y-4.0531
X6.5236Y-3.5512
X6.5335Y-4.8504
X6.5453Y-4.6083
X6.5472Y-3.6167
X6.5472Y-4.1929
X6.5531Y-4.3563
X6.5591Y-3.937
X6.5802Y-3.6186
X6.5945Y-4.2067
X6.5945Y-4.4961
X6.6299Y-5.122
X6.6378Y-3.6555
X6.6378Y-4.6358
X6.6535Y-4.7657
X6.6831Y-3.565
X6.7008Y-4.9114
X6.7087Y-4.1201
X6.7224Y-5.126
X6.8031Y-3.8189
X6.813Y-3.5768
X6.8268Y-4.0157
X6.8602Y-3.7126
X6.9173Y-3.9429
X6.9724Y-3.5886
X7.0433Y-3.8307
X7.1378Y-3.6969
X7.1752Y-3.6161
M30
